<mxfile host="app.diagrams.net" modified="2023-10-19T15:34:23.644Z" agent="Mozilla/5.0 (Windows NT 10.0; Win64; x64) AppleWebKit/537.36 (KHTML, like Gecko) Chrome/118.0.0.0 Safari/537.36 Edg/118.0.2088.46" etag="G3rcW2pcJam_aczxnrjR" version="22.0.4" type="github">
  <diagram name="Page-1" id="x1FW58Zjv5MuykVU-vf0">
    <mxGraphModel dx="1605" dy="808" grid="1" gridSize="10" guides="1" tooltips="1" connect="1" arrows="1" fold="1" page="1" pageScale="1" pageWidth="827" pageHeight="1169" math="0" shadow="0">
      <root>
        <mxCell id="0" />
        <mxCell id="1" parent="0" />
        <mxCell id="ykbCwDOSCqS8t4fymPeZ-40" value="" style="shape=ext;double=1;whiteSpace=wrap;html=1;aspect=fixed;" vertex="1" parent="1">
          <mxGeometry x="235" y="740" width="375" height="375" as="geometry" />
        </mxCell>
        <mxCell id="ykbCwDOSCqS8t4fymPeZ-23" value="" style="edgeStyle=orthogonalEdgeStyle;rounded=0;orthogonalLoop=1;jettySize=auto;html=1;" edge="1" parent="1" source="ykbCwDOSCqS8t4fymPeZ-1" target="ykbCwDOSCqS8t4fymPeZ-22">
          <mxGeometry relative="1" as="geometry" />
        </mxCell>
        <mxCell id="ykbCwDOSCqS8t4fymPeZ-25" value="" style="edgeStyle=orthogonalEdgeStyle;rounded=0;orthogonalLoop=1;jettySize=auto;html=1;" edge="1" parent="1" source="ykbCwDOSCqS8t4fymPeZ-24" target="ykbCwDOSCqS8t4fymPeZ-1">
          <mxGeometry relative="1" as="geometry" />
        </mxCell>
        <mxCell id="ykbCwDOSCqS8t4fymPeZ-1" value="Sensors" style="rounded=1;whiteSpace=wrap;html=1;" vertex="1" parent="1">
          <mxGeometry x="240" y="555" width="120" height="60" as="geometry" />
        </mxCell>
        <mxCell id="ykbCwDOSCqS8t4fymPeZ-13" value="" style="edgeStyle=orthogonalEdgeStyle;rounded=0;orthogonalLoop=1;jettySize=auto;html=1;" edge="1" parent="1" source="ykbCwDOSCqS8t4fymPeZ-14" target="ykbCwDOSCqS8t4fymPeZ-12">
          <mxGeometry relative="1" as="geometry" />
        </mxCell>
        <mxCell id="ykbCwDOSCqS8t4fymPeZ-11" value="&lt;h1&gt;&lt;font style=&quot;font-size: 18px;&quot;&gt;Physical world&lt;/font&gt;&lt;/h1&gt;&lt;p&gt;&lt;/p&gt;&lt;ul&gt;&lt;li style=&quot;text-align: justify;&quot;&gt;&lt;span style=&quot;background-color: initial;&quot;&gt;Sensors capture the user/object behaviors, pefomances, other intereactions&lt;/span&gt;&lt;/li&gt;&lt;li style=&quot;text-align: justify;&quot;&gt;Actuactor give the feedback&lt;/li&gt;&lt;/ul&gt;&lt;p&gt;&lt;/p&gt;&lt;p&gt;&lt;br&gt;&lt;/p&gt;" style="text;html=1;strokeColor=none;fillColor=none;spacing=5;spacingTop=-20;whiteSpace=wrap;overflow=hidden;rounded=0;" vertex="1" parent="1">
          <mxGeometry x="50" y="240" width="280" height="120" as="geometry" />
        </mxCell>
        <mxCell id="ykbCwDOSCqS8t4fymPeZ-12" value="&lt;h1&gt;&lt;font style=&quot;font-size: 18px;&quot;&gt;Virtual world&lt;/font&gt;&lt;/h1&gt;&lt;p style=&quot;text-align: justify;&quot;&gt;Lorem ipsum dolor sit amet, consectetur adipisicing elit, sed do eiusmod tempor incididunt ut labore et dolore magna aliqua.&lt;/p&gt;" style="text;html=1;strokeColor=none;fillColor=none;spacing=5;spacingTop=-20;whiteSpace=wrap;overflow=hidden;rounded=0;" vertex="1" parent="1">
          <mxGeometry x="580" y="240" width="240" height="120" as="geometry" />
        </mxCell>
        <mxCell id="ykbCwDOSCqS8t4fymPeZ-15" value="" style="edgeStyle=orthogonalEdgeStyle;rounded=0;orthogonalLoop=1;jettySize=auto;html=1;" edge="1" parent="1" source="ykbCwDOSCqS8t4fymPeZ-11" target="ykbCwDOSCqS8t4fymPeZ-14">
          <mxGeometry relative="1" as="geometry">
            <mxPoint x="330" y="300" as="sourcePoint" />
            <mxPoint x="580" y="300" as="targetPoint" />
          </mxGeometry>
        </mxCell>
        <mxCell id="ykbCwDOSCqS8t4fymPeZ-16" value="" style="endArrow=classic;html=1;rounded=0;entryX=1.019;entryY=0.661;entryDx=0;entryDy=0;entryPerimeter=0;exitX=-0.019;exitY=0.661;exitDx=0;exitDy=0;exitPerimeter=0;" edge="1" parent="1" source="ykbCwDOSCqS8t4fymPeZ-12" target="ykbCwDOSCqS8t4fymPeZ-11">
          <mxGeometry width="50" height="50" relative="1" as="geometry">
            <mxPoint x="570" y="320" as="sourcePoint" />
            <mxPoint x="450" y="330" as="targetPoint" />
          </mxGeometry>
        </mxCell>
        <mxCell id="ykbCwDOSCqS8t4fymPeZ-14" value="Sensors / Actuator" style="rounded=1;whiteSpace=wrap;html=1;" vertex="1" parent="1">
          <mxGeometry x="390" y="270" width="120" height="60" as="geometry" />
        </mxCell>
        <mxCell id="ykbCwDOSCqS8t4fymPeZ-17" value="" style="endArrow=classic;html=1;rounded=0;exitX=-0.023;exitY=0.661;exitDx=0;exitDy=0;exitPerimeter=0;" edge="1" parent="1" source="ykbCwDOSCqS8t4fymPeZ-12">
          <mxGeometry width="50" height="50" relative="1" as="geometry">
            <mxPoint x="570" y="320" as="sourcePoint" />
            <mxPoint x="510" y="320" as="targetPoint" />
          </mxGeometry>
        </mxCell>
        <mxCell id="ykbCwDOSCqS8t4fymPeZ-27" value="" style="edgeStyle=orthogonalEdgeStyle;rounded=0;orthogonalLoop=1;jettySize=auto;html=1;" edge="1" parent="1" source="ykbCwDOSCqS8t4fymPeZ-22" target="ykbCwDOSCqS8t4fymPeZ-26">
          <mxGeometry relative="1" as="geometry" />
        </mxCell>
        <mxCell id="ykbCwDOSCqS8t4fymPeZ-22" value="Data integration /&amp;nbsp; data driven" style="whiteSpace=wrap;html=1;rounded=1;" vertex="1" parent="1">
          <mxGeometry x="400" y="555" width="120" height="60" as="geometry" />
        </mxCell>
        <mxCell id="ykbCwDOSCqS8t4fymPeZ-24" value="Physical environment" style="whiteSpace=wrap;html=1;rounded=1;" vertex="1" parent="1">
          <mxGeometry x="50" y="555" width="120" height="60" as="geometry" />
        </mxCell>
        <mxCell id="ykbCwDOSCqS8t4fymPeZ-28" style="edgeStyle=orthogonalEdgeStyle;rounded=0;orthogonalLoop=1;jettySize=auto;html=1;" edge="1" parent="1">
          <mxGeometry relative="1" as="geometry">
            <mxPoint x="99" y="555" as="targetPoint" />
            <mxPoint x="692" y="585" as="sourcePoint" />
            <Array as="points">
              <mxPoint x="729" y="585" />
              <mxPoint x="729" y="490" />
              <mxPoint x="99" y="490" />
            </Array>
          </mxGeometry>
        </mxCell>
        <mxCell id="ykbCwDOSCqS8t4fymPeZ-26" value="Digital twins&lt;br&gt;(3D CAO)" style="whiteSpace=wrap;html=1;rounded=1;" vertex="1" parent="1">
          <mxGeometry x="573" y="555" width="120" height="60" as="geometry" />
        </mxCell>
        <mxCell id="ykbCwDOSCqS8t4fymPeZ-29" value="Actuator / Feedback" style="whiteSpace=wrap;html=1;rounded=1;" vertex="1" parent="1">
          <mxGeometry x="327" y="460" width="120" height="60" as="geometry" />
        </mxCell>
        <mxCell id="ykbCwDOSCqS8t4fymPeZ-30" value="" style="shape=curlyBracket;whiteSpace=wrap;html=1;rounded=1;flipH=1;labelPosition=right;verticalLabelPosition=middle;align=left;verticalAlign=middle;rotation=90;" vertex="1" parent="1">
          <mxGeometry x="190" y="500" width="30" height="300" as="geometry" />
        </mxCell>
        <mxCell id="ykbCwDOSCqS8t4fymPeZ-31" value="&lt;b&gt;Colleter des données&lt;/b&gt;" style="text;html=1;strokeColor=none;fillColor=none;align=center;verticalAlign=middle;whiteSpace=wrap;rounded=0;" vertex="1" parent="1">
          <mxGeometry x="175" y="675" width="60" height="30" as="geometry" />
        </mxCell>
        <mxCell id="ykbCwDOSCqS8t4fymPeZ-32" value="" style="shape=curlyBracket;whiteSpace=wrap;html=1;rounded=1;flipH=1;labelPosition=right;verticalLabelPosition=middle;align=left;verticalAlign=middle;rotation=90;" vertex="1" parent="1">
          <mxGeometry x="443" y="580" width="30" height="140" as="geometry" />
        </mxCell>
        <mxCell id="ykbCwDOSCqS8t4fymPeZ-33" value="&lt;b&gt;Traitement de données, modélisation/prédiction&amp;nbsp;&amp;nbsp;&lt;br&gt;&amp;nbsp;( GenAI)&lt;/b&gt;" style="text;html=1;strokeColor=none;fillColor=none;align=center;verticalAlign=middle;whiteSpace=wrap;rounded=0;" vertex="1" parent="1">
          <mxGeometry x="370" y="670" width="160" height="50" as="geometry" />
        </mxCell>
        <mxCell id="ykbCwDOSCqS8t4fymPeZ-34" value="&lt;b style=&quot;border-color: var(--border-color); color: rgb(0, 0, 0); font-family: Helvetica; font-size: 12px; font-style: normal; font-variant-ligatures: normal; font-variant-caps: normal; letter-spacing: normal; orphans: 2; text-align: center; text-indent: 0px; text-transform: none; widows: 2; word-spacing: 0px; -webkit-text-stroke-width: 0px; background-color: rgb(251, 251, 251); text-decoration-thickness: initial; text-decoration-style: initial; text-decoration-color: initial;&quot;&gt;Modélisation env. Physique /Simulations - testes et optimisation&amp;nbsp;&lt;/b&gt;" style="text;whiteSpace=wrap;html=1;" vertex="1" parent="1">
          <mxGeometry x="540" y="670" width="220" height="40" as="geometry" />
        </mxCell>
        <mxCell id="ykbCwDOSCqS8t4fymPeZ-35" value="" style="shape=curlyBracket;whiteSpace=wrap;html=1;rounded=1;flipH=1;labelPosition=right;verticalLabelPosition=middle;align=left;verticalAlign=middle;rotation=90;" vertex="1" parent="1">
          <mxGeometry x="623" y="580" width="30" height="140" as="geometry" />
        </mxCell>
        <mxCell id="ykbCwDOSCqS8t4fymPeZ-36" value="The priciple" style="text;strokeColor=none;fillColor=none;html=1;fontSize=24;fontStyle=1;verticalAlign=middle;align=center;" vertex="1" parent="1">
          <mxGeometry x="300" y="160" width="200" height="40" as="geometry" />
        </mxCell>
        <mxCell id="ykbCwDOSCqS8t4fymPeZ-37" value="The diagram explanation" style="text;strokeColor=none;fillColor=none;html=1;fontSize=24;fontStyle=1;verticalAlign=middle;align=center;" vertex="1" parent="1">
          <mxGeometry x="244" y="390" width="360" height="40" as="geometry" />
        </mxCell>
        <mxCell id="ykbCwDOSCqS8t4fymPeZ-38" value="&lt;font style=&quot;font-size: 36px;&quot;&gt;Digital twins - DRI projet&lt;/font&gt;" style="text;strokeColor=none;fillColor=none;html=1;fontSize=24;fontStyle=1;verticalAlign=middle;align=center;" vertex="1" parent="1">
          <mxGeometry x="175" y="90" width="460" height="40" as="geometry" />
        </mxCell>
        <mxCell id="ykbCwDOSCqS8t4fymPeZ-39" value="" style="shape=image;verticalLabelPosition=bottom;labelBackgroundColor=default;verticalAlign=top;aspect=fixed;imageAspect=0;image=data:image/png,iVBORw0KGgoAAAANSUhEUgAAAV0AAAEtCAYAAACrqrN2AAAAAXNSR0IArs4c6QAAAARnQU1BAACxjwv8YQUAAAAJcEhZcwAAFiUAABYlAUlSJPAAAABhaVRYdFNuaXBNZXRhZGF0YQAAAAAAeyJjbGlwUG9pbnRzIjpbeyJ4IjowLCJ5IjowfSx7IngiOjM1MCwieSI6MH0seyJ4IjozNTAsInkiOjMwMn0seyJ4IjowLCJ5IjozMDJ9XX2cP3kOAAD/OElEQVR4Xuy9B6CcV3UtvKb3dnvXVZes7t67Mc3YIQVegEBIgUAC6aS9ECDv/YEECOEFCBACoRhiqmm2ccPGtiwXWb2Xq6vb6/Q+8691vrmyLKvaKldm9tWnmfnq+U5ZZ+199tnHVqWgLnWpS13qclbEXvusS13qUpe6nAWpg25d6lKXupxFqYNuXepSl7qcRamDbl3qUpe6nEWpg25d6lKXupxFqYNuXepSl7qcRamDbl3qUpe6nEWp++nWZXZJtYJMOo/du/fA7XZh4ZIFcNgdtYN1qcv5L3XQrcuskUIui7HBAXzjzu/iwZ89hkg0ire95Vdw2VWXINrcDLvLXVfN6nLeSx1063LOZXxkBPfc9W2se/ghZJJxJCoeZKpuRKMxuPMTcBQzaO7oxI2vvw3XvPa1cLkJvvY6/NblfJR8HXTrcu6kwqr3zM9/ji9/6t8Qn5iAy+OC22lHvORFquo0oOsi6DrLGaBWS5u7uvHev/5bdM6by182a2dd6nKeSHnrx+raWl3OnTz8ox/h3z74IRRzWThcTuTzBQPElRmEpdhstkPQqu8TAwfx//3lX2D/zp2o84W6nHdSLdWZbl3OlLBaVStCSpSqRRTKBW4ZFCtZ5MoJDPcN4ot/+WmkUim4nE64PW5kszlzWc4ZQBY180JhEs5SmgBrga4qq0A41tqI3/7oexEJNsBlD8Jlc/M+PngcATiqdlRter6uqfOKuswmKdZBty6nX0rVAuK5YUwWhpErJZAujqNQJaAasYDz4U89ioGNAygWCciFIrweD+wOO3LZPFLwoOj0HzIvuIx5wbrOkip/2nHFb1yKBa+ep0psASwVNy8BO+iMweOMoMnTgaCnhXudtevqUpdzK+Wd36+Dbl1Oh1RRqZQwnu/HaGoHEqVJ9udlgqBlGDiyipXSRXzrT+4iEbbAUqBbLlfg9Xr5u4SJvBMFewDhcBDe0jRclTzBucxnVODxuHg/Megqoh2NeMM/vt7c/0XVmI/W0z0E3Ii3E62+hYi6W2Cz1wG4LudOig//ed2mW5eXK1UkilN4buKn2D71CCZKoyjxb8YOezSZHppCtSjArRr13+NxGxDN57PGK0HmBoHo9PQ0SmTCAlk5K5RLRcOMZbLQX2I0gXK2XLvrC6UG98gT/Edzfdg0dR+2TD9SY9wE7brU5RyI68p/qDPdurx0UcWpVgt4ZvQHyFZkd9UkhhNXp5HNg7j/s3vQNP8KuFx+XmE3rLcicCWgluEgq5UJwQYXwdZuQNJmmK6A2uF0oJSdxtTAI/i1/3sjnEGx3+M/V/ZgSYunG0ti18+gcl3qctalDrp1eVlSKOXx+Oi34bCXCHw2YeJxxWavYnKgiHv+w4ueOfPgcDgIus+zVd5C/1vQzf+ElTZrpzlmTBZ8iL5XSilc845horLMC9Y5xxQetvO/mCeC5Q2v5466kleXcyP1mleXlyXqs6dSNhQLZKuCRAOMtY0/ZhimEVsVO9YO4sm7B0G6alzDKvqfpxgQFdgKUIW4NfDWd+s8a4eBY7t1gd0ZxOPf6cdkf9ocOyS1R5q0mOdb5gi/BwgEdI/aCbNE9M7pbAYZbnKZq8srW+qgW5eXJcK0ctWOsbQd0yk7CkUxV0KcapZNZoHnQURMc8PDB7D7mRHhIMqVIgaHBlAqlWpnnFjSmQyGhob5XD6FwLvzsUH07xirHbVEJgqBrZ3pcvK8gBdoDANBn/wb+OhZhmvZbBaVsswrNr5ftra3Lq9UqYPuGRLZJ4tsSGYjplibfms/t1JtM79rx825M+cccS2/lzTafxiIzTbJVmyYTNswluAnATiZdaFQdhhglij5l71hAVZc31FjtFWCtAbKrHeaYcbH2iSVcpn5UdTZ5vea13Vh7ppO8127dJ7XWUHYB8QiVTRE7Qj5bXCKHc9CKfF9Cixgv98Hv8+LMn+fSidUl/NP6jbdMyB7+tL4yH/sRCZds1WS8Vk2R9k8uU9ZXgMRIzxmtzvI/Er8FBujqs59cvC3UbE2p5j+sYTbru3AW9/YRTY3O/rLQimHu/d8n2k/uheBx1lFY6gCjYHNAOfgbuDhbzjR0dlhvBVk1z1ZUXXVgJrD4TT9z2Vv3g2np2aSYH7ZmW/NMQL9MTonrz2MOe7bXpj/51CyubzJu6Dfb36nszm+RoUgbP2uyytP6qB7WqXKBlTB+//vVgyMJFCsOAgO2m9HpViFy13AtdcsYYOSi5S5wEg2m8e6tbuwYlU3du8cxnXXL8aPf7SJ+wkdTqc51cyw4j2qZJMf+8sVWDovYF18juXEoAs0BSsos5rNgG58xIEff94Gj9vFvNB7cL95SXP4pETdkYdge+PvTDJ7LWaoW+SKdnS3qOM6P0A3kUwZlzmP280UV8h6y8hlswiHw+Z96vLKkzronlZRowHe8VfPIJ0r4db3t8AunycCZt/6DLbeH4fPSx5LNmsGhGoiP9RyifsdFiMMh/2Ynk7D7vPhlj9oMCyuwia46d4UBjbE8f63LsSNV7bUrj63cjKg20jQPXyAyM78WP8zJ/Y+rXdnr8T3P2kxSFSF02nDhbdV0LPUyklV4wLzMJ62YdkcMt5jINZsAl0x9kQqjWCQrLa4nQpRAXb3MsRTOQRDQTjrkdReeVIdqYPu6ZZiqYy3f+A5ZAslvPpPWggItcZdqWLXU3lkE4ovwH1HtnkVg/bVSsPmqGLeqgj8TTbutqFCoNr+UAZ9Twt0FxF0G3jWuW+ULwV0xXhlHgmt2wVk8trD7fnjx6uQOlNdVrGrAekF7HioTZidlGzBjkTOhuU9lWPmzOwBXdmmK0gnBxGs3I1y7lm+ODsf/0oUbLfBHZrDvPPUzq3LK0Xiu39aB93TLS8A3T9uJr7Wmj8budyeZpq6rAVVm4Dq8AkFihJQhc+u/2vCLxqNz1RK2PRQ6hUDuvo7+OVHsHJBQy0vACdVbIeL5+qcQ+RXg2i6RgYD60R9f3YojbbXL0e1rIPWmRbogqBrWcCPJmcDdGViyufzZsKHw2GHw+k0dmuV44xUK0mU4j9GNf0Q3+r5uBSWLZqZ5r8O7uivsIhD1iGKsrBcLpmBNrFk5aPb7THPqMv5IQPrfzALWu0vi7DF2Nlo2MtJr0TJpqmyDv5mM5Npgd/LKKHd6cNl/hZcXtsuC7Tg6kAb2tx+04hfCWLjewzvGMSzTw+Y95fxxOm0wxv0oG3Nb6D32vdjzo3W1nvj+xBZcCXcHi+cHg9cPg9KBLBHfrIZ5azJUOums0SUmlQ6ZTw17ATbMj/lBhZPJJFIZ5AmGBfT96M4/GEC7k95tpj+jNRMJawHyDyAwsgHUErfi2I+jSTvMZ1ImIE2Yx8n0KpfSmUy5sq6nB/SufryOuieNRG2cEtOFjGyu4hdD2ax7utpPPS5Kfz0X0fx408M4+AzRfSVMngwNXjYNoCRUhoONTRzk/NLDKZy00y0md82uw27n+jD0GgWO/eMG+Zqs8uLl4x+ZAtsLgKsr4lbIyqlPPKTfQaONDym2z388E7kMgTurSPWnppNeMZSbjq2cyRKnxLhcjnh9bgR8HkRCfkRCvrhLO+Fc+LDqEx9jf3MGPPC4rVHE6MTlTM895soTH4IzsJmc49QIAC/1wsfOyGXy1U7uy7nk9RB9yxJerKEBz4zifs/M4WtP8lhYGMJDqrDPe1hXH1FN264dg5SY0Xj8iTMmNksKKmJadHnlzjhQYd3IRaGrsCy6LW4uOk1WB25Df1PDLL2FfHA4wMYS+Qs4OX5uak9GFn7eUw8+3WMPfPfGH76a6hkxy3TDIF7w9YJrHvKmhwx8mQcl7T8ClY1vBpLI1djUfQidIe7mU/ntlorTKUCss9Y7iqVJKrxz8MR/2ey/AHuUecwU8CHSvcIsc7Rn6syTkr7b6hOfxqV8oSpB7p3Ppczi3fW5fySOuieJSnkq7hgURte89r56O4J4TffshKvu20JrryyF0sWN6OlKcKWxNZ0Bm2N50L8rjDmRy9De2Ahmvy9CLiasGntU4hPTfBVnchVKrjzrm3Y1z9lGLBc4kqlAtLxfuQSBGaCi2ZqKVuefKofd313vQmILuTZ/ux6JEenEfa2oNk/F72RJbi07Qo4jJ383ImHoKv0avaczAyV8RQyzzlQzrGMZ4zVJyjmGfc6W7VsOpxqwoP4D4aR27Tf2IwzCvhOEcDX5TwSW6QOumdLpPKWihX4fS42FBeK/D44NI216/rw43t24IHHdqFpvpNnWsznBdh7LDI0K+RkEqeXsV6oSsC49zt3E2AJjU6HwaBktojHnxzA8GDcMETdU/k1E3kslyxibCCOR9cOwuW0kzlqgkTZzN569N6fEZdfiGBH/Dwrolw4fNPkBhHZVJrAy/QWEzFkt1+FXP9KVMtu66xjpNPs1vvzo1J2IvtEA+LfakVhD4/x5bTChmayGR9nnqTzZra6zHbxqm6ratTldMmxvBcKmQq2PpZCbsyBbCaHaLsL4WYnYh0OOP0uRJplVmBDY2lYg0tWi9SkiE5nAMlKEU/eP4W+ZxKzynshX8ri7j0/MCB4NGnyN+OmOa+q/QK2b1iPD//R+w2TM0HLKblcAUvmNeDWq3vNFGi9ulivAZ4aMfR4HPjGD3YhRcDJZPNmxF4BzX2BIP6/L30Z/pBG+asoV0vYk/8OLz36VNrT7b2gMvva95/F0EjGSrfKr1Z2Ss9NV3djrp8dxaYnUOZvc8xRgat9G/zNB1BVhLTa2YdEr87/ctsCyD0RQTnLXSxq+XN7brsDQ7Fu3P/IXnY6h7+DdZdY1Id3/PoqswqHBmrrMvukznTPknj8Dqx+VRCXvimAuZeGUMxVMLo9jce/PoWdd+fw6BfjWP+tLHY8mMbkgNidGpE2GwaLaSSqxZl2NWvEpI7g5WAnIf+LkxnoSyXTCIakYvEah80EKZeQ+HK/E+GwF8GACx63gxqBA8EgO6ewG4EgtQDW1grRR4Arlism7PL4CdozLlfHFqOuG6BVQJ7TJ2LZe/fFMZ3MIlm0IUkgTLD/0Rbn9oNHh7B9MHHomWaAjB1J6eByJLdfh3KixUqbyT25gdlRGvIi/u1WZB4OoZRXuq0rJftGcvjOw3sxyWyLs4OaeVaCz51IFbBn/6SJ01EH3Nkrjn+g1L7X5TSIVMnv3z9M9a+CBZdT/XsBo2KjZGuZfqIPCxsSsJWKcBFA0vEcYoEMbGU7MlNebHt8CrufICsu2NA+z22ao/jQ+P4i4kN5XL6yEXO7feZ+51IMVJCRFssFjGYVOezF6fG7ApgXnW++CzY6urtxyx23o3VOF8KhKKYmp5BKJNDdFsKCuQ2w28pw8J4up83MOmP2mNll8nF9bsskCvkcuuctwGXX3YDb3voW/K93vQsBstwZG6im0k6Vt/FbjSIfJoo61uhaDY8jZvL0dIjY5yNr98PT1oSeqy5EeF4XonM7ufFzXrf57iDr7o4PGK3FygWrPKslFwqT3aiko7AFCMw5O1KPNiD9aBDVDDsWc64581Bq984li119EaK9urc2PU9bN8q5PPLTKVx/ZS+cpxDPoi5nV+pM96wJGxCBQW5Cq+Zm8Udv3It/+O09+Mjvb8OfvG0PlvYkyH7TuOXC7VixMIKP/e+VsGWkar8YPGaTiOGubLkQ13fdjAaPTB56T2uTh4FEoCERcAgcfYEArrv1tfitP3kfPvbVr+AT3/gSbrlltTnzaMAtkRr/jt99Lf7pa1/F33/m/+E33/eHWHnZ5WS6GrSaAVxdzv95rvYJgA34Vh3wOVrR7bsFEef80wa4h4vuqMZk57MNi9dTTFL49soLc9aLxcbyrcSbkNt6NSbvakF+pxsVTQc3E2deLPJukffdzDMOPYvHKnzn0/9mdTndUgfdsyTlkg27n8pgxyNJPLk9gP/+WRd2HfQiHCxg9fws/terxrGgO4fbLh+Ew02WU1HD44VkZ7Nb2NDZ2NtC7bhpzq24qffVWNm4Bi2eVoKOHW67i/3G0aGgXLFjeOgA0hu/DVcpwXcVQNYOHiFm6GF6J+IbvoeRCZ17NCDjPj5TIESkQ8DRhWbXpZjrey26XTfDa2uqnXf6RcmbSbplm9cvq7txk3QevjrG4aLzFFfDzrxAUV0Ez9O9jF3/xeJ2lYw3x8wznn+WBfx1mf1SH0h72aKwjfwQ2+IXmSjf/lfPIlcs45Y/bjb7BZtTwyVs+UEebo8N2UwZTc1+DPanqS5nEYkWsWp+BrsGPWgIFLF5b4hqdQWN8wO49FetaFPibNseSKHv2STep4A3VzSaViZuoyK02N5sanYa1LKmqgoGZ/bJ/Smdr+LgODuhUQIv0+7JD6Fx6iF4cn0E36Twkqda72L+Z/7m3U3I+hdgouFalB0x+FxVLGyrojPmMFOND5cZgDsbdk1Nx/3Ivz4MR3MDOi9ezmerM7DSrmoxN1jC6tIwyhvX8ffRtRadL0tz+pnNqJaPPgBophAzr7y33YGtXauwM+Ui41Xds56lejayaSdSewfw9392HTwueUjUZTZKHXRfhijewJZdSaQzmtIrdZb72N4/9bU9KBSrWHN7xJgT1CAyU2X4pgLomRPB/t1xLF7ciDv/5zk4HQr76ITDlwc5oQl0U3WUYSs74YkFMO8qn2FuFbLFgY15jO9N4PXXdmHFYiu0o/XcChbNDyMWVhjI2cuMNSW2f7KCkSlgPKMOSnFvCRzKIuVepQhPYRjuIk9Q3GFKyeFGydVA0G3lLwGMrtFfBX6XHQ2hCroagNawjtUA6CzKUUGXLyQzx8JQGUuYvv0Hx9G7ey1T/PJAV250B296I+ZdtBR703ZsThBYK6p1Vh2rg+75IbNdd529wgbwX989iCcf2oODW/bj4NZ9GNqyDyPb+1EtSU2mersvhvC+KEJ7IvAeDKC/L4Wdu+IYH09i85ZhMwrv8hBgqTJqYpGN7E08qZJzmVi6jqQbkb1hhPZGEdkfgCdO5sbGPD00hn4+S888sG0vDm4+gA99fAMyuaM32Nkg6hiGJioYnSZA2O1oDjoQC1StFR3YoVSr7HxsHmQ9cxAPrkY8dJHZ0v4VyLs6eQMnmR07FTFjZxVNIRuiQYIy1fL9Y3ZMpmoPmgUia8r8QAWLCbqPj9sxXJixur50kYYgGc/b8PMxD3r9VVwQZMek6dMv79Z1OctSB92XKIqaJVeh37jSjlctd+HmZS7cyM+bVgAuYqPDXsWqRQ3cGrGarHZxdwQXLdqFX13zC1y5ZDdy0wfgI3iUcg5USg6zsGM5Z8cFgTw62yL4899fikjUjtWLmrByUYxbC5pjPmE9VnTbcctyp3nmLRe4cfMqO5a3O8ioTuw6da5EhEymBK/bAg+Jjx1NU1Trl2nRSHYyZPlidKqUGoQSwOq7PBiczNOwt4rmiA0NQRvzWMxPFbiKEPfn2NE9f+dzJ2LtLe4yLojksXbShbGCAzmHBwW714DjqWoihuGSB2vwrOTyIe+PYKpowxMTDswPF9Hh0XtbWlZdzgfJ1UH3pUq+SJZWLpvGYNnqtKnqW+q+BnRmGoNpEGw8ITK7ixdN4y03DuPj792J//7Qevz97+7EmsUJfOr9O3BhcxLvXjaKaNiN7s4AL3EZm525q1qzEf2SrVTfNQTD5/Lfwg4bdvbPIrp3hBTLNgIj88BrR8RjvYMxvZAWaqAp5gc6CL5t0SpaCMRNBFcBrL63h7mFgKCfYGsmTVj3VMcW5XV+tw1p+bPOHDiHoki+KyJF7Es5MZKz0jrtiuK+eTdipHEeQbR24kmKNACbo4z4kovx0K/8Icbb5hhTxFjBhR0JJ1ZGSnymZaKpy+yX8q4v1EH3pcrQWA6tYWsk+WREpvOf/6IBH/jMEvzfb3TiwQ0h7B8MIuIvIRrKIUfQmMgG8O29Mezty+CTn98JrRB7skDS22zD3v2zN8yf/FnjWRsy+Sp8BMmGgN0w2BkQEhNWF2J4HcFYC24IYM1qZ/xd5iaWb4QU100tIULAdRJ4p7NAOndy+XSmxcH3DJLNx4vsSFwltHgrBoSvby+jdfkSTK2+HpP+Nr6DnR22ZZ9+kfBdFeRdW7x1DjJveifabns1bury4uJQBU2+KhrcFWRLTmpLZbjqgHveiGPhH9VB96XKjj1pLGyWHbK24wSi4C5Xt8Tx5s5p2FxLsS9+NT74Xxfjo9+6FE9tbsWnf3QNYovnwbXiUrzxTctw/U0LeY1svMcX64wqmaINY6OzPLYqk5oqgJ2LzAhAg5+6wGH5J1Cd2czvma32xRzjV7cYrk/2XN4rranX3MkbzQ7sqWLTtBsXkKFf21LAmlgBAUcVe9JePDDixYOpGB7tvgJPdVyOpI8UXizVXGVda7w9+CMTiGH9NW/EE7e+A4/Y5+Inox7syjjZIVVwcaSA65uKWB3NYUvCheLRobsus1Fye+qg+1JEQaZ37ktgbofYSm3nCaWE/ckA9ibs8JPlXbYsho6OAK69YR7auxtx001zsWJlG1pbw4hPZbCnj+As7neS99e5rmqejPmkE3RWRW5jRingf6WiDVNZKuJirKfo1aVbeMmUZcxJpvlZ4X35yrMHdGzYl3Lg3iE3fjroxn0jHjwx5cHelA3pkpg784JpHiHb3bbgGjgWLEPZ7jcsX/bbossH5zXXou9N78Zwzyrj46w6UGDHsi9pxzPTHtwz7MMPh1z48bAXu5IEYubpydaTupxbGfjye+uge6pimCUbzdhEHi3Bk88+gYLNXkGq7MHUjkF87qt7MDyYxPYdk0gkinj88X24597teOAna/HoI33ojrKV2dhETxJNZPvtidmwf1CrFsy+Fij7q9ZZNDPG+E5aiFOmGQ2QnaooTkOpzHuYe1nv6jrCV/ecCtMkO2up6uJXdcwvLg8t7RYvO1HtnovH51+LfdF5ODh3NZ687d3wXHkNEmVN/z5W8WvVad6Dm8xWda/P80eiFyyvg+6pihS5bIEAUtAopAbLxLlOLBpg6Y6U8druON6zah8+vGIr/vHC7Vie3AhvZhiv8W7BgsZ+fPS9G9HR6sYVF7UYJnisZnek6KzF7TZs2aXBtJNL09kUuYa1RwiYfCV1XHoz/X9yb3eYmAvNTcym8nDYy2iL6eAp3+3MiEmbbNCsHbW01vqG54UMNkvkzLOofH4fNrauwqbLb4M/FmGHYgXOMdcccZ0Fsvo2S961LqckgWv/pQ66L0UGR7Joj4ppWEM/JyuP9Hvxb5s6cP/+JgykvXDbCljRlEN3sISOQBaZvANP74hi3/4sPvmf28gGZ+DpZMSO3hYHdvelySZnH+jK5toRq2Bhmw3dBMiOhioaAjY0havm+6lsjUEgxq29dp8lnXY0+M6vqqx6U4UDEzknOrxFoinTX3WgzVPGREHudfWm+UqVesmeqhADd+zPYGGrnNIFiCcLulXMWzEPvVevxCbbXPy0uBLvemABPv1sKzZOePDBx+fgme0BfPJbc8h+0hgcSxl1/GRFjDtG4BmfzKJamZ3FqsU3IwECZayK7mgVMX5vDsF8P9mti1tjkGAd4m/epyNSReAw39/zRmoMeH+OnYcP7IBLcNnK6PJXcTBHSH4RNa7LK0XqoHuqQozdvieJOS2W/+zJNg2NUaeyJeSpT3a1e/Ga69phd1YwzhJIlZ2oeEvw+MvweDTAxLOpfsoD8/DR/eOLTqzAVy4gK511Vgtf2qaqpzRz0/dT2MQSzSQDfde+87gaj5LpKvD9BWEbFga1Rl4FB7KsD3XMfcXK+Vtbz5lUMTGZQRPV2xnL5IlEdrimsAcxpwP926awZXsC3733oOWbWmYR8HixWEU+Y0cu7UZDsBErejtxycK2k7j78yL7YU9TGf1Dhy/rff5IqVQywckPF/3Wfply9Dmz6fcrQVQ31k250OkvYX64jCcnPepqa0fr8kqUOuieohSK5FjFPBynqP65XU5cuqwDt1zRi9tvWYw1i7vxGzctxbLeLszpaMb1qxbhLa9dhd/79dX41ZsX4+rVnehoI7KfZAOUeUEpWtjmxra9SWvneSQCnz//8z/HihUrkMlY/sYC1quvvhrvete78M1vfhNz587FvHnzzLZgwQL85m/+JtLptDn3fBXNNJwqOvHAkAv3Dnsxyf7Szv6kbl145UoddE9BxGz7BlPojuiX7G5HbkeBSDYqHZsRfXXDiZDXjU6C6nUXdeCOa+di2YJGNIRd8DqlPvNJdstR3lxzDOB94bOtbV5LFbv2nX9ApLS/6lWvwo4dO/Dggw8aEN6wYQPWrVuHW265Bfl8HiMjI/i7v/s7/Mu//Ave+ta34q677sK3v/3t2h3OrTD5pn7of4OYp7RVkOMNCiT5VQU1l4vHUc87zsZO1yzfb9JQl1kr1bE66J6KyCV/d38Kc1sVE+Folfvo4Hi46LpDbma1W1jLuEgOKw7uOvSMI24rgDqWaKbW5OTsDXxzPLn++uvR2dlpWK1EgNrY2IjXvOY1h/LixhtvxGtf+1pzrt1uN6aGo5fF2RUtqJnOFUykt1PesmVks0Vkc2X+rvD7Uc45wZbmliuXT6IG1uWciq2ZfeRsqLHniSh+wJ7+LD71uY1oibiElrUjM6LVHhxYf6BoVoqY1xXDW+/owp3fHzQM5GU1iKodI9NppPIJ9EY9aAzOMOEX3rXA4mzvasR73ja3tuf8kj/8wz80oLtz505cc801uPjii/GVr3wF//Vf/4Xf/d3fRUNDg3nvVCplgPfOO+9EJGJUj3MiVjzdh5Bhh1kNB2f60XMi1WQK7nwJH6zH0521kh18tg66pyJWVlUwOllEiszkSMDTr1Kpgg9+cieypSKufkczfrW3G3f39cOanfvSs1ouRLvX5jG0NYG3vG4OLl5JoDkK49WEiq4WD1znaaN77LHHcN111+GDH/wgPvzhD+MHP/iBYbYCXdl2xX6/8Y1v4J577sH3vvc93HDDDbUrz41oWaWPfPIBpDK1wcvjaCEvFNaFE1UH3UvnnMQtjZWBf3anAx/68xvqoDtLZXLHz+uge7pF7j9v/8BzyBZKePUft+DVkR78LHnACkryEnNaba7Ci7c9mEbfMwm8/62LcOOVWgTylWcdkrfC0qVLMTAwYBjsvn374PF4DoGufmv/FVdcgXg8jqeeegqtrVpV4uyJmkwyV4SD5VkuV/G+v/8CUsn8qXWpNjsq8tQ4DqAKc402cwo39rjt+H//5/eZZ9TEKAF/HXxnlxAJ6qB7euVI0L21Brpa0Ofw4Dinkum/TKCr6vgP//AP+D//5//gve99L/71X//VAI9A993vfjf27t1r7L6PP/64GWB785vfjC984QvGvnu2JMey/f8+9YAJQqOyyVdYugo3px8nKXrPAwd3olg8mntfFU6nGz1di0/5vVSvPA6nqS9Kzt//8Y3weS0ArstskGJ9IO2MC1uBVkCQU26ZP2a2uhxdBLDve9/78MADD+Bv//ZvLaZHefWrX42f/exnaGqyVvQV033kkUfw9re/3fw+m6IklQmyGjwrcFNQG7PTwNzJbXa7A22tcxAJNSMSPnJrQmtLjznnaNceb9NfgQxaDLyo1TTqVW3WSR10z6Cowsv168pQB64Nt+O6YDuu53Z1sI0Zz0aidlKXF4k8FmTXbWlpqe0B2tvbce211xpTg0RgfNFFF5l9Z5PlShx8nt+v5XdeegGK6XrcfjQ3d6K5qeMFW0tzF9lpqHbmS5UqAh43XFo7qi6zRiaf+lYddM+kiGSsy4xia24a27Tlp7GV2w5uM8cNQzrBpvNmtrqce3Gy1bzhVQvgcJCxHr3ITnKTB4q2F+6XHG3/qWwaUL3tVQvhUmLrMmuk4ZK31m26p1cqZhWD3/7rZ5BIF7H8VVG4vI4Xe5a9FKlWsPfpPFKDafzxO5bg+ksbawfqcq4kXyojlczWfs0eUYMOB7xwu2dTkOG6zEgddE+nMCcrKOMTX96HR54eg5O/lb3WkMbLkwpKsLtscFf9+PcPL0dz7ORHpVXAJgWHvtTldIk10WWWZSrL+eWYPupyZqUOumdACqS7d91zABNxC+es/16msA052ZBedU0MCzUP+QSNSlAfT+cwNjKJzrZGeHxaQ1b3EPupN8i61OVcSR10z4AoQ22H/ju9ItZsWXmPD5zlagVf2nwA26YKQC4Hf7WMns4mhFJJdIV8aAz7EAv40RQJwOngvWo2EP2vr3pO3RpYl7qcfqmD7itU1sezuHPPOEr5onFXE5i6ggJYMvFMzjjme/wepPb2o5sAHPHa4JpOY8mCDiyd2wm/rQKXy/IUqEtd6nL6pA66Z1Gy2SySyaSZUTXj+lQoFDA9PX3IBudyuRAMBuFwOF6yXS5eKuMLAymkWbLldB7FTN48x+Fxw0N2m0+nzcwvl9NlPivFErzRMPLTSfM7FA0hMzEJBwF7+eJ2zI8FUR2dQszvRXPAgxiZslkzk/e30kj2/RLTej6KmozK8ZlnnkGxWDQhJxVqUrJ161Y4nU4sXrzY/H4popl2us/KlSsRCARqe18oSoOe7Xa7TWQ2Bf5ZtmxZ7WhdZrPUNcizKP/0T/+E3t5efOYzn6ntAZ5++mnMmTMHPT09hz5vuukm9Pf31844NdEqtA8mi8gRFU3DZGPMlzUJmQCczSOfSBo/Ux2rkAE7CBCyVpSSGdjl0+mwocT9zoYo3L0dGA6G8EipiruJ4HemKvjfj2zER9ftwv+MpnBfroIfrt+N53b0YSqeOWK1gyP78iN/n7+iEJPyI9aMuDe84Q1YvXo1vvzlL5tj73//+034yZcjGzduNHGENeX5WPKRj3wE//mf/2m+/+///b/NhJK6nB9SZ7pnScRylyxZYlhtV1cX1q9fb1jtE088YRqYImmtWbMGu3btMsG5FW3rYx/72CkzyE3jCXz1wBRcfj+CjVFkJ+Oo5MvIptKaRiVSCjePlcmSxHAdPg+K2ZzBRH8sBKfLicR0HB6/D3ay7UI6A4fXBS9ZciaRMftLvC7QEuS5LpTSBWTiOeQyvMbtQztZcHhqGvPmtiLosCNaKaFF1/M5dvm1qrbV2PH5Kpp2rPLZvHmz6STf9ra3YXJyEvfeey8eeugho8UoOppmzF1wwQUmJrCmLi9fvhz33XefmVWnMp+YmDBsWd99Ph8efvhhE6BdcScE6gJf1RnVEe2LRqMmstqePXvMjLw3velNBuD7+vqMJqOwl4p6tnbtWhw8eNBcq6DwqkOa4ad7K3qbzlXsYq/XW3ujupw1qY7UQfdsyd13341f+7VfMwG4/+zP/sxEyRKjVQwBhTD80Y9+hMsvvxyDg4O47LLLDGP6x3/8x5MGXRVihkD68Q0HkCza4I2F4Q8HkSbolotllFnMNpkSuGl6qbH18qqK0wYnwbVSrcBJVdUfDSE1StAm+PoI2onhMWPqsLtdyGey8LChhtsicPpdqJariA9OEbTz8Pj8ZMn8x/P4NJBeo0rQLRayKI+n0RENwp5LIcZnNBWzWNTVjNYo0+gnGOsVa2Bs3pbfNZg3W2H5F7/4BW6++WYTmEcgqHIV2xVwCswEjp/61Kcwf/58A3RqYgJGga5WuhBofuc73zHn33rrrcaUoI5YAP5Xf/VXpvwFugrirqhrf/EXf4FFixZh27Zt+NM//VNzv49+9KPm+k9/+tP48Y9/bABc06Q/8IEP4LOf/Syam5tNRyDtSoGCFBRIM/1kjhDwvuc978EnPvGJ2hudGZlMJDAwOIzlSxadx13s6ZX47p/WzQtnQ9RIvvjFL5ppq2oAMiPo9+H93e23326mveocqa1/9Ed/dEosV7F+f7h/FImiHVq4Rwx17MAgWWgK+XSWvStB1e+Gy+tGMZc3ZNPXFEQgGoCP4NxIEIx1NCIfT6NKtpQnkGYTSQOERQK0Bt98kRAK+TxcPgIu/+IH43C43PA1BOAOeVC125GbTBjAtntcsPF3IBiCpyUC9u+YiDRhq9uPx/xN+I/+FP76qT34+IE4vjKSwUOZEh4ZjuOhLfuwp38IBa2DVnu32SZXXnklvv71rxv2KtYrgFRwnqPxF4GbgFNajcJQypykmMBiuDOictZ25PXaJ1DXChnSesRcn332WXzoQx9CLBbD3//93xuWPXPugQMHDNgLaHfv3o3f+73fM+cI6HVcU6afe+45YxJRx3GmRZ3Exq3bzdp9dbEklSzUQfdsiFiO1Ds1CjW8BBmAmO/w8LA5PgPK//zP/2ziCEh1PPlwhXLPr2DXdBobC4roUEGouQGVQgkuO8FPhlayWT2jUuJGduog8DpDfha+jQDqRrXIc4P85G+dpwE3fRZSObj9Pusp5QqKyQwBuYrkeJLfc2TJVeQyabLjIDefGZjT45Kj03ykHeVcAcmppPGScPI5inxVIYDnU2m4gwR7rw+jQxM4mMnj0YkkflEq4wF7EJ85kMBHtwzh48/ux7+v3YW7ntqNDaMpDOdKGGcnUuS7qZNR6CA16LPdqKWlqExVhvoU4CrGr2y9h4vysLu727BLlevMd22HL6yp7xoIO3zfjNx///0mupqYrZYs0j1nROcfDtbSkjQQKjOVnif2rWDvGvSTaMBP+8XEj/as0y1XkbH/rze+AQ6msS6WdK6+vA66Z0PEilTZf//3fx+vf/3rzacax1e/+tXaGVaDELuVnU7sROzo5MSGApHuO/1xVLJU6+UTJuhVm6J6TyREIBaBNxRAmaCmEW+2VAJw0WKoXo+ZzJGPs0HzuD3gNfZeiWnUpQrcAQI071sm2GlkPjk0hVyyBA/Bo1opw+lxmHW9bARhJ1lwifcpFIrm3i4ey0xl4RPQELh1vYNpKhNkxIadPi/y/B5UJ+DxINwUQMPcdpR9AUzZXDjoC2FjKIrvJ4v4YjyLf9x4EP+HYPyV/RO4c/1+/ODpHdiXzCLFe5dfOJJ3xkTeAn/9139twk7KritWKS8DeZ0cKQLFGTn8u0S2XwGm2Oejjz561EU2P//5z+OSSy4xq2mILUtm7jM0NPQCoBcTDofD5hqZEDROsHDhQmNqOFwOB+4zLXWAebHU8+QMi8BVoCtbn8D0b/7mb8zIs9TGr33ta2ZQQ41JDUnALLbb0dFh7L5aFfdkGsiDBxNIO9wo8V4yhqanEsJV/i7CEw4YDwXdpVLks8hy7TxYyRWRGk0iOZmCJ+Aje40TNB3wB728hc0wXA18pZkG3cu4lvEuAlTtSE0nkItnyJQDGN8/zvuVCOwEEVsFXoJ0RcyNbNRN1lwoaCAvy7QJGK00uAi2JYE4wRhFMj0N6jHtuXQBRTLkNNmZ3l1pLsrdzW1HNVPm+4SRJ5gPELA2OvxY6wrirnwFnxlK4oPP7sNHnz2Af39iF+7fM4jNIxPYPjyO8clh81ylh2/C+2p76cCjTvMtb3mLUeO1fptstLKjhkIho6HITCQ7uMxIGqxS2cprZcb9S2YJuQ2KkcquLxPE5z73OWNa0n4xYV2revGOd7zDDM5pkEx2X7FddYa6Tt4L3//+983z9FwxWO2TCUN2YQ3aCniVFtmLdW+JBvIUta0u50bqA2lnWNRAxsfHTYM73OdSKp88GtQQZG6YaWwS/c7lcsZuN8NujiYquP50Dv/+3ABsBE6Bo8wKZYKtVG6Bq5MANcMs5aXgC4eQSaYMwNvsFrjKBpucjiPU0mCASWaHIkG0TLDzRwOG2fICUSTYyCbtBM1SIW+WCve1NSA9NolwaxSeoM8M0KUn0vBEvExMGamxFLxBP9luwjBuu9dOUPYiO5kh6ybQeh0IRtgxeJxk3AWybBJ04nqcnYDeQ5zOxXcLNgaRzxI4NUBXLiHaEcPk4JRJj8vvQTZNUM+XEGqNoMgOAkVqANk8ColJxL/2PjRFfOjsXoRYtJlssBndPYsIRPwda2LnYk2NtqJkKFdPzEXUbKQ1qJxUriY/md9Ha07aP2MKOJqoHmhQ7FgioBVwSkvQ/Weeo2fPgLpkZr+epWN+v//QvpnjkiN/1+VsSq4Ouuez5Akun94wYGydvlCAKj5xjsCkAa0SG53U9zKBDSUCKRstW5n5FLjIjit13xXymd9OAo/str6GMJweOxIjcTJgrzEPTPSNcZ+bxzWRomxswhUCqhqt/soEQYGO002mTHCcHk2giWAsZjx1YJyg6EUxk+MvoKGrETay1iRZts1mR6gxRBbrIDtPwRfw8F5VpOIEan+AYG6BvS8WMN4Muak0bEyjvCLcBJtiJmvsuxKn20VG7yCDdhi7dVnsmenNP/0/KDz7ffOsmVnZ5v2ZOjs7HYfdw+cGMadnPubOXYnmpi5Eok1oa+1EMMhOwsFOrw5OLxJZcjLFPPLseOQLLu8YddZOlo28YXwurdPnlENLXY6QOuiepyJAu6dvHA8eiBOYWNkJkALBEsFNNlh5GQQao0hOErjIDmcYj67zklWJCbl9HmPHdVBVV/zWfDKDUFsj7E6C4tAkPARLOxuOALOQLxhTgBpUIcd7E5zLBMDcdMI8zy0XMidBjOCWHEsYsujxERjZCZTYMGVTzk+nYHPZEW6KIsP9hVQasY4mFKsF2MlMEwTeBjLmqolT68BU34ixUTd3N8kJDfHhKZTZwQj8Za92kUFXmK5iKmtMI9pk2pBrmxhwtZJH8mt/CFspa/yDyTUP5cPhYhgfUd3KnYrpULRcTmOj3Ky6Cb5htHX0YP68FejunscOIWTSZ6JTMN90jV7YgubzE6D1Fj/86b3Ysf+AGUh1sayD7Pje9obXGYY9c1aKGs7Q9DTiuSzS/K7O0Op6dQedof+qph4EWa9aw1G0hdl58QyZqD79pS+jxONOl9toYEvmzsctV12mq35ppA6656OwyAYILJ/aOGQmLlRY8ytUxVWQwYYoWWOc4EOV1+1ELpEydlgXG4AGyASiVbJV4YXYYT6RpvofoErO6+UVoEZEEBIrLFFNdfI6O+8s27MYoQBUDNNGYBZ4uxpCSA6QCRN0g9EQ4kMTvAGbmECRTNuYEIhJuqfSU0znUOYzAnym7lUV2yRYOnh+mqCswTe3OhCCc2pwggDsQLQtakwhJXlfsAPJZ3kPsit1AMYWzLSI3ZczVMP5zCDZcyFXxPQv7kL5qW8wV06dbxkgpjzfPAwcQ6v/ykujpbEDXb2L0NkxH+FwIxqb2tDZOZ8AzbTWrj2/pIoPfvKTGC0k0RRrYLl7CZxu/Omb3gQ/vwtk+yYnMJmhhqI8OYl3nMm7iMePCzq7WaFK+NBnPwmHtDJWgng6jp6GHvzl2y23t18WeUWCbrlaxg/WDWPbUEYlf0LuUab6LSbHdq1hFty8ohXXr2yrHZ19UqqU8KX9Ceyluh3paiWm2JA8OIaCGKXfj+wUmSbfRUUr8BSQirmoYWnZA/ngBoOy7SapPmtKMBmeDjmcRiWXfdUmFZ0gLK8Fu4+sJxJCatKKVSlwFmtxEER9zVGkxqYQaY2ROTuRHE2hwvwMtIbgcTkwOZIgKbVmttnJmCrsAARKZTHngM+YJcR4rYG1ghn0c4mBM7W5aTZww159xszgCesdKmTMRRSyWd7D6mjCnQ0G4JPDCZSJr00E6WwqhcFP/xYc7CBetqgC8UHCGau1aId+19gdWbVs6B6CU6yhAdFIK6INzZg3d5mxHccaWuD1+uFxB9Qf1W7CjkmFo95vVkgVf/+vn0SFjeDDf/THM6/M3K6ib3wcB6fH2a4O1xSqGJ2YosaUR09Hm6kP2zZtQlNLM9q7CbBGeLWUAN6tKRDCio5Os1dX69g//scXqU358YHf+uUCXcc/aOnVV5KYEq3isW0T2NqfNis4JDJF9qrcUiVuZUyn+Wn28XuqgOlkHhPxHKZ4znS6gAWtYSzuDpvbzTbR6/1iaBpPEGCcBCd/LMj6WzXeAVJ482S2iqGg8zQIJ1XZiBqK9pct74KCwIgNKNbWhFwybYBRgKyJEk4CmNRz3UTMTst561OgKMasews8PXy+S6yUAJ0hSy0w79wRr5kurKA5srdqcoaLgCm2LbOAVNUS06QpyOZGTJf8OAv5HHxkv3l1fmTjGkRzMP0OAr48IDTBo1KxkWVS1WVDFgu3Lq+S2UZ4rGoG2jQYWSoVkXnmRyjteIqYZgHkmRQBkeJZaLaf3L4mJ0cweHAftmx+HI89+hP87Gd34qEHv41nnn0Iffu24uDBXZgYHzSTR3zeAFn+jPp+buWhtWuNxnDjZZebd9Kim5sG+jGYmlKWM7Nt2Ll1hznmoUaycdMW9B88iIUL5uOZXzyO3779jUbLWrd2HSqsX8MHhlBmefn9PqQLOQJvEF6X21zPf3jk6fXGxHD1qlXm+b8sMlu62dMrLFG2SfbMbOzcihWHtQlEbLLscWNjLbEbrvC41F01YfXKWuXVXDwLRSAzRtX6/oMJy0RASY1NI0mmaVR+NhixWrZiU6lFV3SNm0zRTfASwLnJKJ1eFxsXMZZgNjlqDXTZZEclKAebwyYGg7JB5gANNsn1TCYIxWnIkWHqOkmOQJ8ZmUaRQCnbsB6oCRkaTJkcGEdqQoNlcgPLwh8MmvQVmH43G5piPFTJ9DQ5Q4AZiIVNmuX7a0CMx2WiELinJuLmfbME9hw7ybTiQRimSPbLd0tNptjZ5IyJRaYKJ5l6+qmfmHpgMuAsyIzCKNum6eDMg5lG5p+DeSIzyBCB+Mm1P8NPfvRV/PdX/gn/+OHfw19+4A3433/36/jkJ97DfBo39zgXoiTLZc/FDlTvkqXW9MyBfZhIsQxZGTTlW38JlsXBvn62mwqWLFqExQsWmu8BrxcNkTCuv/xydDU14y133I7f/tU3YmT/AUwRiJUbE+mU9SxtGvXlN+dZ6BRnl2h26ExteQWJbG9j8QIyeQOlbAhWwcoq96MnB7CxL2FA99YLO7BmgWbnUN2tgUbVVkZz2IsmbrNJ9B4agPjSlgHsIVtXI5bqL9OA4h0YM4Jhp6zIZJ/+xrCJKpYkKIuNkrZg1+PrTcAaG893GVcxTU5woXlON9LT08YNrHVBN1XGIpIDoySJzDdtZGJ2sh6ZE0wHxe/6LfbLZJG9WrEb1Gm5gh7kMzn2XmS1vK7isgbXZB4w6WM+6zo/2XaRz/M3R5EcVIAej+UixnNk51W1FCs3RcdrBfwaDNMgT4SaSGKEHY8BZfn38hx2GDKHRNoakdnyM0zd/QlC3iwfOzeFZn29dE0vLr/4Giy68Hf4uucm3YlkyiTHy4756b59bD/syJT/2slP1cEUtZiJsTHMXdCLODvBRDyB7p4O7Hr6ObznbW8zxfXEU0/h0osuMvVnz9BBfO4738EtN9+CdoLyyo6a6YH3jKsD5zkBPu+XR25/ZYLusaWKL9yzB7/YNmoA4LdunI8b17SKj9SOz2KplvE0O5K79o4RTK1JECo4AaFAUCxSdlKb24FYR7MBWk0BntQgFwFpYNtB7H10A5IjgwS6Fiy9+UZse/AhY3/tung1RrbsxNS+PkQ6WjHniouRi8cxPTKOKsGuWMgYzwN/SwOZ7Zjl79vciBLZtdyCSvkS/A1RpqZiWG+spcn4sDrIoOXBEGOjzJMxKZ0ajCsU84ZZt8xpQ7SrCZlUzkQsy8VTZtAtw/tafq/mzeGPRJDPWUxW7xnriSE+mja/K3yO8V8lAMunWDPkxv7rPahMDrNyz/5yVfOLhJ2449aLDQZ3L7wVHXNvrh09+6IVR545sB/jNVZ6ZA5KC1n3xFNYc+FqpFkPUqwnXT2d2PPMc3jv237LnDMDKTp3LDGFv/33T+NX3vCraGSdvLR3vjn2yyudr1DzghENblgV4PCtopbM/aoQYrXWINJh55gra3bQWSRxAtZP+iaZOJkQmHbFU2ArlUlAzvAGkLhfNk0NWEkdzKcLKOSLGNp1ECM7DqD36ktFS43NNDs1bQa3Ktk0dv3sIeQmxmAIFkFtdPc+k3fpgUFkpiaRHp2kij+F7Mg08sksgq1tKKVzZKdhMykhO5FAns8Z2dmH+MgEAX4vcpkSXJ4QhjbvQXI0g633PYYtP34Uu5/YgL6nt2Hrjx7F2jvvwSA7EcV9sLFTUTQ0mRpmArxrUM0mFzW5JhHQA00hppHv6HPDQXordiw3NuPBwPOyyRzSO59EZULhdc6Pqi097NLVC0xqVTUH9t6P1PR+877nQvaNj2MklbA0F7UXlgc/zKcGC0ssp+Url+ORhx7DyNCIaS+lGmOfSiRwYGDAvEiOneG97NTvvf/nuGT+Bdi3dRu2b99tPeSXWjS4rZx9BcpYMo9/+9FOVl3ZDq19aojJdJ5Mq8zvNvh9DnioahuKUZOo34n3vWYevASz2SJK3XcG01g3MgmPy4NcKm1ctvwxMsBk2kQBk0eB2GGZOriboCWbqeIfaLrvzse3mOAzHauWY+dP74EnFERqfApBMkjNAhP4lnmtmfjgD2HFa2+GO+TD5N792E5AltouMNZEgbalFyCfTWrMDdPDIyYITsPcbgLufoKkHb0XrsH+9evJYLuQGD6IcEMj7IEoKgTnqaF+OLx+K+TkxARfrIJgUys6lvWiY0UvvKGQSYPApyxfWYcTnmiIjb6CUi4PT9iL9GTKDKYZJi2XN3YCIeZDphYRLXfPR1Ad2sM8Ow+qNdPb2hTEa65fxrxgelUPqc97Qu1Yccl72HmeRbWbj05SA3l411b+EDGxcnD/tl0YHRjCZTddd6idDB0cQrFcgq1iZ2dnQ3tvJw48vRGvvfY6jI6P4bKLLsLWnTvQ0tKKBtYxmRkK5SL+7gufxTtfcxuW9s4z9/lllOxg8yvQe4FSqhTxxfsOoG88j4wCeOesLaOpraJwrFT6v1CqIkvVeOa4tokkAYy9+eIusipztxpinyNRn7hlOo1HspbbV75QMEnS1Fqp9JpxVi1VjN+qGoqNBEmeAZqO63Q7sfvpLUiPJOAKR7BoTgve/MYrcNHyHlx92RJcesliXHrRQlx8ySJ+X4LVS7uxdEEzGtwlhMs5LODvRp8TF6xcgrbGIDrbY+jqbEBT0INL7rgJxclJ+LxudK9YgszYOEGTQD04hMb5vSaSWIFsWGacqcFBNM3tQSaVQrAhgmKWafP5jE23ae4cM+C2/YG1BJuAiefr9ruNC5Jc1fSemqSh0JJiswV2mgJmOddrn+y8AuSq04XS8HaUn/k2sWz2s1xpKaqFN1y+GF6vq1bL+D//lQoJvn8BkcYltV3W0TMpag8bB/sxncuaOqff4to5RSmbjKO5u8N0vInpBB782YPomdeDaCxqvE384QDiZL2XrVqN3fv2YeG8eWhpakKAZWyNC/BSmwObB3ezs81gxSItbXTm32k2SnLwY68spmu9SBUPbRnBNx8dZbGeQEVjuat62apitbra/NJkJ/zp6+diQUeQv85RA2ZyFAoxR4D5t11jSFbJbMMh6Xkm2IxKLUAAU0yDIlmkTA46JjIicILPhfTBMay9614yUA+CBLQ/eO8bEJC7GBuSYuYqqLle1qiOZC7VUpGNw2l8d50EaW/Yh9QwGSnZTJVgbw8GYCN71qSGQGMjchOTRIgSKmyMmlYsVzBngGkkSJbJwBXjQemUe1qZ6XMxHUX2CglN72Uad+8ZxmDRiaEtW1BJ5KAJvaHGMBa/6nK0L+ohkDoJPGTjfGYhQRAXuJY1YGde0vjzCnhNPAhqJvn7PorSwS1W/s12YT7M627FNZeR9ZkmKH9pB/OfDNLUQzsWrX4bws3L+e3MA5Rmmt23baOp/zMiDVGAr/jL2zdtwcqL15h6OT42gYamBjz37HNIJlK4/ubrcGD9RvzR296Or3zzW3j7/3qz3oZ3sGF//0Fs3LadnXUHvvHUfbggNAe//cbbT6pjtFrjmX/3sysd5wpRzpBQDR2J5/D9tSMsbxX68UUzuexyXRE9rBWuKrymt37+nt3Iy8fsHIkxifC/H+8bw1SGQJcj6DkJpgI4nSAGOTBiBs90rty+VJqy65YEoIUyNj34pGmwNoLhTdcth4fXlvN5kC5bpoiav6z8Z+Ura7c7odi7Tq8XJQJzejIBL9m0ApXrmFyf5JMrdy253jm8HgIlAZugqL7bTtpJCIcjn4XXZUdDcwwNZK4NDWE0RwJUNb1ob4pg4YJOLOxtxWtvWYlfu3UN5vR0whULo2lON2T4efbOe7H/mV0oZfPIsSMosFMxgdc9LvNMkwGlspmeLB/eirw4xvegNLBZOXNeiPrFi1bOMdVUZVSqOjGVXogiFCDegtndW79DjWXauuAMy75R1iU+VEBn/lieml6tzlkak9NRW8SU+0vZLKYODMPLTiLmD2KwXwSHf7xepoX/+d7dmCAxkPR2d+F1N90Il8OJUM4Hr8/Pu+vtji8pPiPJcn8lyqw3L6h9Zfv7kNy/B7nRQWv6Z4hsirV1MllA33gW48mStZEN3fXkMMam87Vqe3SRj6pcxqSbXhR6EgOF7hecrSmvqWwJyUzeTPkcmsxgdDJn7MRjZGQNIZd1f9WyMyZV7E1mcfd+NjqXNXVXkyG0PzudNMy2yrwQYzDqoNRxw1rZSFwu7H92G8Z2DZDBljGnsxU3Xqe1sqwVJdRA5ILlIoDpDfQaMruYOfYEY29jlOw5RbD1mGV6ytkcUCxYkxoIdPIYqBC8bWxIuqZMYHSwUcqvVn698m5Q4Bqzhlo2AycZsrwgNEApdygxa7G7aqmKoM+O2LxOZL1u04korKN5DgtpxwOPIdrcCHdAcWeBaGcjfEEfCll2Qnp37pQfrxh/6pH/RHVqUG+jzJvlUsWqC+agu9WagFO1V5DOzEGuwt8VBzwuli//UC4gk5lEU8sKvtaZ4UdqX6ozzw70kWRYwYMEits3bsajD/3czPqbGh3H+MgEuufNMXExpqn9/MEbfwXXrlmN6y5ajfXbdpAUZHDZ6jVooQbU29tDxi6f61r8Xya9pakRV65ahbXPbcBcHveZsZSj81jV57u+/0Ns7+vDqiUvfVXl2SkfV71VdZ69Ukonse5db0NhatQAXcfrfxXz3v1+frPh3g3D+PYToyolc65I64x17LjCU8QwfrPpS0ghiO9OvBkOsmSJenOF0pNZwYAZ/5LxhHFVCgSDJIJV/Mf7L4WHVOVM2g4LTMendpDllklMUxkDkHLHchOcBExun88AmQDKznRI5VcAG8Ul4E78/IvfYYMpwcvz3/nWm9HcGiFrERvhyzPtxr2MICnnfb2zBq2M2xnBzOEWmyRI8tkCXbFssWVHwG9YjkSs0+XyEsRTPLcCOxlMJSfXL6dhpYp7q7gJlQTzjuBdJie2mWfyOV4f75M2AdILHg92OP1o5HG7P4CHfvBzjPdNYnpwiPflNQT1npXLMO/KZWhZ2m5iL0wNTEKTIPSusum6ShOYuvPPWYaqBydR/udQVJ/8zLs3vm6NmanHWotiKURtZgm/axK6DQF/H4LOyUPndy++De09152xN0syH3+8bUPtlyVqA0N7+zB/2RLTrvZs2IG5i+ehb8cu2LIV/MXvvR3f+sl9mEgmMcVzwyy/97/9HebaLDvmnz36KAaHR03IytfcdD1aGmIGZMen4vjv++7FdVdcghWdPXCL8h9F9Hzjz83rX0ky+VSMyDKLRZm+8/99AuXEJFkcQU4goU0sT9hBsDH+nDxmp1p8IsDVNXphpz2P32/9f1gR2Ij9+XlUly3QFsgqYLbuInuwnQDLjp0YZdl51UjUg2tQQPdS3NZ/vnsX/vkHe/CTZ8kqa/d5OaI7CP/v7RvDcDxlAFXAWJFNlcdKWX3aLDupnkimp/Sq4ymJDRPUtjzwpDERlAtlXHPVCjQ2Rti2CbhOdiRMs1aNUH+hKcJyL1OYRNPliHnwXctkp3Lf4gkoE0CFDWLWJbFkMlWn30/AZSeQUVxeNhrerEIwVickX1x5FRQLBH9d69HqwTxG5mv3+GEncFcdzFemk4nFYCCEtpgfV3U14domLy695WJccMuFmHvRGuaFgypuGn3PbsCW+57F1h+vx+jeAWZCkR1FCUHNYmPBpJ78rjUNQi81S8V0dtY3XLxmjqlL2icXxkShg58sS36vshdJZ7tZ9y3PBdY49O++F+nEAatynAFJ5KmZsKyN62Ft08SZOUsWYnBPH3Y8sxmJ+DT27tzDelcwHbleZ+vwAYzaJlGwamLtbsC6jetx09VX4V1vfwve9qt3YO2GjXhu507TvmRuWtDchs2Dg/jh5mfNjLejidwGX2mAK2m4xGfa8ayVSqmAiXWPsjhfXNsO3+MiKDVGAsZR/2hi6rv5j6qzI4P3tP4b5nl3m/vuz84MZEiDLpiKod8nUgB0tyob+e6hFHYOp/C9pybw02fJul+u8Ln7kyk8OpknCyCrLeQNe1RqZM8UK3XJjslPRdSqEkgFQGKp8q0cPziMoW17lTi0tsdw6aULDLDOzB4z+cBnaCqvOi2ZKNxsCE6/h/e07mM6Nv5pZphNrnMm76zLjUmDaqgCnGtQS8ChgTt9qmM0cXslQnEvVUimkTute3icZMN5VNM586xxmxuJZAZznFVEPTYM5opIl20ItkVwy82Lcdsbr0O0qwPBxlbkmSe5DPPm2f1k0jam32s6A7ctjfKex2qJO36ZnUtRfVIWNEf9mNvdzPxgWllG+UIUJTJdvYCp5+afHdPZueZT+2zlInZv+R+W4em3cSrHsqxjAk2Te0ynXPTUIct+OzE8Yjr2lZdfgrlLFphVP8qHjXV0N7Yg4LTW1JuR6y6/wgzYmlrDTvz1112LXXtYbiIIrHNXXbgSI/2DfG4RD+/eblax/uWRwOwGXeNuchINSWCTIwiohz6aVFm5y6zkMcc43t3+cXS4DxrPgFQlhESJag9F6rmAzIKXkxGeSXaiWU92NShW2ef2x1l5lYYTp/lYovr848G4mZZsJ2gZx3+3AoizMfC7BtPkI6nBDfnPhhqiJjJUQPES8kUMbNoLl9tj2vSb3/Yaw0QVH1ct3sRHYCPQ6L/cruxkM2pg+VTWstOycev9BbYmUA7voUE0rWMmdV7grfsUqfpp5pdov+y5uoeJRkawFltzebXUj924dbnJik3gGl4rCFEHAQJ+1R9EH8urK+jBfAJ+ogBsHk8hSTbdQDDv4PtdtLQVvyPTSAtZn9uGcGszOpethM3fQABWh+BDdv3dvOvJl9o5EyZReXrJhfNNfWGWoWSTG2MX8+zI+qLBUD9S+ecj3RVSQ9i/6x5+e+l162iinJO2KDM7q5gZGN1KzeK+73wf2556zrjitc/vRZFpL/G4Uz0d2bgF0ez8tBjpi9JvifHl5afqwoplS7FrX5/5HQoFkFGd42UpAu+GgwdeANqvbPnq7AZdm92JQGcPC0p/llTJfoupFMqpBFlg0byAeuk01W6NxlvV6HkxtlkCQbtjCO9t+wSaneM82zrnQK4XZd5AAKKBJTGL44lVLwhIajT8robz/OMEuzrhhc8/FVGjfGRkikyX7NOw2QoijTEUFHBc3gl8D28kbDoH/dY0X1fQh0hrExtvFn3rt2N0x16eZsOyeS1o7VCHwnQRUI2JgiAndXVmwE2DXkpxWWYD3ouwaQZOxHOl/ssUobxReEVNsxXwmterXedgg9OzDIgzQxQHQaPdssUI0IvZPIqJhHE3M0CtCRzyhOC1/U4vYoEwVjYF+buC9aMJjCbJ6vmIRc1RONmJsPdANODGW37jZqy5XuaGkrEXB8Jk5u4QUuycLg7bEWBeaG22maxXmmabqAb3zmlDa4NlNrARuLL5VhRt0s5MxTpMWJP4Pikez5cD/KX3cWDi4BOYHNmso9Zpp0F0J78GS1nOlSrbAT+bO9rRMa8X3UsXoHNRL0YGB7H96ecwPEB2yvyX5iKyoc52a99eJLIZ62aHibxOfvjTewwFkXg0qKr6xHoylUgSxLXEPv94j70TI3zuzJmvdJnlqwFLFZn7h39mVGi2erNv4Kc/xKO/8Wpur0P/Vz9vao0iFTVFg3Cb0dIXvpLcYHrd2/Dujk8g5JhZbdWqtIlqGD2ufWiz7cYc/wF0egZqwHpsEWjJpLB7aBq7BwlWLzj/BBefQEapXv98PGfWGtNAlYLBaGkczTCTS5gnRJWNQKwYpEZVc1khEF187/jBUaRGU2amVmNHM173pluMKq/0CaStWAYaNLNMCAJHnWsNBor5Wv62EoG96cCYGZp4IJctV4j5GwqzvRGaeZ5T7mPsGOxi4Xpt3VvXKA/UfqQBaB/zXwNpOknnuaNhJB0+pAkkS6NuNHud6Eux4U0nzESPxWRBHpU3aZeYu6YsezxOXLOwA0su6UXj/AZUHAQIPmNReQ/LPYpbbr4DSxev5h2t9M9G1qR+4KIVXfxm1eNyxUXQbWdiX1hfLbE0JwfrfDLby66mBsx8r73bv80O7PS6kUWpdbgOlR+ZaHMDFq1cYQLKH9zfh5buTni8XkQbG+BVByfw5HnXU+u4rG0Zgu4X216379iBJYuWmIFOlcembbuwYI7eH7hv3RNo4L3MVGNWlhyJ1HTmxcD9SpWjlfisEbGz2KLl6LjldQQEy52FqEG9hQAhVsWemW3bVFENelmt3eox1RNXeGy5bwN+p/1z8CPHl5W6wz/ul1wZfAzvbf8U/qz3M/iDnq9Q87bU62MK2YfUr4/9z2Z85Btb8dG7NpmBEB6wjr9EEUaUCHQ/HsuaEX+tiOB0W7Fq4bYbzwXNu5V6XygXoHi3AjS576Sm4maywZZ7H0d2Oo5wSzNuuukiBJqi5l3NMucavGIFl5nCps0wUbJXIpfcrsRgZZ9VTFjlucT8z/PYMkyei6mW2Djk+SBbthrSDFNWhyD3MGW9lv5xqNNgelU+LrcXDoWT5Kb0ysVrJ4G8xV7G/KCL6mUFGxTXgYXV6HejVXZg3rWQThOPpKUwb1jWzmoJvYkpBKiSV/JxpPr2oDW7xyTU5nBh0ZKVuOVVt6OpucWwRF03e6SKBfPbEeb7iaVK88rkmU6C6rGTybxlnS9VXUine3mNAJGdYSGNfZu/TYC0ZiC+XNHzvaxX8xqbeTtLG1LZCg6z1LCC6RKeffgxDPYfZJna0DC/B1XWSbkEXnfxJbjtxmsR8ZONH5YW1bWBoRF0tbfzLvpdxcpF8+AjcD+65Vk8uWUHoq2NfBafo+ex3mjpn18OeW52g64R1gpvQwt7TIshqITE1ox9kkBxrGqnUWAXC7PCxn3X2DvwjYnfwX9PvguD+c4ZXLZsUWQaE6UIPr7v99CX67Fq4XFEGCvGKMAR8Ol07XtZQpBYF89hyOmBvzUGb0Sry2oEV0viuM0DFMhGgKhA33qoj4zR7CcT3PXIs2QnXWSUdlx83aVYMr/VeBO4yEyNnZvnib1KBNgCMdl6NQBmNTL2vgI4JUXAqxea2cevpoMj2y3JWV02Zr8HVQ2Q8bvS4olEYNOUT6ZFgKLrzLW8dz4RJ+OW/a6KMkF752QWgp5VMQIxC2LzVB6jmRLZrQtzyjky65yJEwHFe1D5ku2WUyl2Snk42eHMzUzDnsqiJ5TF8GQA6bw6FAES88bnxzVX34pLL76e+SWf5tkhsmevvkCs1mQX6yQ7ILvstfp1dDHgzE+dUSyHkJN9l4Whv+nJ7Rg9+DgP1iryaZCL5sxDg89TY5/8Y3lpOafgBXNx8S3Xoamthc+3QLIU9OCj3/wG/uRfP4k/+edPIOfW+bUbSVgH2trasI8sWW+idtLa3oov3vs9fPVH92DxymXWc3jRzKblmn45RLP1zgMhB2PZWRWs/bZfww0/eBDX3/0A5rzzPVbFPLzAZ4T7pNpuT63GpvQqbOTn5uRyeBxSY6zKbi+7MFxoxr/u+32MUtUT61MFONsSJ9t7cDzDSu4gWJD9EGc1+CRtz05s88f8ZgUFX9RvVtsNNWmlhIqZFpxNFuCLtSLU2oIFV1yKSxe38D5eEyZRbmYCrlKeLF/GUr0fs1ETGcQyZBqQicK4nYmpCih5jliwApgTgQ2DNeYIXatBMLIdNX6pjUXeV3mmhSDLyYR1nAwoP500kzCMh4Ou47m2YhlTuQrGue+CpjCayIgH0gXsSWUIKmyk5Qy8fCe5sxWpahrcJ8OWnVsM3cGMcHm8CBDsVzc4CNBx5EtOHEz6MZwMsSNmmmpg0dnZjVe/6g7Mm7/IAMC5svGqJqmzWbFsDvxkh9Y+DT51I6AwlHYL4I4nOqrZf4l8B4pVdSRGf8H+XT9BKt5vnXCSonI4cHDQpOnIeu5mx/D6lRfjunlLMaehGd1kvmHmt7xczKod5hobciyvar6ExjntCMai1HJ8CDdGXzCYphSuuWAptu/ZjR1795GtV/CzJ3+B5/bthNfrM7E0VH8tpktNhsej3P/LIYnzA3QPF6nY9mAY9kCIDIKgwX2HF7e1vVAsfmBDyJFAg2Pq0Bn7qeJ9et8fYLrUyH0nX3t1puqsqbe82ZEV+FREPf73D06jRKYnUSjGKkFYkxRy+SwBUFGnXHB6bXAFHPCFnea7l2wj0EjGBA8iXV1oW7IIq5Z0IBL1oszrxK5KWdmHxYw1COaCQ4NTZBQ2AqrAVKk24RMJSlIJ9Wm+E6jlHywxzFV5LnDmbzFmMxOMIKpGqPOM369yUNfW7LpiuvKf1v3k4SArRT+ZfFcoiCUhN3IE1I1kvclsASFbHt2xMFxNDaazMQoI72+Cs+vZ/FQeK6/kidEbsOPmNfPQFPPxqU4kCj7sn45gMqsppnq6OhY7Vq68FNdf92pEIg3MA+5lWZ1NANajgiEfli9oZaKYnwTPiiOEqqPFpCPa4GWSaprFCURgncjOIwHRS5AZMp/3bj41NzJpiN/6/t0YHRt/0TOZCrip/Sxua8erFi3Hqxcvw42Ll2N8YBAbf7EWXUsWGKCcHptEYWSKikgJLV3taOlsN6BpMvcwUfnf/vrX4N+//U188rtfx32b15mVKaypxNaA2swW8wfgZyf8yyDTuy1/+/NKVLQyO6rOHKo3/DQjvGqsanFHEfXEvZ49vEaDAHZsSy/Ep/b/LjIVDfKcmHHMiJ2V/T2vW4j3374Af8BPQ0dfslSxMZnHcDjIdFeQnkpCMRBymYIZRPIIcHiW7L0CIWPH5W+7x07GK5uvE9HeBrQvbkV7F8FsXiOcQan6ZMYEKi38WOR1miihN/SQTci2agbWyFCUZXJNs3lJrQWSvL9ATs8Q6MuEIs8FgZ72u8l8DJ9kJruDft5fbI03EWshw3XxOcpHNW6tp8aHGoCWZ8QesiMHj61oDbJx27FlOoPhhEwJRSwiQFp2X5+xw1tmDUuVVSGLZTETjDeErVJCh7dgvByuv+wCNIZVfiLYdgxlAtg3HUW2yA6HVFxAH4k24obrX43Vqy6rdTR6u7Mjiu1x9SWL4CSj1XuYsQdPr3lH/qRW44Q/qA6ldsFxRPWgXPYiTcZbrQ2+ZTPj2LfjB+b7yYg8Ut73rt9Ba0tzbc8xhGnTfy3+EFqdrC9Mp3EHZEKbetixL+rByIEBjB0YNvVWZiTrHV74IvID97QEsHnzLvO+Ou4nwCpQ+gzgqoyXtXWxbpgTXvGSTsqD6BUgavBT02kDMNYKqy8UCwiowjr28mQXnokvwX8eeCd7aL9w4RREYEDVaUEjt2asWRTjnV9aFgoEp4tVPJShSu7gLwKhN0RQY93TKL5TTujcV0gXkSUjtLOiigWXcgSfgsUUCrxWmOcKV7Gyl2obQdhL9udrIWuMBY3t1R0KmMEzAVpmMm4GsjwEZfklO2xkvPLpdbkJ4GTEBDupiw4t305GaSZU8P5qVDJVlIp5y1uBDFbHtGaa3cRvsNixXPgEsvK2cBCgJQLytMOFabcXC8m0O/x2jOVK2BnPIk9U7HRW4CFAluNJ5DVlmO9sJmAwLZavr9N4VtikCfC5jY4SfLJl8r4eRxk3XLYYUeabEuogGBXKdhxIxDBO5iuwJmSbMp4zZxFuuek2dHfPNe90pkW1sLurBW1N6hSYQ0zLZK4RqULQ1FGBlWpBkFqM6yRiN+t+vA0y+WYUyywrI1WMH3wGk6ObzPETieqWXLeO9vrmeqZR28y9hO1vf8MduOGmGwiU6sR4hGWWyedZJ5MINjeYemz+asfHJqcwNj1tbnhwckxOfkYbUr3NJSroVPwG8hSdqy0W9GFpe4eVuF8C6VxtuUyeP6I6Uft6eBGpLrCtmk+LC6oMnz9DrlG5XA4L/Pvx0OTl+MrgW1Fi5THcQxedpMzcUZ+Hby9FbAStn44lEU/kkZvW1GOp9NzP9GgKpsMlIONvgo/X70JSoQ9TBeRTORSTRcQHssimKxjcMITS5n54CM4FsuYSOyCnm6oiG7OnMYBAexj+thhcZKZaoNLYb8lcxUpl85Y/rQbVDMiRPgqgvQ0NJv6u00s26wsYVzGXBssEpLz/zJpnbP3mt8BQnYS8HwxQEyjdEYI+n8PHYQeZe0vAjRXNIYKiDRsn05hO5xEhWM7xklnznQW00KBZoWRYtti4ilL306w4BV53B/zoiliMS4WtDzfTrJi0EXkGmA7XOj5V9GHfZAxTWbFvZaxWNfbjoguvxNVX3YhwuLba80stwOMJ0+GwOXDJim7zbKVK/KY/0Y3dwzYUmT51VEZ4MBJlx8X6emjfUUT30KYEJ7JzCGUsK2PeAfZs/Tby2Qlz9KWK6t1jzzyFX3AzGat93GTrvfmCZUbLUllk0xkC/RDmrlluBtpk8pGP7XgqjvFMAgW2tR89eB+e2L0Zdz52rxkAd7l96OlZhBVXXGLqhNitfHZHh0bRXKX2VTNl/bLIeRFlzN3QhIZLL0PrDbcivPpiOOUvyhoRI5Nb1hPB5YsacBm3SxZFMBTPI5FmA9a1rDya2qvRdxv7XK8zi3tHbzVM42RkBrgVdUzfPWKFTNFtl3cTYASTVfz0mZmpv1U2fBeuuUD2YYn1/7Fk42QK9x1M6CHwRTxmLTGtaCEzQi6bM6sj5DJF+AlWWpqnUlBkMDFbO6ZHJjHVN4Xp/mlM7diGmy7sNXPihXBqPHLpqpT4yY5FjFXxFJw+t1l5wRUikyVDNZvHbd5LbmUGcPmnvDJLAJFdynPAALRGtfk68tHVJAkxULZAYwZQ+mUPlN1YtjrZiGVrF4uRfXfI4Ube5cElbWG0MA07WT5bJ+IEfAdWNITgLmR5rcX0yvIb5qdxW+N9DeOVXVg+wdzX4K6i3cX3fIGQWfNYV0cz+ocmiNtlwyR0H2khqaIXmaIid1XgshPIuc/vD5P5zmc6bZiYGNNNTrssWtKLBV2a+KF3qWIk04bxXLOxfxbydjQS82UTV11USEwt7pnLst4q4ccTnl9R7I+SHz73lLWvohWSR9HUssrKuxPe5CjCSz7/zW9i18F+3Hj5Ffz5/D0C1FIa2GHvnhjF1mfJqtkeYl3Nxkdc6+NpRebB/gPYmRrE+sFdeHb9BuzPjiPLss1N5tDc0WF8f03nWvuTW+Tw7r1mMcyrV/8yLcH+L6Z+zmpR0Xs6WhFbcym3SxDsmmN6XSqTaAi7cUF34NC2vCuEd1zXYwFiuWSWCxdrktipKz04eiMqsq/VbGKnRQ7VTTufa4Y5jiuC+zTB8acTeTIAByttwahqWabVWpbcAj/NvFLaM2SvhSkrnKLNQzDkex1Ytwsbf/IQBrbsxs23rjFz890umQY8hkEUpzPmnqWpNLccyqkiimzQxpbI8+xuqu0+OzxkWK7GoPGzLTPPnFGyUzYgE6OXDcRJUBQg24IEawK0ALXCY2WNZovRCnxlXOV9rdlrGuiSTVgxV3NIkdUOE1gW8xlzvC6MpgvYMDSOfL6KTgKNe3qK4EzQlqcEG6Hx+9VzPR6mj52CTBfcLzVG3hBdzrS594vFRmAAbr5iMYKK76BqzTpijhCkckU3+qcaMZQOGj9rid3mwsKFK3HzzbejtbXLuu9JdsYnEtm+L1zaZvJFUinz+ak51g/Wvcl0FUNTBNtDlYUdOvNH9l3VkFrSjy3Ms3wpjHRBMRy0w47k+E4C30P8fqKLjy1m8NRcPpMPtU/my/zGNrzugtWYt2w+OpfMZ3kzXxNpo50o28LRGEbIgDX4G2puxMSucRSmNaOSbbe91RAA/YkZu1lvXrNsFaLUtixic3ry/bwQ5vGsB12Jw5jZlVTxBv3NJNv6deiPL9TV6MOr1zSw8IssS6sw1ZBlQbMpKr8w1/w6DcLKr3uJ8Woew1uvmWPSUau5RxWd/8N94xibShl/3EBb1KjxtgIZUDyNIsFFFbSYI0jmCkhNJpDSqgmJDI9nsOnHa1EkqxXILZoXQWfET7D2sgHIJpo0OaR100gzTKSw9OgUqrxXbnACuWEyzDQbiV6fWSPzhTowO1V8XzjA+uCAO+SHK2yZIgTGBnTJeo3vLNmtWW6drUxLsCt/xYrLfKdSifktk41MDMx7LSHUx98xdhQXBD1ktjbsKtqRJ/O1V0vo5OaJhAmuVsMzXguG1UoVF/iy3AMBagFhU34NnhL8Wir4KGIaMz8FuDddscIAsK6pHax9lBHP+rB/sgnJPFVcu7Qf+UEHcdll1+KKK66D1xs093o5oqtXLZsLD9Nqq7IDYF4dTLUbK4xENUZnHRyvImXmA/CJTKt8jYMhN/NX5hHtP77IQJHKdaJgopHxWczDA7vvR1puZC9JLPDTYKWC0+za34e+gWGjsVhty4Z5jS1453WvQltrk+ksiyQFxrzAK1vmzUXY14KhLSMIBRqx6porMOeCpWjobLMGzniOXMRKiRRWR1tRmk6xihYMGfplk1fgGmlVzG0NYPOeOOJUz1lbuLFgzecpbkZsVAcVX9dmBogkr7u800Q2U0VsDvuwem4Ur7uwDV2aV3/ouhfKTDvaPZ3Fz7OsqFTNQg1aoDFJICyYwUAxPoFWPpnRYw0gSYOX8q1BQrvTg/5N+zG6e7cJfferv3o1fCGfWUFBKr+CjYshyr4qM4H8ZDXtVjcReBbIftWEFGdXdtyS8ofgaCPzrRTZMNg4NJNMFKxSKBkgFPsU4DsFwH43CmyU8oZwhQLGbaySzJrzXEyrXMPUMTKxGCLLTZK1rwl70eZzYh+Z9k4ezjGti102qsZ2+BrZeCuWSUUDccbjgY1c8RmkrSgwjn6LXS+OVM2A2/FE5UHcRUdrAw4MTZvB0yOF7R6Jghf5ghteN/OrVtaBYARze7V2V9WYHCxwPHpZHl10n6pxT7vmYgXF5/XclS25sS+xiK/xwnsJ3ONpTV+n1mF+KRlMP985I1PRcUXPYh/IrC4X/fC54qbaEa6RmN6LpvYLWW6WC+LJilLw0OOPY7icxM83PIMndm/FY+ufw00XX0ItqnYvPsPv9mBle4/ZN1lmvSNxEJg6uHnZYbf0dMIXDBqtSpqPEb5cmHXmijkL8O277sTGwb14bNN6KLaZVp64evUa67xfCjkPgpi/FBGr6R/P4Av37KvtealiNbxMOm0ahM+vsGwV/O2blsFF4JCJ41QkQ1D6Qn8SWTI/BRTXyraFlBV0vML7eQVcZIkFgqem07LeGraZI3MVk3zqq/fCTzUuNTqGm29ZjYtWzUOAAFNi2ooEVKfstS7L79bE3WWlJ4TBwY5Btt7seIKNkS1Vo1tuNiTuczWGeayCYiJr7LquoNeAqFYY1kCNcSkjmGgwS/fI8zmyB2uJHjNoJnAWzednMZeGw+lFgunfVKhiaVMEVzUFEGc2Pjg0iWmCbjCTwSIHWSaf4Q6GTJB6M7gndzS+o0wqrlCEnYff4Hduehrhag6rWx3PN+ITiN5/MpnH/Wu3oSj8MtT+MBEgEJDtDjJxXwaNfoIH9+n91Byy2RSeefYJjI+NmHudlDCP1KHdfO0adDWzDJh4geDW+BLEc5Y982gS9duwuF2ubMwTkgOdlssWkYifeFqsaqBWmvC7hxD09ZtnKg1NHasxf9n/MmecrKimHOgfwPCYluKnvsRO2c/6uGT+fOPG+CJhndHw796RIWwfG8BUNotpthMN5MquHCRBCLNeNBNUl3f1oiUgrw0bNm7ailxZK43oGXa0trSgm9svj9yqenaM2lCXQ2JBryWHfz8lYSX9Yf80Hp/KItoZI6tj4yKjlV1MoOMO+nhKGeHmKLIyJ5D9aoBC6p0Wntz+8DM48OQW2LweLLhgPn79tavMwJZmDPmaY8iPThO7Swi0sIEXyshOJeFqoGpOBukhkMpVLEvgc0WDyMc1K4ZNlozYT9CuEPRzvF6j/xpddoVCBHstw6Mg5gXjraCZSLIZlzN549KmYDcet2Yrafkfvh4zppghIHPfllQZDr8PN1HjiLHhPTmdw9bBSdOhXOhjJ0AQJJ6iyoatTkD2YT6a6XEReNloZWZQ58G0lCamcEGjzAsWIJ6MzADleDyHB57YwXzRANrzouPmXjxNHYsG2JqDKYKX1F3tNP/Q378bGzY+ZQUXOsGjFe+hs70Lt1wlE5M8LzSIF8TGqWVkgQLDY3UYNsxpsaE9Qu2idorSF5/KE/ytAdxjiQFd1UimOeLfDa8rYb4rHsjCZW9CrI2M9zjXn05R9siLQUFz1Hk4WbaOs/Po80xSpu7X5QRyeN15qfVoXyKHdTmqyGR0EwfGCLYZlMVGyQr8sTDV7qyxq5bYOAMEXs0Ak9eEvA8SwxM48MxWAx7FbBpXregiUfUYwNJSOrLbKvyj7pc4OIo8WUeFFC8/NU1G4UB6ZAK58WmCGQF8Om4C6MhP10lAFNswTFPeCxoVJ6CWyFjkDWHctnhMICvGXZEtmY1YICn2o9UrJCb0Yy7PZ7kxVKggT+Bd0UjA9blwkIz+YIm5xn3z/G6CV47pcMEuv2CmTR4KZlFM+QXzORqYK5n7iqMDAWoAMe/Jge2MzIBzExn+9ZcuhEsmk1rJHQJcifCKfwUC5EBcni9hFAxAWse7uxfi1lt/DT0988xvc8FRKoDuKRexK9d0E7Sfv/e+RK9YTe1ux5b+UZANi6PqTOvscNRtyu54ojubs5mmVLaHnbbMW+rA7Ni74/vUPKwlf86GKFu0GobX6TJLWdUB91gij5ZZLslkEl/5ylfw2GOPnRTTmZiYMH65pyq69+joaVj54UhhknMEk+/2a/qxwE3hC5zIxlMm8IzeSMAbbWoUGTaNVmq0wNQMSFWK2LV2I+xkpc3z5uHyy5ZhztxWYzNTVRdoIps3NlXNHFMIPu40kcU0AJadnLLAmUxV9kyFb1TQcgXO0aw3zaPXc5xuMlAX78W0VOQLPBbnNQRI3ktsWxVF5ym8pO6n2LgKTqNA6xV5MXjIStngRjx+9IS9WECATZC1biGzzxG4IwSDFo+NzyHYMl1VucVpUkYkaIJda9KFNxKxvB+q/C2gdDgxp0FmDat8TkV0vthla4Mf1160mCBgDTYd9T7axYekim70TccwmQmayQDsopgEFy668Cpcd/2tCIaiJi+OFHVCyxfPQ8BfA0Hm1kQhijSZrpi0lPdji1JZxt5BZsvMHtnWeVm0QfEIjnetJXpqCW7EM9ZsNdWzSjGD3Vu+xbTpri9k+nU5t6K2NGtFDeTb3/423vnOd+K3fuu3XgCmRzYe/V6/fj0uvfRSTE3V/BePENMQD7vu8O9f//rX8Su/8isvuu/R5Mj7HEvUGDR6/chEBsPJItloEUWBHBmkBhs0ucDch+wuk0iSfVLNT+WRmkya0TOB2/b7n0N+OguPjyp/OYcbr18Fb3szgu2NZkBLwGsnMGjZeE10cLZE4GkI8cmWmmmTrZUAp1HmsqbR6nG8by6VQpGMMjU0blTQQjpHtkoQZmMvC/Q0S6pQRp6M2V5iJ8Br5bqVz2SMiUIBeIzZYZIqbUYDeG4M+P1m2aTlUS8cHgd2ZoqYzDMP+Px5CusohsxnO9wEVqqfRYE2r/E0xGD3eLhPoFjhvWRWIUAX0og6T6zan0jaGgm8Fy9hjqhEmDNCtGOIOqbxrBf7pxoIwortoH1VxKItuPmm12PViksMED+fKE1t9WHl0lYDsPqTY0dfYo6K5iSFHSFxce8Qy1BlVksf+ySE2MmdjOjdcpUYsoUm81yNN6Qn92J4/0NM/+lu5uoIqpiensYTTzzxArKSppa0du3aY7bBunx8dnsvCJD+5E/+BAGqonv37sVll12GhQsXmmMqVDHgb33rW0YNnzNnDv7pn/4JDzzwADo7O83v//7v/6aK2G2u/8Y3voEUgaarqwuPPvooPvvZz+LnP/85GhoazP3++q//GgcOHEBvby+WLFmCjRs3mnMef/xxtLa2orGxEdu3b8cPf/hD7N69G/fee69Jj4DxmML0D5WruK/AZiU1fzJF4GLD4jVayTYYDZuORH6xbjJVrfYrNbVAENNgVqp/DHuf243E8AhVcuC2V19M5haGg6q+TAK56bixwVpxcq3IYT4Coga/ymSpTu43MEOwnOkkZB6Qh0Mlm4FHKj5vrNWFXQLqEkFXwKvBLB5zhfgcdhKlKq9n2rwtMRSmEiZGrli6ZrnJpqxnjbIDSZJdz2M/sICsd4BAsnEsgWyljB4+O1jREkPsHPJ5MxPO19xowEtmFPn/6lOdkNZCkx1agXXm+UsI2mUjVBN/OVJF2O8igIUwMDJ1KC+OJwL9VM5PMHQg6GTnYIrZhsaGJvT0zEU6k0ZKkdWYuMtWL0KTGLlBuzKGs+2YyMwEUbIA9MQif2J2oOx4zKzmmhhfbuaL5YlxonSTm5eDcLqS1KZIUJi26el91KLmUwOy6vnLlTzriPJGJqGP/fM/4x3veIcB3dtvv90cVxsR8bn66quxaNEis68uh8ubZjfT3bZtmwE99QsCwv/8z/80DUZM8c1vfjM+/vGPm0kFv/Zrv4avfe1r2LNHAW1sWLduHQYGBvCHf/iHBqzFsD70oQ/hu9/9LjZs2IDXvOY1SCQSePLJJ3HzzTebSjM8PGxAedOmTWa/Ko3uIxC/8sorsWXLFjz99NN417vehQ9/+MMGlI8LuBSN7t83mSWDsxv3Hq8AimBl1j1jY0zHCWBkeGaJc56j2Lj5glbfdaJClrn5gScwue8AvNEYFvS0YMGCDjM5Ij0yhuTwGLQMT4UgZp5F1lglkBbjBPYC1WI2VrNKBJ8pdy81WU+YDJXttpBKw0aGKVcwBTRXWirxNNusVF2qtgT8/FTcTMgo8f4yeciMYM12AkpMo2yVxjeCLD3Pz74SwYKseBEZb4JAu3E4jjjB2Mt3a/e7Cap2YyOWF4ZmIwlcxL5zE3Ez004ualpSXjmq57qpbDc5pdkwRS8PcWtiR29bEJetnMvvJ3fDqq2EZNGNPfFGTJD9KsSifJLdngAuu/x61osb0N3Rjvm9MZ1srilVnBhIdpu8OlXvFqWrf7yCZM5+GLuvIBzxWwNitWccTxQGNZ3u4qdVN1V2uzffhUqJ9dDseemi67/6P3fh7nvuMz66X/3qV9He3o7vfe97xqw3IyfTqf3yijVjctbKl770JQSphou1XnvttfjpT39q2Ki2hx56CB/96Efxb//2b+a7elr1ugLdf/3Xf4XXqN4vlmXLluH+++/HDTfcYObfS0VSxRH49vT04G//9m/xH//xH+b797//fcNsdd5//dd/mesF+HfddZdJ24kq18MD09i8f4zsMEuVXiaAEkLNTcaTQFVY7FdLnAcbo8YEoMUztYqDl0B8YOMOpKcyiLQ1o6GlAa951YUGIEHwUtwGNUKnQlw63Sgk42SQYmN2ZBV2L0kw5XeBmIKWK7qUpvwaO7HsqXwHsWBvNGR5IlDdL5Nd8wYm/zQpwxkOIENAdJBx5gnSMh9UHORuLjLjZJrgTpBmOpQHIx4vAkEf1jQE4OX12xJlTLHx+2MhrOhu4vPYOTAt6mAU61c+wVkyZreXYOy0o8QOUMFulBZ1KrJK9vjJ+ghyVg6//EZsugjeZl57DL2dVMFPSgR0vJLq+Wg6iL7JGDIlTebgPvYELS1t1HYu53k5nmk1pQOpOSxfsnY+S888VZFmsme4gKJxdNUe3tlRQbTBbY6fiDmLXRcrQSTzWvBSz7ehmJnAnu3f4f2s2ZkvXaq447WvwS3XXI0HH3gQ+/fvx6c+9Smjrck8p7qjTTLzWZcXy6wEXTVksU6ZDsRIL7/8cnzuc59DnqxLjFbsVuxVwKrCjcVi1soK/K5rdWym0AWS2qdP7ZMNSkz3F7/4BebNs0alD2es+p7JZBCNRk3gGU1CEPDLVjVzvKOjw4wsH4vpqq2MZLL4+ViG0GNHfGQSydFJAkoVybEJqowKBFMyi0vK3JYn8GoQrUJV3kuwmxgYxeBzu8moCHR8jUtX9yASi6BM9mvTiggEWieZquIjmBljtWAz8kjgixqwzQp4qb7La8E0XLLNcp7p4flKYCWTN/62mshg4uHyflLvtXqv7pmfnEY1l0U+k4IvFCRTtWy4Nk2tkomEgKLJF3GCz0i2gIURD1oIRiP8vT+ZxOTIBDo9Dnjke8v7msDpQj3FZvDKT7mK9ARVfXZAmjjg4ju5G8IEYs2Gc6NZpswz0nBlVz7F+zLdArNCyY2D00EMpzRLjndi+ooVH7/wffg7W/ZiItPCMuWPlyG5kh17RlghzPs7TP2VfTcQsiaLHA/Q9GSBbbbQyKIN81ztsWFi+DlMjCga2UtPm7h7E7WuMOvDf335v7B8+XLcdttthhB9+ctfNm2sLieQtKXNzUr52c9+hpGREQOyzzzzjFHtxU71WzZbbZ/5zGcM+73uuuvwL//yL2zPGvmuGpOAidRFYLzvvvuMWUHmBh176qmnTOXQwJw8IyT6rXOlIsmcceONN+LZZ5/F5z//ecOkd+3aZYBaclJuPFSvf9ifRFngwj8TxzVnLbLoJ3iKdcoOm53UUjaKDpYxadOkiOTwJAY270JicMyw2C6ysgsvXsw7s8oTLIx7FRlvmdeIFbsiIQRijQReMnsCr7wcxGjlQ6sBM5k4FN9Bdlc7Ga9sv3LxUrCSXDxpFv2Um5iLTNbdGtVjjGorTwinNwBnwJoaq0Uu00PjBBh5YDCfvWTuZKzbR5NoIkguJB4UCJ4bhpOYzlQQIPBExsdRnNbUZF5GcLfcw0w2Edw95l3E2uVxIU4rplso5NHhJhOnan8y6vQpy3EA60RiAKzqQDznwb6pBqSz6hmoCVQj/KyiP9lD5fHlp1kAP8U8HE6QPGiuthG7FQbSTRA+SXtLPDuX5U/Wzftpuu3+HXezjmmA66UDr0SmuHvuucdonKtXrzbtc/PmzaZtifDU5dgy+b1Z6qernvy5557DG97wBvz6r/+6Kdg1a9bgj//4j82glgr7zjvvNOEa3/e+95ne9k//9E/NwJZYsWy9GvjS4JjYsga9fvM3f9MwW91PNtq3vvWtZhDtmmuuwdDQEO644w7DaAXk8pb44Ac/iH//9383diuZK17/+tejubkZV111lQH3o4mqsljbkwOT2ELVXCYAT9BPkLKm4Vqr8pLs8btW9BXrUwOSKUB2XrlPTewdQGJkykyzFcu87spFvIbslKzYTsQyPrhZWVHFeKrGRkuuamLZygVLg3Fq9kVem0sn4SabLZO5S2WXl0NJpgJ+imHLz1b2VXlPSK0Xk1UHpM5BvryKoetuFPuUXy9Vf4Km9inmro3gOyRNIBrAqsYQIjxnZyqPoaRs2MDioFgZ08HzC4rDS1Av83lFMl9j6uB76J7OoM9E3jIh//JF+HheW5BvwGv1jqdbXg4kmvQYlb3KNNtxIO3H0HQjksUYUuUAgbLJpPt0iPqG/hG5sVm/1SnLsyMaY306qVZrQ7nqIvD2WOnmVimksHurzAwvL5Eyr0nbVBtRm/zIRz5iTHAaczkeC68LNeB+dssszNNfs0+TKGlHFuLh+/RdIHE4CM70tDOq/wyLPVx0jq49cr8BHF43c3/91vdjmRGOFGXkNNX2/7d7AvE0mSXBzNcYRZIqfjASRmZ8kuCiQONhAmrOzF9P85gnLC8CmKm7v/jy3WZwyc3rVs1rwevuuI7qMEEpEkF2ZNzEZ6iQ5UpVV8wEpy9I1ugjKazyumkz8g8CqJkyy/eTV4QWlBTD1SCe1Hn59BLBjVuaTAWk4lZD5D0U7yE3lTDxG2w2pwlWEmpVsHbef2jSmEVM3IbmKHakC+hl53FZzI2pQgmPTZXQPzCGDp8Di8l+C8m0GZST1qGQkA6Xw6zdNjPFWfZsN++jNDt4zwI7h66IE722ab7fC8v9dIk6wic292PPgZcf0lEpZCkwP5inhvFq+q+VlS9bVAd5I6+7gmVd1Dr0U0+Tm16uZGasWXKsh1n5p7TEvPvhdU2Z67W7e8Hr0D73htoZpyZqN9L6fD6f0SBn2sqf/dmfGfb7xS9+0Qxsy7NI4yR1eaGkfsROk5l4OqpIXSjKyP987gB2Es1cVOU1ABWg+p9OpMxx+dHKnqipulLv07KbykZKIIzMacWz33kIqZEUEgMH0dDRiLfffhl8kRjZYgaB5hYTScwMbMnDgQxZy3K7/CE4w0ECqA3ZwTG4ggEzMKXYCvKvNR0Hi7ii0XRuCt8nNyeXgpJUSyjFk/C1tqCcykDLnnujETOopUEgX0ursQG7/G5jiiiMxs1qFBWC+RYysEjAh6savfCz3a1Ll7GpbxQ+hwurXOzo5K7GdCrEo8wZLjIhE0xH9gUF2uE9NLjmiYVMZCubwJ/nXxirMO/4/ZBafXrldILu2RE7YizeRVoMuNZSRQLi03lkM8ynE018YOdlt5UQC+yCy5azgJd1c/nF72Hd7KmddGqigTOl4UiCIjKjfYKUmeN1OULKrbPTvHA+ijBi/cA4tpL9ablyRc8SyCo0o0wI8ruVDVPqdV4gLJAR+Al8qLLmCVqjuwaQGh+HMxLFNavmwyVzQCYFl8dvQNPXFDNs1QSyYV2XyUCLUBYmp5AbGFXNN+yRyA5vKGjUd0NnXGLXETj9QThjUYJpkxUYnaxctj65h1npAVlu3LBdNUwNlrGlMr1pVPPUKBTukSA86CQbJiuXe1iUILo/V8FwnmDp9aCXgOlyE5jJkBXTweGVTzEbIRu7wkZ6AtxaIkZFlrkhOzFlQklWCMxN/jLcCoajUcUzJTWQOF9EJqTJZBlDcQfBU0WkwWJqH2EvNbyT4Eu8vkKNJZHpsSbL6P1Zf3ZvvpN1MWU611OVmfGSGcCV6PfMfmmedcA9hjB/6jlzmiRdLuI7BwherMQVIorCLQqEZN9U1VR82gIB0Ut1PE3WmCDYCOgKssHa3Xj2W/ciTDDUTLFVqxdhyaJWA6xiDXI1yw6PGv9awyZ8VM9ZqR0EUXkVyItBNMgajFLoRb8JkqN4CQJgJ9PhjgQInHw+gU9MV4xXHYFxA8sVUNEAjUkp36BA4CMDVzAeBwFTMR002OcIelGMhhAnY53fHEKPx4bpsg3bUkWMHBxHs8eJpoAL0OCc3OKYLjErh5dMeSqB3Mgkyum8Sa+mFMv318n05yYScDINXT6CiPl3EmDyUoW3FnCdL6LyF7j1jxeQLKi5WnljY0cdibEeqPc6UTNmRSpXgsjk2wXZ2kGWPIYDO+8xWtDMPetyNqQOuqdF1DB+TNW6QJVaKKvVb0HQUgQuuVvJ7asktzB71Qx0aRBNNkzDWshO+57dhv6nNyM5NGLC6V2iKaUOt1HLZf81wWQ8HlNYZpUHEyuB6rsYIemPmdBA0NQilJpIoSak6GBmEhOBXSv/moA2PCc/nbAmO0gNJIArrfqTecHFdKmj0Aw5iWahJcmgbUyT7NNs4TjIm4cJlhdE/UyPA5tGE0jw+f6gG+3JlJldZghQgWnkdQpmro5CwG/szB4xJLuZqOFpJPsOsjOguhp1l+AnKzvzzZ9POH8w95CUCZx7Bkoo8tOmCLwsQye1lZBWQ2b+H19EBCrIFFqQL4fM60tLGjm4FhMjG5kl2nPmc74ukvfUQfflitYF2zmZxJaqz/gNawKAGoQ5JqbH72KlhVTWTLv1xUJmOqx8ahW0W/60B9bvQKCjBcnJKdz+ttegIWat4KsBpjzBEIqDUCqYab9ES2gVX3kFmMkE3MRKFeHL4fGZ5qfpvGZ6Lc8VS1LUsNxYgmw7ZE1syOUIpB64+AyxXbPEOsFRHYBC86lVGjuw7HR8Tknmh1IJfZMZqqk5LPDY0eKy40CxjN1kw/l4BgvCPqahbAbKisWCUTELbOiOIPfzhmLh6ii0vItsuap5+ek0WXSGoFtAp5f7lVcm5+pypMi0kCvbsX9EXLVoylUF5fOzY/ZpRPTEOafcjWfnGK8GiYud3/7tdyOXGze/63I25K/roPtyJUPg+fbeCTNIpRUmpM6b2WCGiTgJqilj61JOR1ui8DfJrkl13wR1qSKTKmHeZZeQCefQ0RbFBXOazSQK+bQqroHstGpgYoyaYCBPBLmfCbilvsvNSg2ulM8RzHIa5UC5QBWebVCgLNop9yyp+8btS22zwP05gpzbCWhWGJ/j7Wg2U3RJNi2zAwFfrl1iqBNjcexKlTGQKyGWK2Mer0vxvpumkgbo25pDCBKYBfwCB9mK5eImjw3FCdYzjb0vQObrI4P3a+0zO1mun59ONJCsBR0W4z4bXPe8FJMtFUyyHIann2+20nYiEWpOwt0TiNGsKh6ksl28TuAtc1QSe7bcxd9nZuCyLi+WWQ26AiWB1/MNUZ+HbTx2LkVWhJ/0jWOKICl1Xe5gWvhRLmDS2JQ6VXRNTtCEBjvVwWrJbgLMiPsNbNqNgY27CIYaAMvi9tuvQW5ygkBKFkuGady/7BpAsZkgNhWCqcDdROPi/apkswJ5TSdWpP8iWbHWSdO0XwHwjAlCJoRinsArey+ZuFn0kiAvf1s31XtNmjD3IfPRZAXdX+/WNzCOn67di7t/sRN7k3l4ec7ykA82pndLIoNJArCAupf7TVkojewc1Bno/lDYR343kyAI3uqMKuk8HLxedmO5tmnSxJyYBhOtPD3TomQePgB03gmTfmCijHRBtUub9lWN/645eBwxLYnn5kqNyJZixuSgO6Qmd2Nw/yOmrpwJ0WiDnnQ0YC+xoo1TWyqy3qWyBTJxEgbum6AGmCfhyOVLmKKWqKRNpNLIsj7lWc90XHV0miQkXTOHHU3MgC4LnU3U3Pd5LDlXkpmdUcZUNGmqnJPZHEZzatwZjGcyGKMqOs5tkqwuTlYZ5zkqBKnCGjUVOJ1NUaF/7aHnMDaWhDcahFbM1awyYycVYLJyCNQELALCHAFH64FlyQqzk2lse/hZdC5fBn84hPkxJ9ZcstQwVgG16XBkc+UzTHwEvRv3iSHKJmrjvZUARQyrOjQJI4AiGa3ywFQsHpNngiq8MSEwOQp+ozTJVCCPCidBt5ROmcUwFSZS7FbLgG8dmMC6XWPYsGMUZV8I3RcvRjjixoqmEBZG/RhiOjYnCigUKmgjmIf5FHU68pwwEcxUDDUGrrQztUyFDS7NlmOZFdnItNy6nWy4ScuqO7Viw9lpDsrbgfEkJqetad3noyh7p9M2tITllqVcs5lOXVWkkFdB899x2oJqSLEUNitNyJ1M9SkxtRuRxkXweGO1s06PKHXZYhWPHKjyeTaE3S9MV46db4ptxuV0IMv6k2Pd9JBMxDVxh++g3+lCET5qd3HWU7FEhTFNU1PzepxISIvjbz879SNFUD/y0KPY+anPY+LRx+Htboe3scnk07mTO8496JqGxv9yZD0j2TT2TE1iz/QkBtJpjBFsk2R8aTbcLDM/z3NUCFk22CwZVoafCbK/8TyBmAUykVOPadlQ3YqFSDmTGSxVOkRU/M6P1mHbA09iYt9B06PzPzOAlpd9lBVCaRDDkC+jlujR5ILdazejobMHe554ErnRAfzaHdcaMFQQbwXEkWrPpkTAJIiVC3A42agUd4HgJBZr17RffpftVt4SWqW3wAro9gV5fYEAR0BlHmmWmiYo6NkmLeycjK2WzxIbVYxdPhjj4xms23oQjz6zBwdHU7AHQshNTSOfTqJjcScWdDfhwhjvScrwLJn6QP8UXLx+gZONFg7jyiY6IjYhs4hc5uSjO+NdIZYvJm6C/PC37LoC/oWBMlwVsnorS8+4qFMaYCd5PoOupKQOsmhDA4FXpEOdqxa1LBDEyqJ1xxPVR1beYjEIn3tSPw0QJ+L70dR+EeurBkNPT8PRXQqsCwfjQCPJeMTzQuW6qDZRA9UC632JSQ+6XYa9emTm4rtpf4j1XfvcGhBm2nMkLyG+b5pMWGMXAXboR0puZBzr/+ojyI1NID08iuRz29B526sMPpw7+UuVF9/qLAsxiXCiimLDFBtuX3ISY+zZ1PIMW2WmqLDM//rJ/8xv/eRxfTebvnNTFho3KLNXPyrwscAafX40+wJGvT1TooGnv/zsvXj4ifVkuECgpRGJ8Uk0dnXAG/QiNqcVHUvm8byKYcJFzVRjmjIpO/oefRLje/bijteuwdKV85kxrPrsWBROUUFhqHvJGMr3KcEdCsEeDCE/OYkK80zxHLSisDwNzDAV8045I1ZbphqnQOBa9kYDe8UigZUVV3lkZYVyn/lVtWHn6DS27RjGwaFJBJobEGqMGTadHJ1Aku8x75IL0D2vCTf0tKDL78T6eA79rOBTI9NYxE4yGA0gGIsgNxknmDIdSj87SrmCFdkhapqyxB0OIqc4DOxUTDExPbGIBysiBNyzUANVT1TVVRfWbR3Czv0jpiO0AOv8kpl3UbrnNDnM+mqaKKPOTw4ik+PUJE4AvKor1IEIcAMEtCHT9iQNHRdi/rI3qXZYO06LWGnVE+UyNSOJZArrNmwnw80ZplpgZ6xkB9lOkuywvQRftZsCO5iITwueklQIdEky8jw3TK0qQdLgJDDMm9OJxfNeONljcvM2rP+TvzXT7Q1e8L7X3vlFOOSHfs6k49yArp44zga7Y2ocSQ0+CQm4CXANwPLTbDzX2p7fZ8GFJeZ3bb/kBWMJ2scHuQggbf4Qe1k/1ZXT38PJDrZh1wD+9n+exeCm5/hcBzw+NwvWj1hHB4a3bqMa7zbqf8/qpfA3RZHPOwluzdjwg5+gm2r7G++4HN5IlFjoQD4xzYZTISBKjWJD4j7NCgs0N6JK1lsi+zQxeU2wnhqQkO0KgAUgem+p+CYWAz8Vq9ZGINSaZA7WaK3YO50p4eBUDnsmMqzkTgzv2meC5wQiYWoKBMP2Fkzu6Ufnqvn8HsaqphAu72nEYLqAh/rHEec9FxBsW/Npps1rQkQqeI/c1GQbdpLBiokpLQr+I4C1BXzSJclc2NRla2bqL4hW0eRhZ2By8syK6sgkO6ynn16PzTu2UBNphccfY16F+e6WBnG+icYN1Kkt6WZ98qguWIOu7OswPZU+wSupfahlVREJ7oLProkS6verWLD8LWhqO/PLoj+3YSve9t6/gVOzFA+16qOL3utIqDp8322vuR4f/ss/ZBt6vo3L8+bJP/pbZPr2m7zovPUmLP6Td1nE7hxJdrD5bJsXKsiwAW4YG8b26XHkaw1T+X0IWE3mq2ek6iy1mfvcbMhe9lZir15ubjNwxDNNflOx0iU1QDVsznyj8LvWupL9N5HPEYBd8KintA6a/1+uKM2tDSHsOzCAA8NUx3NZE55RK+4qSlcmk6LaTzDiq47tHyBARnBg7TqkE0mEokHcfv0KeAmOWq5Gfq02MkSN9MvOKiAUazerQsili42qHE9aYGzSb5kL9OrKCjEAe8hvKpsCobsCQes1peoz34fH43hi6zCe3HIQ9u4etCyeg4kDw7xfCb5ICImhMXResMBclxgexpxLF6Mt6MFlbWHz/LXDUxhLksWS0S7TwA07h3I6S0xlusS4yT5MXAflO/NBorXPFExH6ZWvrxqJNxqGs5TFwrBJtTnvdIupS7UtTYakyHMPPPggRsfJ6tj5lPJJZJMjyE4Po5iZMqYYp9tjVFVpApq9paSdmdSdHlHaDAXhv1jAAh8l28lOOJuR+aa246hiXSdCWyoEqcpPsb1Z9So+uRONbatYVxX8/ljXH1vUdsfSFeyZrqI5oDs8fw+tfzeTpqGRMdz9k0cM2YCZRURKdcSnSWCNasnjwqrs+q1PdRnWtnhBL264+mIe5y8hrM4T4br2Cvjn9aLjxuvQ/cbXGvPWuZTk4MfOLtPtTyawcWLEjMSzhE1RqFFIZhiumwUgVholg2omW/Q5DrMvmZTWGir/KeVF1izZeOP5LFJs9GlFtNJpR0rtHo1eH3rC0dNucpC/biZXwuNPb8NT2/qwcd8Y9o8n4fH6ER8doQrkMCv9RhubMD06Dj/V7RvecTsuDlTgJsuV65e7zTLyC7Ar2vhuGtwyKSUbkD+uNfglP1vFNijBo2VvZONSHAeyW3dTDLnxCQK2JleI9ZSxrY9pmSTLDIURaIyh78n1WHzjJWZwb9cTG0zUstRUHN5QwMxO06SKBVctQ2NjENd3N6E34MSzYxk8M05wqtixHEWEAx4zQGjUc5aDfH0F7lVWar1rkaCrTtHlD/B7xizPk59mh8Hy06DJQm8RLX5jAT8jojqj0J1PrluHDRs3aI914Ghiem+lxc5888EXboTLE4E72MTOS437TKXy9EhzhOp1s4CK6eRr2qltjY2k2M74w7zbcdKv4xUHSc0UIv59ph3K7BKIzMEFF7+b+eisnXgqUsEzQ1Xsn6ritiUOtunn837/5DPYNPojZAtJpEksduw8yDQQD45XPscVvZsNTQ1R9PS0sJm40BVZgzVdv8Lnys5rjG/m86i4cNblLJgXdHPZZbaMjWBvQtNkrZiwM6IOSXS/gSDbG40SFP0GeF+K6E2SpTymsjmMU402HT336WnWS6oXtJnR0QXhmGHNZ0qUrX1Do9g1lsXdP30c67YfNMFi8tMpBNpa4fU4cMM7X4cVBEaz5Dh7ZX9HmxmJLU0rXkPJBJ6xyc6rF/O6jOeDCYCeo/5IMJDdV9cokEx2ZMIsAKnwkKVUFmOjU1i/bRDVnh5ks0VMbN+LxoVzjO/w/qeeg4cA29jbhaYFc7D3588Yn9kC86ycyKBxfie6lnZiUcSHK9uiGCdzfvhgHGOJNDrczDuv3bI7Mx9FPkzG85/TF1D7RVUsncxdQX1U4QWA3ljU/Daz0aoFXBTOGVW2VjAvWw51zJRkOo0n1j6BbVu3kcFanh8nquaiAAIbpWemvogVudwhuMPN8AUb+FvR3HT8NCX6NMnLAl2JXpj1LOLdD5972vzWWEXP/FvQPu9W8aPaSScv0jDz1I78WmHaXFvFcGon7lz/XkNQXpgi/jpBEo8rKntdb97V+npZ55tw7fx3a6fZN3uk48ybFzRy+eTgARxIJw3gKQ9MNuiTBdPqC2JFcxMWxZoRpCo6Y3c1eWi+nbwo7z1kbxECeBMBQGWQo9poiuKwRierxmQhi6DTBbcGds6AqKErwv58quY3X34BDrS0ItTZCqfHiUBTC3pWLUKsNYbucJigq1lZJVZuu/FG0Het1Ks0GyapnGDNN0HJpcbXAEYAq/XPqmTJRTLVMq/fvuMghqItVKc3YjpTgJ9gpwA701TltCTQRN8AnAGv8VrQyHCwIYbxPf1w8bnyfhCYdq9agNYQAbc9Ysw7z04XcJBg7KGGsjjogE2eChQ1cpkMPI2NJmavi+xdPsZyF5N2aDwweI1c32Q+0UoYVXY2HbYMQs6aaellykxe6DOTzeCxxx/HT3/yEwwPjxjb+EsVA9S8vlTKmuVu0pMDyMWH2Smys+B+Lc5pMx4ypnR0RW07+xLw2hCjGi+x8oN5kSoY84L18yTSxbpTKIcM6DpsajNOJLSoZcM8eHxyIzu1dxORckg7O3RdBZuG70Xf1NMmjWqbSpb5fNl/FN5In+YXcSZRGMeFXW/kr9nBb5+Xj6tNH4ZGp1l044cP7sUYmZcJK6gsMRlNlZpgt7ylHV2B0FFVfaUqV6bKTtDMl+UiVqJqywbM/Q6xQoKrANZLNdpHwJjpT4+ULBv9geQUUmRrksNfV6P0S2JNCCie7BmTKitzFR98bDeKYvDMB7msyK0qRMa4JuhDbnJMiTEZJhcrzRArZdNksE5U5IEQCpnr5IIlUDNL8zBvXHIbI/NMZgvYtLkfQ6kKpgmci666CPvXbkAulUaxVDBrruldxTQ1Qy5IVT87HkfHpSvQ2NVqQivuf/xZpMmwu5bNRfvCDtwwtwULQl5sS+Tx5OgkG3EeS9lhxFzkrnLTIXBXirIdOwhEll1dLFaxG7Sir3yVtUy7GciraNov1UyWtcdRxZqQOg6plC9fpP6nCfhPrF1rFg/VytAzQHwmRPXHADIZnNPtRyDcAbc/CqeLZSGab9jW83XsbMgLmC5bArME42NFZDI5o9WZSQ8mXScWty2HWGiHgIHYpUU4o1hxxZ9Z5ioC8UuXCh7b/xU80fcVk3+Vsg0pTXE/bXlFDYraoNutjtCGANP9rsu/YzBnNsnkUzHl7WEodJpFN942PobnJkZMcZkZT+yFGqnKXtraAf8hlqmM0dk25Mgi+pPTxjwgdxBxFTP0xYLS9RLTU2qXvjP5uk+MzLY1ECCDYuXgAYsf6gxLBtMpglLCGnSj6MNHtXwRWaFLtfSMSRVFgtLfr92DAumf8TSgeuUNBuAmsK4k49PTFdrQ5vPJdMtGHLAiihFYZaf1dbab98yOjKJUzBtAk3vQ/sExbO+bwIHRFDxhP/LpLNouWAy72w438yM9NIbx/f3wkRHrhZMTcTS0NSM1OW0CjCvojMIwdl14AYa27oI/GkTLwjb0EGxfM6cJcXZYjybzSLKBuHivpVFr9YqSApErfCMbpSKeldmpyvYsAFRgHcXy1crEGuRz2J0okj3b2RjsBKneQAFdXsWksHLnVGUGUHV5jvdd9+STWP/cc2ZwcUYMKJ65am1EdUspETCJUDu8Qfj8MQPAnmAD06CobTrhpbPtk5XDQVcdnwBu5epbMDGVwPjoMA4ODiAVnyAQyWvEyj/jvmU1OSudh8QGv2uchOCgOVNDVpG2izB/+a+z/QnQTk0yJAqf+/K3rKc2b0K5hUyXGCBlaf3Te/k4PoEHzRwPfTklYWfP11XbUJ/S1dOAto6I9VqVALD1N5hmG665Yg0uXrPcuuScyxk2LygLm7x+w2RHcmI/rByxCAG307BU6wwroxNkKFsnx7F5bAijmbRhuWo3pgG94Ez9mvmuTxYgd2kSxWg2hYkc1Vze2+9w8draSZQAGWGQbCSdz6HEEgrZ3Zgfa3zJ9uNTEQ2FPTZmTdwQqnoCPtMWqRWiGZq5xYonldXjMzEYFJfBTsYo+65su2KTGrQqsuPIFyrYQaC994nt2Lp3ErZwAzJklpWi3MvEhgsm4Hi4qcmo8xmyV9l8lRVeH4GZzFnhIzVFWLPDwh2tCHe1GO8GxXto7GxCS8RnZp5tmEhhXyLDRujE3EKGDaNizBtqG/I5dgappfg9KJFRmSnH1EQ0BVirW9jYwYip63x3IGiYuc/rxMKAcsMqw5ciqg9aJHTd00/hRz/6EQ7W1r47FzJTE00dpTZWzCWYtyNITfUjn52ygISgYmddPJPyYvNCFe3tC9DA+t3a1o4FCxaid/5iVN1BE160JK2R7UXmKp1+ZO6VKn44HdSw7Fkek6likHWnEYFQZ+2M40uxVEGC9SxLLWcykcQHPvgv2LhpG+yBCbTO02Qcq1McGUxiXscyvOmKP8VUahjTqVFTT09mU42WCesdN/4NehouwI7BdYhGAgiGZfahhpsF7vz3fdiwZTs6Ozswf0EvMhpjYDs7UybFk5PPG5J1RkVAsKypGcub2rGEn6tbOo16LBEHUHCXLZOjeLT/AA7E4wQmHbEKRZXB+t8Ss6+2mWmy3KeBGv22jrNBstHvmBjDlolRZFi5Zu7Dqo8IgaI31oAGlwtzG2LwnAXAlSgNipurZXWUGMWnVTwGuSnZCYRCYIeLIJhJme+aImuC1ui4x4t8fAqjw2P4+XMD+P5je7F25xg7D4IXK1dyfMIwTDPKznxTzAYfOzatApEYHTdeES52fOmxKeUqsmwEvljMgHy4rQ0FAubBp7eS5cbQunie2a9BPeVZNl9GIBBBjCxVwKuJD1JVpXHkZeooFUyoSG8kbBif3NRUHvKuMIxeU4GZyCJZr1pKu6cKp9yS1GpOQQQk2tgt4NHHfoEvffnLePLJdQY8Zo6da3k+Dfxk51pMTWN6aDvG9j2Nyf1PIT66hx2ixjV0imJNsDR0yWlM+/NpsNfah1z11M/bEfb7sWrJItxyy6249fV3YOVl16KldzFSJdlydS41LaNBseyJZgqKU6R+Km1GxObAjh8SyEZ4ntXWjiea5JChFpJlHS8UZsgT2xrvxf+skyjMJTRFOnDN8jeiIdJW23tyYrKR6bti6RuwYu5VzMvD0mWep3phfZaYgDQ7m2yOhESD0OdUvi5mriw5s2JlkIBSuSB12qxJQHZK9XD4IJJ5siMmQ7ZOUyQms0zOGdVBez3sndxksFIX1FsVuKlizQC4zjEZze9S0ausaOrPeiIRtPuD5phk5mWtym99P7NCwGVl/shTB5BnWhXzVhMJvAo2U8xhVZhqOrtlLRopaiSQVBQxMz3XF8Du/UPIdS9A385+DG/dzruxkRDwPJoAkckbG6oItMk5qvMyPzT3dGJycNiAnt471NRIwCqZBSZT41NwBQKopDPovHC5sePm4gm0XbDIRJC0OfO4oLMRNzaF8GD/BLaS7Xb5XVgU9ZhVJWQuMLPr1EnwWWK3nnAEebJnh5cMnkxdpgYF5JGnhCZyaBFLMeHL29SkT86Wq3SbqsnPHPNn46aNePyJJ2qDY2el4E6j6D246R/zzysTRKgBXk+DlWcGfWvnUfTL+nZy0hxRUHmBuI0ddBx7Nq1Fc2M3Fq+5AfOXX8i69eIpskaUHj4smUpj+46dSCWmMDEyYJigne3U66DGFNzFkxzsRH2Yt/zNaGhcYsrkRKL2qTeZYv265fbfZodsw+obC1h+AzVePlcz5p57qo+3srO9ai2+olXepyK8kZPXKv/KBPCu7ga0dkbMe+UybvzPPwaNOeyP3vUWvOXNb7CexXScHap1bDkrkyOsIqr1PPpFlBjJpfFEfx/SciWoNS6JQFVZ7yaWdgejWBRrwsKGJiyINhoA7QqF0c1G3kkG1szeO6DGXy2xkDXiqnvoIRb4qleeIrCXeTxM1d0As3VG7b+zIVZPu3YyZ+aY+2urAysiWWNnM2JkgWaVXoKVjYy0WqD67/bgue1DeHRDH3b0jWG8f8gs2phLpBDrIjtNpMmaNQmCAE0wk6qvQTM5xYu5KoqY1MdKsWpczDIEVYGzVrMopAvGT1ZsJDE0iiIZscwDiZFxFkMZkVgQDX435ge9OJDOY5RbczgAv9iqioodh+LwGmBVp+eyJnWY32ToCoReJkM3+cznaJVfrZXWFiQ4+MSgT9ywZgBXJom1657Evffdhz1795pqchYL7jTKTK1j/eNLlFnG+fQYy2UE2bS0EWsijALXC5RnrjhZkXkh4rVj99OP4tmffR8TA/0Y6t/N+uBA55y5phxMJDqCzguED9FztFx/Z0c75s6di565C+GLNCBXtmE8WYXHVmSdiGHJqncgHJvLC06csgwZ7kQ8gww1ukQ6i+9858d8Lxva55bRMlfT1q0mPzQ0bQBSLmSHi6UB8MAxthkCxR+GeJGq6CvCEZ8xL0hKRQe2POI2mvbKlUvRM6ebTLdkZmr6jxKn4WzKWWG6R4qC1ty9d6cebjLQZKIyj5UiStV/YawRHQRWl3bzfAsqXyyHGjBLSf65Mk+Myym/dgXzmxfrvyoWRqJoCYSPcaczKwpR9+HnDqLq9pogM8GWBibOjljIi56REQJWkVsZ/aNpbNs5hIGpLHwNEUwdGIDH7zV2OH8wYGy3JpqYXLJ4XwXB0fplnmgYJX56IyGemyPgFgmGDoJsAaHGKFU8LRCZh82o/CWyTid8sTAqVLdKfLZm0KXH4wg0BLHgymWY3xDAq7ub8fDgJDaNxNFOEj7PTQAnQzYxemX/ZQJkipAnidXZUdi4K5qcoiXjme8OsnEzgaKQwyWt1szCY4UPPJzZllg/tAT/2rVr2TnI5n3Y8VeSCERM3qkmqx3Y4Qs2UYuJwB1oZDn5zCCdtL4Xvrn1y7rSDn91HFNPfx/TE6NwUKvoXXY5Xv9b70JDU6dpY+ot7a4AmQw1PnPliaT2PJbVJDvsGOuHzaYxkpO7WgFq0poSzqclkkm84TfeZcDvSKa7/un9/P7Ce2o1jCu72EMfQ3T23qkcDibEjK19RnjTYzHdd//Om/Ebb3wNz6GmyTp6tOA4Z0+eZomdA/Gw113Z0IySTY3Xss+KhS6KRXFtz1zMIUC6TAHPwOfRxTrKP54SJuNa3tiMFU2tpnHLtmisUSyAENlwzHfsgjzTojeQF4KYh0wAdrcNwaYAsmSuRQLxpu2DuHfrFH70wAYDuDIfyGwi31aP32e2DBmph6CaT2bNWmpisqbW8ebGpqtBM56jxTCVp1oLzeFxGKAWA9Z5minmj4UIhCUzsaL78lW15X802KUpnxQ2DoUJlMjP0tBbaiZmUE8BeIgCilBmbMjMeLPSBK9R2zEuZGTtioAmF7XidBwKL9kR9bJMBJpHB9wZEdg+9fRT+MIXv4hHHn30EOBKXnGAK1Gm6bX4afCXeSv2OzW8E8N9j2N4/1okJnaikI8T/5QXpoQOScXGjnV0G/ru+xKS4yPMYxdufdv78dY//iAaGzXzSfmtG1s2+hdefTyZaVcONEZjLGt5BJ381aq7ItWqRjOa68mKj6D4tuVteNuKdm76PHxrNZ9LWwKnVB9mxjxk4pB54dzKW84N6KqxLmpsJPC2EXgJBtwu7ezCikYCJjNnJjsFm8rbLFngSCaNffEpE/bxYCqJJBmV1PYXCO/T6PHiwpZ2NFBlKvNP8RqWNrSY+56r7JatzRXwmTgFsaYowUzhFSso8fP+7UPYOJrH0MFhhJqbzbmBWARJqvvRtmYkJ6fNBASBngLZqHVqem+0q828T1Nvp5lcEWltNA3XHwqYY7kMGXVDlECmuAslgqDNmB10L3fIZ2L6JofHDXMtUg0USGoBSXlBmAIQSLKCKlqYWV+NO8v5vGVG4IO13JAqsY3qsHETY4eicJK80MRfkG9xlWVgc1TR7rU61yMb7sxvdbrrnn4aX/zSf+IXv3gMWQ09/5KK8kSs0FFmmecyyE4MYHL/egzvexLx4e0E5UEqGixHolpu/5OYeub7LPcyO9MmvPUvPobLrnstO1fTxM6ZaAAtyfqXpHYljwGLbZ+cqA4r6RrUMzT/sM2Mw+leut0pvKCilMmbQktNJdkGz60kzw3oKrtUaZaSmV7e2o7renrR4Q8dykj9ny2XsCc+jfv79uLB/XuxdmgAm8ZGsXVqHBvGhvDowAE8cmA/NrGHT+Zz5jpzJf8pIM4FzW2YH4phWVOLqYTnUrT2mIMMsCHiw1UNPqwMeBCRqYDHGjpjuODalehY0gVvzE9QlBboh6c5how8DYJUC70uhAjAikcbJLhWckV0X7gMoY4WM2FE9roU1UBVxtR0AgGCrSZRCCBlK5S5wW38agmWrHgaUNPU48TAiElbgd9lahBjFUsRIxWwaiBMg5tW4B2yXTYEC2jZgfG4TCL8IBgTgKkuKgylQF3TlIvsCPhgNNjy8CqCuvKh1vgMsHArErg3btqEz3/h8wTbR5FhOl6RjPZUhVkgBV8mB+WGNjs7zjwBN0kWnDq4HvGNP0By289YZBWEm9vxzg98Ar3zFpkrzFI85zAfpb63xsJooWYWJdlQHTnZ1KjeHVNmjpkbnvz7+Vx2tDRE0M40NTBN51Kyg2wrte/nRKR6zI00oMHjN41YeSnW05ecwgME2g2jo0iVimYet+kBpbPwU9mt83LVkmG9jw8NYtPEMDTlWKL7aPpqTzgCDwFiZlLFuRKlu5zNwUV1rcVdxVK3DTc0BnB9yI0b5zaj21fFgmU9WHDhfKy54yoC6lzMu3QZwc6G1uVLCJJehFqaSD4dZtlyMVbNaAu3t5o101yy8yYyZpCtsafDHK/y3OxkguzYZQbciuzEnLw2T40hT0CULTY1PQ0FTJetN58me2L2Kfi4IvObhSoJsn5WVq2TxsSQ0TIv5UHC34bdmpdTgejc2sZ8F5Br+q9clXqC3FczK8wwW53zzHPrjeuXIn9ZYGsO1eVYonxlXs+bNwfzI3ZkD2ymTuFAtLkTv/OBf0ZjU3PtxKOJMvfsZXCO2tNEPIvxRMqsAMEutnbk3IgCnk/GUxidTiKeOrfB67NJmVJnkQhcN4wO4anBIeQEoPytHlvRtvT5/Gadf+g3yhhgAT9J8NUyP7NN1Hvb2fubhStZAbewQj4zlkLWRVAlkN3UEcNrm4O4YX4TlsV8WLS0E03NPlz4hmvQ1NuAjsU9KJLNh7tbUZYPLJnygSc3IH6Q+USAlTeBPBiaFvSgeclcpIfHESIj1lptcv8JRiNkoE54A2LSToJwycwk8xDMZV7w+LyW50NtWq/U20N5LAA2zNZwKGMrN4FueMzp8RoAlc3XTkZjgkNLFRRjZkfQTObuY8dhwJb/SgT+zVu24LOf/QwefuhhpFIpU351ebFYHZSVd/ra0dKIm2+8Dg3OHHY8cb+xUQYbm/D2v/wYwuGoaSuzRTQZyuXQZjcTMFRn9DbnSkTulBZNiZbnzrmUhsXu2QW60wVWqOkxU0gzjVH/i7+WubdgU3BEAbA2awBO5xpTD0s1RXV2T3xSl80qkS1K01RdGkhjmousiNuSeTzcP4HHEzmszxWRYIVo43Zp1ItrvDZc2+zHorADPa1htHc24IJrl6Nz5Vz0rFqIcCyKAsE3PRVHMBJBvlAgI16I+PCYGSALdbUaE4Jsw7lUBm6qVO5gEPls1nhDCBR1vQmxyQop260xrDNdJtulGfCnYjXITU3mB52nqb86UC2Qxbrc8DQ0QDFoZVJw2F0mCIxGi0FVuJBIoN1bMyvwT36gX7/zTuP+lSXrr8vxRXnGHgzhUACXXbwKl3BDdhrPPfRT7mfH6PHg19/1Nwgr+L1QeRaJlo7yeNjJkwiY2A8ySdWOnQsR8PuYFq/HZdzjzrXMKtBVeMflje2mwpkppUQAByteVyiEazp78eru+bi5Zz6u6+o1g2NW7AZWThkribohZuiS6PHUrHMjahOhRrJNsl0xlLzsrXZWRpcf4/E89pRsWFes4NFMCU8lixjnu0Rddlza4MeNUReu7w5jZXMAizui6F7agbmXzMcFt16I+VcsR9uK+Wju7bQ8DshKR7fvhdPhQHxgGKl43ACs2KdYro5rkoI7HDLnqCX4o5Y3g+y3ijRmY8cgTiuReUDuZrLd8gFmUE1TL81KxbxnuZgzDFwvWGKHmYtPG9OGFqgMOcsI2/LYu38/vvyV/8ZPfvITjI+N89Rz2fzOH/GyM7tw9TJce/XlaG3RsvxlrPvhXezwtHApcMc7/hxdvQv4/WQATWecvXzXopHxdBZT3BSMySzUWjt2QjG9Ps9nco2p6rDNkKvadiqixRKmkhmzgvB08tyvjTerQFfVZ1lDM5Y1NqNsqyJCFfgGgqyC4zT5fQiyIgbZ8BW6cX40huu75mJBrJGFUIKfPevFzR1UH85e5ToVKVVKZkBKAcKdBF+l0s0GtDrkwSL2HS0EsUKpSgZcwDpW1MdYyZ7i7yGpRW47VgWduC7mNtuVXREsbolg0co5BOFOzLt4Iby8T9PCLuTGpgiEBQQ7mkyIyGBzAzwEVk1cCLQ2GsYdIOjKm0IrOmgQTrPj8vm8AUTDWgm2Sp86CLnYmKnBFJ0v17eq7LXqPFLyuVQHWdM+9I68UGNq+aGd+Oo3v4nvfu+7ZpmcupycaKBy6aK5uPmGq9Dd2WF+i3hsePin7ESZjxU7Vt/4Biy/+BpTRtpmm4lGA2kaQIsFvAj6SDQEmrVjJyMyb+kamSkO30gJxPHNMMKpiNwVoyEfGoM+fgZqe8+NTD6l4P6z0KimJj6aThBog9R6T9wvTObSJpiNvBZmmyhzteLpp8by8BEEX9UawMZcGbtSRbgqRSwulOD2k0GSaRbjaVTZ0RTIcKfZeaQKVePK5XPZEGFFVFTTFm6qNi5mUobbKEnoKJnFCIF6OqUAJQ4kJ5PITGcwtncAbjLc5iWLMbZ9l5kCHOtsQbx/iN0UpVRBiWnyhYMmlq437EPvhQuwoCWMWztieGIiiS1TOTQSkHvsJQPUNs2eS2XMBAtCsEFYucBVS3Lhc2DHnkHsGRhC68CDbD3qRnkOP2dhNZtVomre1dGCZSwrD9Vgw/iYb6pBYwf2Yd0P7jTfmzrn4ff+7hNwa2qvjp9UvrIcXD7Y3WfHVz1fLJNZElyYvgQ75t/4zT9gX2HDmpOYHCGFLeaTX/mxgTqdL5vBMb3XIeFNjzU54vfe+Sa88fZblQvwUJOLBqn1nTNhR1r7NqtEiWr1h48LuIcXSMwbmJWAK1G1kMthPp0ji9ToP9kjN6fXAR/BVl4A8jeWF4EWknSQNUZzJfQQmBemCugig3Syko0Uq9hB5vsU77WW52/hjeN85W4PcGnYhVua/LiluxFLm4OY39uMjgUtWHrTGnQv7iJDyBJsm+AKyp7LPOUz5Uvb0NOJaGerSWRDF7UEgaoBSFnKuZsNQ8HUxTrkQaF9ZjUFhYrkPTQzDWTr8njYPpzDvRuH8MjTffAMbzRmCJWSrqkD7gvlkImFH8rr5qYGXHflpbhw1QqzjLrEYBGzTTP6Njz4E/Nd1932jvfD5ZJtXcdPJV/PXhmoPmhqrwZOjRZU239UUR6YVmLlSZlEYixdwDjr/uQxtpyJikUINddamwD1eCLzjNYCfDmB7U+PKP7ILJWZeimR69L+pHx2d+NHfduxcWzYxA6YKczjZ/e5F1PtWJvy2bzxBtCU3Fwqh3Q8ZUyuPqo+WvFX/rROrTVGcHa7nLBTXfdNZtBdqGBBPIOOZAFuAm8iU8bG0SyeIFt+KFPEU2S64+zRtSLsJQTgW5t8uLW3AZe2hzCvJ4qGGAG2I4zlN16IcFMQ4Y5GNLQ3Ip/PmkDjAmB/SyO6ly2GlyzAKfcwqbVezYjzGpNIRR4KZLnyJLFAg02FrGHveAbffmgrHlu/C47GFsxd2o5IZdwCjbocVWY6oQhV3WuuuBhXXsZyCWuWVc1Mw+NigwKSneseQz6ZYH5WcPmrfh09vYuknprrT0lewiUvVTRgFeX7NEQCCCnYPfcdzSQglhsKNGB57+UIB8hQa2LBkpju0TfrHMvGu7TnUsxrXcrvYr5HF039VXpi1OjC55TlSlbPXtA9XHbGJ7B2oB+TuRyy+Qp2TE3hF8P91GzPda91cmLsnuwkZAcVeFUInMVMyQQyV+9SyOSRnU6aBqeZXsWk4ifwfIKx7KqlBNV5VrIQ79XGnr43lcW8dAae0RQGDyQMy3w6XsATYsJkp/tYNT0s2WUBJ65vDeG1vTFcSxBe0OrDkjX/f3tfASDXVX99xn3WXbNx1yaN1F2hUEFaKE4LFHcoFHcKfMAfhwKFQqm7t2mbxl03ssm6ze64z3y/c9/MZuObZJPdTfdsXmbmvfvuu+/Kuef+rtVh4oJJqJpeh7qzJ6NsQhXMdosiez1HNpBQ5eAftxayOBywi7LlLDiO/YWEjztF7O4M4pmNnVi+14twiqv2O0RJxGHv3iB3SjORnZujOBCMEjnMZiPmzpqK85YsQGF+jpw6kDDYsmAahEJ+7F63TM7oYHPnYcnVN8l3oR1eH8YIhrngTQBdcnilhadCq/LUQRAmnlw9D1+5/h+YULkgc3LgYEP409f9Cu8692tKDByI/U+LJFLo9gXRJYfHF8icHSr8Z/iTLivIzaJsmWSs4DWVkFZ23M7g0PdEDgRM/pAkNhdxZ4HRpt5GEJHMSRXPyQccysLFv9MRbb1PEltC1DDXNuCeZnTHRW0i3R41+SBPCLkaUczJMWCaI408ue5p9mJbewCrRH0uFQW8NJJCQ0JEtijnKqsBi50mnOfWY3G5C1OqXagpdqO41IWpl4jSyjeL/71qVTCGg1nYJKTLERdUrWyVcbWwPZ0BvFDfg40dCfRySmU8iZh8OopygYAH5o4dWvhVyo0iC+ZfricyaVwNLr3oPFRWlJCHJG65UlbGUQZUcxLVWPfyc6oiTorKvei6W2G1ajbZ4W6u4fAst1TkPOxWkyY6+HfIe6bR3LEX9712N1o8Wr4ZKFT+Surx0LI/4MUt/9IqqkNAzkirFQvdNgtccrgdnKo+lODejcM8Bbku5wPbN4kW0MufNHElcklcnJ0zu7AUE/ILMy6HL8KxOL61rhElOS5cXpWLHUJg6zqCEC7FpISQqjTHOJ6WZMrOLR1JjyMEjEZtsRrVeRVU6+yyE8ua51YjBOJCdjohcFNhroqTWI8fCbcL7R4fek2S2R0uJBIR5BW54DYbUGjSoUDuK5AwmRguSfpeqQjakin0ikr2hFNq+cnaHCsW2/VYL6S9rtWPQsm1qd17sXJDM8I2O0rqaiQzJ9G2ZZdaFJ0z/grH1yJn70uw9u5WayOPYj84AqSyshRTJoyDWXWSyUnV3tZIQT7kp7RldAlEkwY0difQ3u6B5+Xfy/kUckoqcce3f5/J+ydCunKf0SL5x535ffpAM+AbK9aod2xJP4um5LPyTiI8JAOvWcntesQRD23fHXXPQMHbaHZRHQjiZ2V1HkrLpfKXK2a9EzMNXxPO0KG2phKV3DWbkTcMMOxJl3h41zYEuMGhxBmluRZ1aZxfXYcS+9AOARkIoqJWf9YchC0Sx+XlbmwRcl212yNEqMckfQqWXLuy9UY7vdpOvUK4nE0WE3XM6b46aeInggGkOFXXZoY5z6XG1AY7e5GMaOuTWksKEJfmHCc5cO9/+Q9JswUdQtKecByxnBxYXSY1aF0fiqDUaUEJ7cByr1s84GgGEm9nTJ5tMUi4dFjhj6I+rkNUiHjHqxthc3K5QT16WzphkExuFLUd7OzmKyo1UbGPi69krW5vTuwv2FR2SRSXFArZTlRbyWSLGj+VcCDfkmgkLhn/bb1ptHq43LwJwY0PI9q4QflzzQe/gDkLLlTfTwxDR7pZULG/tveveGPfPZJHOAkniYhU6uzxGBxIS0JEhVonRESA3ZSDjy7kxpRkjOGF4Reiw2B2cVkmc/KQVoUcVa5cFHKrmxEAzpzj0nwOUZx6kx5xIV+uoRvlPHAhYDbPI11eacIn1MQD2nEj/oBacjHuDwmZyjW5h818kmzSK6qYs8KEkDnigMqX14y5nPQgajguRGw2wSoiuSrPgYmSDyeHvSjpFiXc0g1/IIY94SRe7w7j5fYwlvkTaJQ4tYq7SUK4U4Rwc8W/8XYTqh1G5Ilf4+dNRO3MKjjzqXTLkeaGmqLEuVWP0WqHo2cruBXjm5lwCUWscrDDZvHZZ+HsuXOQ47arXnNe20+8jCkhQyGgzoAemxpSaOpOSV6Rc3E/wq07JE31cBeWYeq8c1VldnIY2pSRKgYWA5cPlXCwLEulY7UZ5JB8OiiHUSPczLNMRru2R90wxIgg3WpXDi6rGYvJBQUYl5+Hs8vKcXZFpRowPRLAdWh5cHlFNSWSHWlcblEyhRrvKireks/1EUziRjKOkC431+SoB044iEsTnrUN35ZN+Xg4rFYXs1gtaldfll89C7UoUo6A4JAutauEZEK1Dq74ZBWlZQ94MTYex2Rpxo4xCTEk2OHRiy2NHqzoiuKlYBJLRXi0ZJ5VJuFdIMR9Qa4Z5xc5UY4oxlTno2hMgRrPWzqhFPYCUen+TuT76tXEQGb5kZEqg4f+6tYi6Tl75jRccN4iFEpe5SXyJd2og3+S8BwdIvUpNjQmsLtNVF8yG3PSsmivhz6pTZWetegStU4ubb8jCYrvsqTHT50B4wvPl3cRxc+ML++ZnWmmIumEj+xjSLVCZ3KOomxW2bXq3IGgS2UNHlKMCPPCSEdYVOl3NrWgLM+GS8vysLorgE3dITj0KUxEBO6iYsSE4PTCnrH2LpidLiRFGZNcSZ4sjFTLHNNr4rAtyTbsYOPEB25/zi3dLTabRnpSko3SpOWEBe78K94qYjY7HWotBapnV225qGQjol5R2F4fouJnSzQFQ0EuotJEGyPKYYGQ8r5YCp3xJIokL+cZ9NqaxEIWnIzRGge2dPlFNYdRtm8VKnavgkf89giph+NcIyOzjsObBFxIZdy4GowbU6tsr9qKIPuRJWZ+BoVP93Wl0CtMe/DkABJF75r7keiol4o1hU//4G/IL+SUmJOB5CCjFXoLjUmnHkrRJ5LoWrNebb9fPH+W2hyV6A03Y2XjfxCK98LrDWLlmi0SX1SoJ55ZmM/KygsxdVKNit9JhRdiTOEiyftq/lrGFcf/JiQq9Ciwk541VXz6ERla0mWvbUyIgPaeUwWuKcAFOA7O2qcTJN0f1nfCKQx4VVU+1nmC2OgJIcduxjRdEvpch+QcCWEyiWh3jxpSZsl3IdrVo0wIcSExHTvZhPSMJF2jZCUhQ1WQuT27/LE/wegSYpVMnhayNbldfSSrdpNIJpRfjGpTUQ7MZhPCvQEY7aKWe3xq5TBPRFSXwYa6PCvOzbFgfTiBzb4Y0pEY8vLtyJXPEglzgTx/n/izsSusCH3ya3+DUa1pLO8izeWoZKlAPIYeUfPeqLbttSr48ncm8TDfhW/EjpoJ42phk5bH/tK0/0057pTqNp7UC9kmIHWuyvvsGNZ80Nwyj3LoU9dzd0trKIqC8mrc/u0/SCvmwCFlx4/TS7pM7caHn8DOX/9RvulR+bYrMf6j75dv++OM/69dvwXv+fhXhBx55cRKKO9i/F17+YX41pdvkxM0cvG8luey/vLcszsTKn0uGScChtsPqSunF8n6Xw0N6fKRe/e2YMXyzUiw2X0KX5+EXl1bigULpikCziqO04mwEOS31jeiWEjxqpp8rGzzYmNvGHkWPSZzhpo0STnRIBWKIhYOqNW8SJhqwkQ4pmxVVLfu6lJEg2Gkg1G1GLnquTWYlYnCWpCj9qZKePxIRTkdWJu/zq3eDXZRGSnJcNLu4vA02hO5/gOnZqY57MtqUrtaBOS5W6LAlPIcLHGbsVmUwWqPqO1wFGapGHTcsl6eAV8ICZNkIHl2Uf0ylG97vR/ZaGA0sxXJusQnBNwdTcDP1cekQjkTwDxcXizqauoEuKTFoZYfzVw7GEmJhI5eoKmHa0MbMmR7KJg3o70t8L/6Z2WGmn/59bj87R+SlCSBnAxOL+kyL2z72W/Q/OyLqvWWO30y5vzkrszV/VgjpPuuj35RrTN9MuWSaXHtVRfiu1/9hPw6sj8BKYfUuE7Ju6eSc46FISFdjyir555+QxSQEIOoP74+a6v9EX/0IB2cQNpP8YElXH4w+2fd0JbKHRTGT6zCnLmT5Fmn34zNIWN3rdyD0sI8XF6Zg3XeKNa3e+ES0p2mDLtCqqx85Dv/uOsDSZhNNEVccnAPNHt5AdKBCMLSpJeL0HMpRSFSk8MCndOGNMfM9gTErwSSCfFD7lfLN8pbm1x25V8iGoKtgLtPJJAy6WB1OBDxClGLkvZKerTmFqDKocMSlxmr2wPYJGo3T59GhTwn7LSiM56CL5ZAIi6tlKAPc1f8G4aoSDfGfT8w/vku6js/+Fs+w8k4fBKOLiHyODsOs808zenwh7yM2+nAtGmTUVyQqwq8ejGJ4773VX+agaHDb0CLR9JFiQt1UXN+WOgQ2rsCoS3PKjc3feIuTJq9QK3SdXI4vaTL9/bV78Wmu36oWlqTP38biubP1d6/H0LhCOr3NCIk+clBc5fk34TkoxwRG71yzcahk/LuUcl7+dIi46plNg6hFI9C0nrMlXM+yUfS8EJFaQFKi4v6yn1cWldKP0vlpS3fNEwQ2TU0pLtxYz02b2yAw2lGRWWJtJrZeaQpM9pcDPqM+jVoZgG10R0LrRxcG1NbhUjTC1zLgJGqVsOSAsGmCiObIwB4T0eXB2vXbIdDiOnqa8/TnnGawS2p71y+C2VCuldW52FTII7VLb2wp+OYl+9Sc9Qlt6nlEbmqVJLD4/g+cjAG1E4OfHchXnaUsXPNaHcI6ZpU0z8litdWkIeUxEW0vUeZCgwSt/zOCsciCpsjJDjpQcf55wa5zr3PJOmVmuZyjPLdF0lic0KH6WOLsFju3+KLY20wgiKTHiU9XpjZ2Sfh1An5tnkDMLU1wLpMGybGdNMg4RbVp9Lr4KzFqFcMLHpDFB/HYPdI3ATEz95oRAqr3COHKiziVmnHg7wYKvBdnHYrJo4fg+rqKvnNQV5aXuI1la2EMFRw5bsnqENzVwqhuPa+mstjQOLQt+ERRJo2qZj45E//ibycvEGIg9NLukx21sFcdyGbN6Q4CqTlJT+5dILNoFVRwWgcPf4g8kUUcAfhuJBsobQcOvx+NaEhIfmXBFuS45TWgg9OOce49ItoKMpxoMvnBzeiLcxx8S35EDW/7+ldMRSZ9ZhXxbjnqPThgeb/u1zl79MODoymEZJ2ReYoZfNjamxdB117q1r0gomVrt+K1K4dWtNNEiPdtA+xtWuQignR8JynA6Flr0oT2acSWHI4PK+9gnBnq6ptaet0cJEX8TpBslBPP/3Q642wuZyacpXfarsdkp5UKmkhWJUZhQzNdrs2ZIwVidEIE80Mct7ilHtFiXKdWg6Wt7pcolQlg3LnBZoNxI9wR7dmKhBS4zbvtOPqhKRT0pJIKuVL+65ct1ikgjKA6+qyZISl1WGWDJ2MReUeblrpUO4ZZ9xJwu7mjhAmtUhPssePeDAkSjyOEsk5F4wpweLrb8aUCy9DfnmZFGqpBFJxRbiHBUsZe/tSekm/tCgUHYqtFtS5bJhWkINxOVYUWKSaMSYR1zFehgdMkhZTJ4/DeeeejcrKMsmvmm2QZJutWDj0ixVlVBhla3MaO1vjiMQ1xTvwfCdlIchlMKUF4nIjRwg34/2IApOfxEKxxAWSKCT4TsTG1jSe3B5DRPIB26SqgpV3VISZeVflWvJm9k87p1VoWnzzHCtu7Yr2v/ZJUI6V2fXIdXHy/FB1mB0euVOmDQ3pKqi4yygD/h/x0+6ARHerpnKENePtbYi1tZI95VwakfZmRDua1FRZkm60vQOx7g5Eu4VwJDGive1IdrQj1tLC1FE+E1kS2H/m9IIjDWKi6CQXyq80LFJDh8NBadq7EI2E1Mwzs80KzkLTG4Tg5DdVPddhMAhJpqVJzq1w0kKK3J+MyjctfrHZSb9pSkhJnMTkYCZnJg63dMIkioFb8SSlCca9zSgB2CpIC4lGuT26VZ4lFV9IFIRNiJyVQbTXj0hPANxL0izu2AnJkRAJIX21f5oQLm3QhTYdLIYYTOJHYWUlpl10BZbccDOmXnApKiZMkkpFKlRJA7ZIGP1HImIqIsIs7nJFjdUJ6c/JzcdkpwulEnarPFulnPKEKcjq9NRDFXd5Xm11GS68YAnG19UI+WqtJ3VdPrn3nfbJCTAJ7GxLYv1eUWFhCacoeW4jdVyQyEiFveo9CwulBZjx+0xCTW4a00pNsCjG5BY6JuRwI1bJh5yimyt5lhN/cuS7XfK6U/JAnnxn3POaw2pV53PsNsljBrVur5t9Fv3AtJtdZsB4eRZ/DSc4zv2JJG+2qj6NWL+uHlu37EZungtFJXmZDC5HVAiIJGMSNSYZmssGqt1oOdxEfhqEXLhuq8EpzVzmRgl6WpSXUZoWHHZCpZHi+gGiKs0mmzTP0wiFw3h96UZYhBzect35Q2NeiCfwnfVNKC/Iw0VFFqzpDmB9ixCdvNscp9CIkC3X02UnFZNDEZZkQpMQMMk6HQurd0z4RakKLGxKSTOLCjceCIryjIonoqINZrWNeoIjGISwTTluUaZBicckjE6b2k2Y8WykshU1LHIaTlGYJPOIx4+uUBhbwjpMKnbiwtJc1CdSWN0TgU3SYYw0/xk2M2fHyfdZuUk4jUL+Uvn1B9NSIhnxpFQCQuAtO7ejp7UZIa9fPft4shurZBGQ4lca3dIC8EqTMigtFi4bSL9OFeh3SWEBpk2dAIeDA/oleg8Kt/Z8Uf/y+s29abT3iBsqBVUxnGCRkjTseu5n6lnT552Lt3/48+q08vKkIKlyGs0Lozg6hkTpch1ZKU4ISnPY5w3BL2QSCIThjxvgDSbg9wbQK+rLF0rAF4yhp6cXvZ5eePwR9ApXdHf3yuFFtzSNvUIoXZ296OzqQWdnD7piaXR5gmhp70JbWzd27xLVK7nWJjUmlctQgOXTLgRIpUglSgFErqJ9lYqWowJoTuE6C6riEPLl8ooJqlnebORiNEGpcBJyLa6N3ZXzVK+q6HPYGFWvkG0qLoqatjS5Nx4MqOm6KXlkXEhW7eBLM02ckldUs9zMHTrSBnEjflqFzLnBJU05BpMQijBKLBRTCphkahCVERN/CnPMcBr4EofGp1Kuct6kM8OeX4BxZy3CwrfeiDlXXI262fNgy80VN7S9M/Nl7PhHAHua2Wzn+OAyixUTpZKemudErduBXKp0Ub06XQop8YPPPbJPAwPDlZNjx8KzZmLB/FmKcImDCZfh5r92bxIb9sbQ6pF0kYqAJrOTCUNaiQoOu0vAmVesyHaIsuwoTiGGROlyEYznn10uxBrQSIUhOCC38gfPayqKBL3/snw7wK1A7j/Eiwx4L21Ki5fMQkWlZOTM+dOJkJAWJ0eUFxXg4mIb1neGsKKxC4VCIONTQSEg7tAbUzPISFg6IdO0ELBFml3s8IpIhUITgj7OFaeEnKU5ZbRJ80oIMhYIqGFhSVH0jARGp472XHluUgjYIMpUAqAI3yBNMUW6Qqa03SoThoSN6+kmhTQ8gSh2wopalxEXVeRiqxDxJl8ceo82k82c51bjeiejB3Ycz67LQtnZ8ZOSptxXrXn7FvR2tMAnlaNSrrwo7kh8/K5+Hgbq/SSOSLJSZSEoFUh3NK6GA3GNC5J0nwd0zC8HecY8p2V75ZlcT8MucTplQh3KK0oZWrkmz8jkP+WNOkenOvSGk9jbqUckznypuTkpaF5LJdmN3pd+JxUvcNHbP4wll12nXThpjCrd4QTDNwWZ76cN7JSpqiqVTy3zW6Ug2w45zH3f7XarfGaPg91l3Rx0TprfdlEqxSX5mD13IsrLirJ5+7QjLiT3Rk8Urvwc1FkNaA3H0eoLwygFfmxZMRKhkOo4o/JkIBOiZmnX5fRfk82OhJ+TF8yIy3kShiJgKeuGTE8uO9+oUFNynn3/amlGqmFFNlqFpRQ1FbDcQzMGVbHZ5Uacw8XEX25c6ZMWRoeQVmm+E2McZnRLs77RK2QuLZESpzZvPsecQpk+RI+PEyQnHlIJSuWSW1KKsrETUDZmHFwFhYjHIoiGAlrT6xgJpb0R31QHiyj2fIsJxTYTcowmmE06NcSIay0r1a1cHgrmO9VakAeyk2zWjKnIEQVN3/cfGvgcjq4NxoGd7Qm09kicS+VF88egQAJIn1LBHkSbNqi0mjT/AlRU12nXTxqScnppFRkzO04cAW+88YY6tmzZgvr6elilZeN2u1U8HQnccy8sFb55kHfZpb8PP/ywGltPsw03Nq2qqoLFcvR3OBh+v1+FraOjA08++SSqq6uP24/BxpAoXQ379etgZN7+PuzPIvRZu6Kpl6EBh8J8c9UejKmrwiWFVqxq92Nduw+WVAyLpfIJtbVBZ7eJ6oyo2UdMEXaocequSQgwwT2h2juUQqVq50gNTnjQC7GoIWTSctDL/byRq5AlOUGC7y3ka2JhEOVMVcwZaWpMrpA8hzzp3dLUl7CBNmGpCL1ChhuCacybXI5FDhO2eKNYJarcnoxgkk0yv7Sgp1hDyLMwVk8+zViYScMqZVhDCFm279mN3pZGdLW0qjHF7KziuzD9sml42CzLS3LouUSguI+k45B6Dv5EFP4opyVrd/OJGhnrUFNVLoQ7QXXSEP3NCJoTmjdSCCV1aPGk0eWV6+oCcfLv3weJBz463r0T3hX3qbe94fY7MW322RkHJwt59wGsMvaud70LDzzwAMrKyuD1ehGQVtT3v/99fPazn824OBQf+chHFBl+7Wtfy5w5MWQrwSxI5KWlpfjhD3+IKVOm4IILLlCVwcSJEzMujo2lS5fiwx/+MNavX4/XX38d119/vapUxo0bl3ExNDghpcsEaROi4KfP51Ofvb29qkYxsRNoQMgWAu37yRzhsDRXm5vhsDuULXT/Nf6v/R0O3KW2u7sbLpfrgAQfbLCz5XVPGCapvcfl2NDmj6JV1KPZrEeF1ORUZZzQYLRYpeRxWrRkQlFSRLjXK7W9GYlgUBunK+5s7hzEwiH5LiwonpNEOB6XIxG4pxYJkUPCONLBVuBGTJ5lLcpT55NhqmH5luQQsjjMNiF7dpLJ/XEJS0c0hQJRuWOkpdHqi6ChJ4DislwUOW1w6GKoNovck/sHC32xTi8lDVz5BSisGYPKCVORW1qprnN7owSHoh0hHfvAeFN/gFEUsNNkQIHVjAKpMFxSoXAxcPpSJMp6/lmzUF1VlhnOJPcdROTMD+mEDk09aexp0yEo8XKsx5846LG0YPwdiLZuU2fOOu9K5BWWqO+DAtrwjZqN+kj43//+p1Tlpk2b8LGPfUyV8V//+td4//vfr8o1lee9996LHTt2YOzYscrdl7/8ZaUcp03TZnz+5S9/wSOPPIKenh7lhiNfVFxK/PJYsWIF/vSnP2H79u2K/Hgvyf2///2vej5BEmc4fvKTn+CSSy5BUVGR8vfjH/84cnNz8fzzz+Nvf/sbIiJSamtr1TP4vL/+9a9KETscDuXu61//OlavXo3x48djxowZyt/58+crniIR//73v8fmzZuVH7xn48aNePXVV5U6/uMf/yh5gy3yqkHnBq2KP078/e9/Vy/CSB0zZgzq6urUd9Ym2cglDs7I/X8ffC2Lw7k51n18LsOze/fuzJlDcbj7vve97+Giiy5SCczr2eNIONq1o4FNJQWmHZ8ln5wpRhNBqKdLKgrOPuNyjwkhBk7RtaqDdlgTiViIQc9xvXJNZ+IuvOKVhIUqlmN9zVJpWNy010n4hUg5RperkOnl3nRarzpnOKKBnW1qppu8hpoNKMqSJA4hc/rL8bfMwBFvWCqBNKxyno4NdlFJBh3KDaSsE4uDLFQGVguRMOvx++GzoN6kQ255CcYvOQdn33gTZl96JaqmTFN2bs710oZT7T8ORl9ayYdZx+UpzZjgdGGRtDbOnj8TLm5N1C896Qen1dCMwPC1elNYvS+B5l7ajjPpd6qhzEMSLEknmpUGFf3e9VggedKs8IEPfAAhaRWtXLkSv/jFL5SqpQL91re+hU9/+tPYtm2bIj6SMMveLbfcgv/7v/9TYubd7363Iuj+aUMyPv/887Fr1y789Kc/VcqTW/+/7W1vw5e+9CXs3LkTV111lSLbI4FEyfv4jFtvvRV33323CuOll16K3/72t9i6dSvOPfdcvPjii0oZx0WEkKQZRpI2zQyPPfYYFi1ahFWrVuF3v/sdlixZos4/++yzeM973oO77roLr732Gi6//HIVpsHGCZHuzTffrF6ICUE8/vjj6vfZZ5+NDRs2KNXJGoO1D5UkSZEv0dnZqQpDY2Ojivg9e/Yod3xhggSwdu1avPLKK8qmRDBCWSvxXvrR0NCgaiL6ydqS/k2ePFnVfGwWkeDWrVun/GACZMFam/cvW7ZMqXPiHe94B370ox/1ZQxmHIaHmYmg3/ze0tKiakE2TYInsEUQl3TkxAE1MkD85EHVxuFwTIGENPEt+fmqYHAEQ0KaxGoAPglRyDjW44HRblMrNnE0Am2yJFtOluDmkXqbVVSupoJJnhyNwMkUOlGvKVG2XPQ83NathpiZcp3q2UazRY1mSIUiaohapxDt6+sbJLQMm4RReEYttCNn/C1dMEk4CnRUuSeObDzrk1wnuFseENLs2P2QjR9FEYwnHnJfTnEpxs6ZjwXX3oAFb7ke1TNmw5F39OZyn19y0IyhzBQMg3jOJ/S/znO81hVKYuPemOooSyZZPBgfpwesdPksHpwYM9SgTZcgMb7vfe/DP/7xD5x11llKRbIMk1jzJd/eeOONuPrqqxUfsDxNnTpVqUm66Q+q1YULF6pPqubvfve7ivhIkH/+85+VmKPCpj8k94PBdKI7kiTLLgmaflHNkjdIoPSDfjOc5Cmn04n/9//+X1/eI+g/SZfKmhUByzeVNv2nuiWX/OxnP1OEffA7DAZOiHQZ6VSWJDkGtKamBhMmTFABZk3GSLn44osVMfLlmDg33HCD+k7SosLkdUbatddeq2omRjJrz2uuuQbf+MY3MHPmTBURrKEWLFigmhmMxDlz5qjvrJHmzZunEo2Ez1qWkXfnnXeqGopWE7plBO7duxdz587FF77wBRWW8847T5H5v//9b3z+85/vS8zp06erxJw1axZ+8IMfqPN8JtUwM9aFF16ID37wg5lYGBhIHga9EfnVhWobHiY+Z8zkVRVDb+bYYhPbwmr2Dpv4OsmsXCSEA+tJrJxRRk9SoigMNhuZQQ0FSwmBkjiUOUGORIxjcxNCvhYkhUiZFjGvF/FwCMl4UtSTELgwXDIUhc5qkkpASFfUc8rtwItv7MDDr25FQEgmuzg6BSg72DguNx6MoDAgpN1nDz0+8BYuyM246H3lH9j1i+ux50eXYdf3L0P7Q9+VcHOFsiN7zHRQB4dkyXvZcnJRO3MWzrrmeiHh61EnaZtTUqrig0/JquDDgW76X6I7g7yrP67HluYYdrTqEJbvtP1yiOERvBlkkNjleSlO6WaR5C4IQ0e6jGu2/ihqGD9szf7mN79RxEshQ6Ll+f5xzAr/9ttvV+YGlnGOBul/nd9pRsia8mgyKC8vVwKKzyOXEPxk2SThHQy6oymTAuyhhx5CQUGB4hX6QZBg2VIjH/F7f2TDwk+KweLiYqXo6QcrCPpL0NyRk5Ojwk/wmYOJ1//52xMj3SMh+2LnnHMOmpqa1CcJljXKHXfcoVQqFSfBhKHqZJOAqpeESSVaWVmJ2267TdVgNJ4TzAAkTMp/Jshb3/pWpTqpakm62XUWCPpJAzwN6CRSEjCJu6urS5EmOwZop+pve2aifeUrX1HNJzYnvvOd7yjSZpiIiooKpZ4/+tGPKgXN8AwUKlQkDGky0u7KcPKgecEg6amX85yiG+7uUgvUxENhRSycycWbk0J42n1CJ/Kb5gGaD3iNRMYxvXFR7hzpQOKmfVatsSB/agFzZRuW5qpkprinV9QvZ8TlqIVFtvTG8NLeHtQ3d8PusCuyUr3+vE9uIxVwA02jKLBiK+mKJ08kE7KiERV5/53oeuH/IentBBdsT6eS6F37BNoeuEsi4shZMZvxtTDtDwPPc+eKyimzMOuyK3HOTbdg/MJzkFNWro1hFmeMf5U3+C+TR3h3Nh04VXd7K7B1XwLesEa2mgvtfQe70B0OWqiYJzSiYfqrDtAhAFumv/rVr1QZ+NSnPqUEFAXQ008/rTq0WJ5IWllSJHFR9FBtUmRRTLHlSYLtM6tlQL9Yfv7zn//gE5/4hCqPVMUkPgotNvupVlnuSc5ZZNOK5Twr3K644gpVrllGGT66p8mCJg3abSnYGDaaP5555pm+Msv0vOyyy5Tt95///Ce+/e1vK8FH80Q2f5xKzJvUPLikS/ClGAmMSBIkpT1VIsmwfwYmMbJGYY3HCGECUdITVKM03t9zzz3qN++j3Zi1F7/TAJ+t1fqDkcYmC69R+dIPJiKV9Gc+8xlVW9NvqtXWVk431iI52xFI8wibVEzYWCzWR7p8NmvAwsJCrQl/nInDMPvaexETAlVxINLK7BIlwFllwgwWu0uZEtR6EqJWGRcJfsqR8UARAJvaVLZqXQWjATY3t8qRJmAfTwiBi2rk2gq8Ny0KmjZezlhLSYaleSImBbsjmsajK3dg0/YmaTsm4czPRVQyJ/00MkzyfK7/wK2AeL6sd69QwsmQTxqx7kb0bHxO3pFaVN5DvGMscgQGD2rU4wHjUTvk5WkLke/saCwbPwGzL74CC264HhMvOB/FdWPk3Vl9aOFnZcSvpIPGzjQ2C9l6Alr8qgtDBK5CwNmWHC1Bc5S5nyg4XWA+Z8fRv/71L2UHZTlha5Bkx9EJFFKf/OQnFeFRCbKMUP3SJEdRQuFC9+woo921v4mAafW5z31OlUu2LmnK+8Mf/qCe9+CDD6ryR6VMYqYQ4zPZOiWP8FnZDjCKJrZg2dIl+bJ1TMVMsmXHXlY83XTTTapFTNVL4ceOMpocWL6pxins2NFGIUezCZ9FTqLfLN8s73Tfn/wHA+bZ72M5ltg4QXB4CSOXPYCTJk1SkUxVSEM0azJGPo3XjGDWNkxENk9IrqwVmVC05zByaAume9aSbDK85S1vUQTHWpcvTxXMCGRPIyOYpgkSNoeU8NmsqegHiZpNlPe+973KNED7Mm04NPDT3kQbLTMNa0JmFtp0GA76QbKlEZ8HzRIMN8PGBCF5k9AZHpIxM8VA4Zfm/p1v1KOipAhX1uZjsz+OVY3dcFoNmJIMiQp1CiFyZWshBSE+aUVz6j5nkQgr8YtQhTyPSaWzGJUJgJMUYOZU4Jga2cBxvGr4l0WbdcZ7LE4Hwl6fkKdDMhLQ2tKGZds86BUiTkuYGL/u4kIh1iCi3hCKJ9WiZFIlqs06XFZThOXdPjSFo5i56n7MueRaCVSmEjhu6OAXwu3439cUuWTBN7PUzoFz3o1wzzhPjSM+WbDAMJ7YKaZoVCo1PsfT2oKmrVvUGOfcyXXgUplNXRG0dcQQDmn1lppRNgS8q4xJOiMCGx5DrGmdtFSs+OLd/xbiHUS1q6aIc6fcE0OWJg4WHP3PH+n74cDrh/NroO6P5Hag7gaCk7n3yDheeXEQSDysfYhs4CjpeZ6/Fy9ejLy8PEVaNBewxiKR0U1WpdIdm/r0hzUNa0PaVtlkoTqlX/1NAQd/5/2MnOxzScy067LZQmLnGEOOrOBzOWyENSDNHrQ9Z/1mrcbalSRMFc1mB0maSpzX6Y7P4Cefc9yQMNJcwI4fDuvi71RcWzyGi4pr04OlOSz+GzLvxzUopA0Oq5Cio6JULXDDbGzmamVCDrTxxrs9SPj8mjKVe2GSOCARi5plB1u41yc8kkZvtxfPL92Cx1fsQ3tHNxCJqplt1Jcct0v7YdHEMaI4Re9RXYvaCooC3tcbh3Xj6zDw3VWoThDMGuZDe+PTVhvMlXORDvhOzv9+YDoREkPydkKi6juQW1qBcedfgPJFc5SCN5r0qC2z4+yZuVg4x4VxVRbk2LTVz7J+nC5I0VbEm2bFK7BIvHCHkOEElrNsGe+P/ueP9P1wONy143F/JLcDdTcQnMy9R4bEi2SwE85htJfQvkPFmSWj9vZ21bynnCc4tIOjBdgEoFteo8KiTYjNdTZR6IZ+kIh5P5sN7KyjwZ7uaGdiM4PXOdKB19hMoH2YQ1t4PhsOfqehnXZaXuMziKy5gBHJsJBM6YbvwPsIhpO2X1YUPAj+plsSMO1UNJnQCH88CIQ4OWIXJk6fgPPdeqxs7sHa5l44JcrmFHHGTxpxj08VeO4SQdOC6sySsDqry8G1bqMdvUhybK3EDS2Pas1aifNUnOsiaGMh1Uy0ZApGIeiEkG1cSL0ZVrz6ynpEo5y1ZhLC1sHhcitzg1+ULxM/t6qUOQxWlw3lY8tRlWPCGFFbr7V2YMob/0JRQS5mXHa1sNeJKVGGLRH0Y99Pr1Sz8wwkfHkw14xwz38PzAXlyJ1/1aCTHZ+rvJS48kd6EIqy00Z+sizxS6ZMSTHgCTmlk/oojQ5PFK0dYQTC1OUUByevwI8GPp/p0vPqn5D0tSOnpBKf+t4fTji+D4uTVLqjGDycFOmOYmAIxhL4/qYWFOa7cXmZE2s7/NjYHoBdn1KkyynAMWnGp2MRJLkSmFQcSSlwJrcDFocoW/kLd3Yrm2UsFNYWwxE1y86xBLfmEUVMpasW0yFNuOzYvHUvNtW3IyIKO+YPCcmJf6J+axdwk0ALmtZvEZXLabc6NSSoavYUUcgx2PJsqKsoRioURHzzGxjTtBa5JUVCutcKCZzYeFVFaTqpGJf9G54nf4GUasNLJcHK7Kx3wTp+Ppx1MzJseHT0ESn9OELO1XwhkUm8RUPwh6XCSmlrRWj3HyXL87rcy05Jrz+O3t4IWrriCIX57uJzlqw15uYdJw9JI106ia7nfyV5IIyqCVPx/i/+eJR0z1AMVqtuFEcBVSlHK8SF/Gi3pJrlspMcHsbxuDQJ2PJypBxLcnAihFwnkuEIgqLaSbjs2IqLWlc2X/luK8xXM87YKccdJJTZQVoF7b1+PL2yAW9sbERSb1LmhbJZk1E6aZzaPdhBZW3QIeyTpqzwRjgSVgTTuX2PPMsjxG5Bc5cXLd4oKto3i5uTJxblg5BK3sIbMOazD6Ne91uEyz8Ix9xPwVY7S46ZivyPBY3m9KLug0JOUe3k4SDxmEwn0B3ogjfU0Ue4xDE1hlxnZxbHzLrsOlRX2LFgRg4WzspDVZlZWnBmIUNJJ/FmMPWKeqe41vGUW1Ai+eLUqutRDB1GSfc0gEOwokEuaiNkKuWUpEmy1Pa+ksalfOeGCjohT9piaX7hpAEuwai26BZ3tPdCFDOHfOm4wpjTCUtJgdramhMqImk9nlm3F0+8ugN7d+5B6YxJMNg5s80Ms3zy/nBXD5rWbEPEH0TZ5DrY3C51cElHmlnonp14VNMFrZtg4TKRg8ArbD4zoxm4xmTkdbR2TsXjz3wJW3ZUwO7YDnNK1LqEn38cGke1yVXJeCdJn3fTD5pRgltWwrfm2UNUIBWsepJ8+CNedHpbEY0HJPg8f+IgsdJPq1WP8TVOzJ/hxNyZDtRVWWA2ywWSL9Wx9vgTAqM44fdk8gOQX1qlDRkcNFC9828UwwGDmbKjOAa4OwQJmJ1n7pJCtfRikl3n0cz0WlXoMkmSKXR6zjCTz3goohUcIU/eD7MQUSyNYDiG19fvxYOvbYVr6lRxkVQL5dhzcxQRUdG2b6pH184GRew9TW1o3bxTrfPAhcUd4pZrG9B/bgGUEDVN23B560bVFaU2+zxpyBsIiUYa/w9ovA+3fuRmfPGb5+O8c+5GsvMZxDd8BKl9f0XC8ywS3S8A3auQDO6R2zg8j0PYAkh4l6F307PixyokfN3indYayILvGktG0eFtgz/kkaiUexlxg6BGlaIV9asNT0sjx2FCbZUd58wrwNmzclFVYobTwunVEldk6OMEq5N4105+Uc+qHDOBjxs0MEShsFcL/yiGHGc46bKwDIM6XgUjrRYA52aTzPzcWofb8SREzQZbRZX1eKFPJDUFzJEMQnlGh02pKNprWXAMcp4TChLhMCI9IaxZX48Hn9+ExrAUWm9YrXBLhcj1A/YuW42o36/sxVz6kfuemah8TSaUTKqDo8CN3IpidLe0C/n6YNKLiuR+aS4HyvzNsMW1WT6DAcZ+OtQGtDwvOU7eJ26SCsMs7yRhZU0gLlLdcq3hHugb/oxUw8+h2/YVJDd8GKkNtyG58VPArl/D6FsGnb0AtpppSGeGU9EPxmdPoAseXzsSqYicPL701lSy9qmU9gDA9KSKttn1mDDGhrNmuTB3qhNVZdx6RvwggYp/PI4GmkvSEQ/8jZvEbVotQFQ9drKEY/AIUosNTbGPYuhxxpKuGg6VSMMbEZISdTmkkMzOvcaY+2lKiHmDCHb2KG7gYuQ67r1FewLVUjKpTAF6qxXW4mJlqwXvZQGWgk7srN+Hf933ElZsaEBC7uX+aDnVZUKcOhRPGad1zGVmplnEH3aUWd1OcLMHdp51727EvjVbUTZ5HLhzsJtrDZNwhADTnH226w0Jq+F4ueuIoNkg4lknFYZ4KGqQ3iqvsxWinFNn+x7I4XESJ6koUrEOiQ8JS/ElsM+7DQXn3gDXxIUwpLWsG5LKoVPUbTgmLQY1wFlOZr05BkhCGuFKFZc0S6XDTSe130cjqGw6SGTxh/yTikTIOtdtwsQaExbOzcecKTmoFgUsSSDBUQ+itwd9ylvHI+hd9QAMcS63ycXLPwAzhwsOOvjQUQwHnFGjF7hwny8MrNgZxMamuBCuKEopFw5jCi6HAfPGODC32gyrEE1W3ZwOcHLEN9c0oKq4EJdX56i1dFc198KhT2Gm0wCT1SUFLgFzjlvNJEsEw1L4k3AWFCAa8CPm6ZZCbUCnL4jlm5vR1huBszAPIY9HNbM5pdaW44LZboOjpFBUsx+9LW2KULnXXJw7SAgR+zu6YeL4T7NBreBVNmM8dr68Su0cEezpRUFtJabkR1G37nGNKBR0yCs92dELOkT2PgDs/adS74eLe6UIraUw2Mciba+TMBZCZ8qRCskl3/PFEypaLVT0j7P2PMFOxEXZnnAW5jOlcgn3FiHYValIT2dIwVHYAptbyF5IXPP6xPyn96mUHsFgAk0dEXh641I58B2kUpEKJtW1G74Nj0ul6VdbDi285G249Ib3yn2cwjy4xTIUC8OZV6WePYohRLrzzCLdTU1BPLDGJxmMBZND4zUpzxfUizJK6hIocprwzrPzUZF74OBzujmUCgYH/nAU31nXqDamvKzKjXUdfnVYkcRMG4uByCFO/ZTrXH8h4guIkuNUYJob5P5AGDvaQ1i/aa/4xinTKUWyUa63YOWW6qIlLWbkFhWpVcSCzZ1IyP1cx4GLnNMGnKBNWJrhVJsGpw02Udi2ojzVkRbs7kFIlHfhhFqc3fAo7N6uDNkQg0C6ErGJphcR3X43LMrWLCf75zr5rctfAt2Yj6vOpLSkk6IGcUMzaTZtmFX53R/pRSjcq3U+8spxZmGaJKBLSoVWAF+nqNu4VASZa5r25ipsEbiL90pFpq1Ip6lvKtusy2NDrZehAp+twnTo6omix5vC7hUvo3fT83QEhzsfV7zzI5h81jlqgopye5zvdCyMku7wwZmRAkImG5rC+NcbQU62UhmWeZatVZV35eAMJe6f1eVP4k8vdqHdK805UcadwRg2NwexpTkgyonTXAffFKGKsWryq8BJmDgJQqJeMYoUZVG5XHSc9tZIb69ayJzjdmOxKNZvb8VDz23Glr2dlE2qqc33ifo5GkIbEkZ7LUmV6q9r2254OzrV3mNWp0MVYB6063LIGEm67uw5SCdSajaazWZXCplEn+NpgLOXEyY0ihg00HyQN6mv6X4oJM4NXEaQ8R9XccKJIlpH3v7QRJJxdPmaEYpwm3LxU6Ut/xs4SISJuBWe5gnSGqhDKqatq6sInX7JP6rMVMwGb/NE9DRPktaHtmKWUHHGl4FB67iiySPrfwr5eRa4Yw3o3fyCGqHiysnH+7/0E0ydt1gqWuZRhuH43mkUIwfhljVnAumm0RtJ4sFVPVJQY2p667EQFsK5b0UQT20M4edPduOe1/34+7IAfvpkB57fGhISzDgcJCjiYAcSbbNCkhxzy1lnNrdT2XDZQRbzB9R43JSEjUqwyR/H/17eis0tXlEpCc3OJxc4404tes6pv+JflKMORBHTv44de2C0i34WEuZauhwaRqVLkwXJlqTPBXA6tuxEJBBALBBCx+696N7ViHg4jgVFMaE9IfJTUOgNjipYnLVkNFJp5mwWogjD+4TUJH76kbJGdBJXQkY9gU54hHATXGf4OMLHuOR/yu+0SSqjanQ3TEE8yIkCR65g0xITrCRiQRe6GibB30HzA92LX8rT44XcJ3kgGY3gjQf+o/zS6414xye+ifzCkn5vfSpwan0ntBTR0nb/X/Y8Ib9HKxOE/X6Wr5EfE0+s78XSeo715K8BvA6beykp6CRCaTKm+jUZWazeMsuFxeNd2olBgC8cwbdWNaCqrAiXlTuxoTeCFQ2dKHA7MDEdFIEndR/DJEe7N4plm/YgKAQRFtVrd7lF/QaQNgvZ6gyIxWNwShM92N0rRGpGMhJTgtldkAd/d4/qhKPi5dA0e55b/aaZgWNwTXJ/oEfuE9JWW7QLOdtdTkSCYVTnpvDBJTY0vLBc4oRjJ7LxePLmBQmE8jPhWYNkww9hTHML/gMJL21ywzz9V1Jpkhy1a3yvcMwPX1DUP0N0AlmVKaxmpnmL4e+sFG9IwLrj9ks1y41xOIuaYHN1y5kjE/bhoJ4p+W3T049j26svIaFLYckV78Ylb7tZrgiO/9WOAzqE4iHJN6fGvMDZk3vbOuXwoLHdi+ZuH3qlFcXtpJw2K8rynaipKEBNaT7GV5XBJK2+Ny+4YewIIV3V3JRjV0cca/Zyjdk46kptmFFlwa+f9aAnyNdQDVLthqOCaoU1L8kgUyPLb64JkBQyzrUDn7uiWHVCDUaHmz8Sx7c3NKM8z4XLK1xY3xnA2o4ArFLw5rksorp8iBjteO2NLWiLCkFIU9/mdCibZczHFcSM4DbrjsI8BIRsTTaLqFsuBaltHR7s9cLqtAvZJhCXZ1ldDnEviSv3F04YoxbZ6di6C0b55HhcKmGD1QST+BsTd4yPmxdbMc6Rwp6XlimCHEzSJeGwrCd7NyC16/vyVXXpHwDOxjPO/K240xafjici6A175DOs3oO+HE9W1dJNlGrIBX/7GFH8XGhI/VOgX31pK5/hiE+FyWZ1y7WDCZU37n+20RqCu7gRJvnU3A4sXMl4HA/9+C6kJC0tDjc++YO/KPOOeJJxcaogpBsT0h0kmy7fmSEOSOvoqTfWYfWOZuxrlYpIKkz2peyPj2xsi8KX/BoNS+VenIvZE6vx1osXINdplUtaJfjmQXwQUuA0gVte//ONbvx5aQ827Q1iU3Mcj6wK4NfPcapnJpEHnHYkXCk84n5KrRUuqwEOuxFTKx3sz0JPBNiwL4LuSJZ6spnoxMACbnPaRMBxARV5gPzmOricbx9LpKUS6cUDz6zF3t6QkGYEFrdTLR6eX1Gqhn3Z8nOkkMr9cp8zV9SrqNgcIUKzkCi35uFkiIhkaK69QDdc9EbbSwzKVhv1B6VZm5lCzEVx5Ipa4UxUSF5tJSrzDZhcZlXK8lSAFRprEEO4Ub5LETtMdOrSotjVDLIUfKFOdAXaEE9p02KZVsdDuBrS6GoqRmfDeCTi8t7ybv1fj79Z6XKK8LJl/8Qf//pRtLRzm6bDPYcB4AdvkmITcWDf5io072bxGWARkgfuXLNC2xpffs6/+FpYrHaqHu36iEEawXgS/3txDT72k3vx8Ctb0NjGXRcMtJwp1WszGZAn+S9PSNUuLTSOxFHrP+e40e6P4OHXNuADd/4af3n0VTWyR4vcNw9GhNJNCTm9uDWEJ7eEYUpzm5rBgUFqZrfNgKAQEhdksVsMkgniKvNQwOj1KVTmGnHJjFyMKzad8NRMbyCMb29swriqcpyXa8JWbwgrW70wma3Y8/p6hOVZiWAE7tJC+Fo64CopRKCzGxUzp6pRCL59rYqw/Z5eKagWRAJBuMqLGTHKzMCxuEGvT5q9GllznQdnQS6SUsBDYVFlebmihn1CxklxIwo601Fnk/N5EqZLi7sxuTiNmPi750WaF9hmyGIQzAviB7Vz92vrkWP/qXbmIIbn85ITvoceDhCQd+0fghMBSbW1vhIt9TXIyU/BnU9Fz6GCUuWoiol74r2Cl5f+AzVjZmLhgnfD6chT145YJCT9U/EUtm3ahob6Ziy6wobxc1l5Hj2smm0aeOr/fgFvS4vkNT0+9cM/SroUaXnqFBdBPj8oSteRWyVpe2J5mOA6IfXNHvz+gRfR0hOUd2IrUQeXzYQZ4yowf3ItSnMdyHHZlAmL+ZP9CJ09XnRJnl+3px2bdjVJC4YTfCJqi6nCPCc+/s7L5P5KCeeJh22kwLPyHye2BfupBrOg1kxhVmWTP4WHVgcRi53oItqHh7IZCkHRpssFRrhmuBpgL9Az/SUT+KLAmoYwbOYUqvItKgMfL7jM4jJfAhZ9GhNz7YiR1O02pKxGWIpyYbZY4SguQNQXhEOI0O/pgSXXRdmAokl16GlslhrCoDq+qJTzqsvVhApu1RMV0uUeaxzFQBOE2WbROptEjVA10g13A1aQc7T3Mk55nZ1sBdYULp2sFUWSdG9DcybWs9ApU0fJuIly8iTIQeKy68VOeLf2wjWGY2DlKeKd2odM4iXQPR6B0umZ557Ec/rBXRCQFkIYXS0u+Hs4Gy8Og4mblG7FI099Dx1dzbjsio9jytRLYT7C9uRKmTOMEv59QhgrX1kl8evHBdfZUDONhHtgbB0W4off042Nzz4hXyUfTRSSv+gtPK3i+lSDcR1PxmG25sjzjv+JfDsq8lc37sTP7nsJgWBYVRxuhxVvP28mPnTNIswbV4USIVyriAK1rT3zit4g8W2C2+lEsZDrpPJcLJxWh1wh5bZeKc+SFYOBAF5atR1utw1jK0tV/JyeWBka2CpmDE/SJeEm5P8WTxhrmyLY0BLD7nZRcINTFg/Agcl7uAekRY3osL0jhdoCPQqcpKfjq5HDQoZLu0JQ05PkieVOM8bkWFFht8AhTTGLELGt0K0I0+i0IRGSTE0SFTXKnYKDHNUgJMkRDDQ31Cyah4jHi5AoCE42SEplxJ0k1ALoQhAGdpLJfVzC0SJ+UtVyoXaW8uysMFXihdQvmqJDVS6vSeV2ikhX2cvlr+v1feheZoZ3R7FUIA6EWorQsW4smpdOQufOMcg9rxxc9lGrcE8e1GE2dwjFNZ1SsSbQsS8fPd3NQrh34vzzP4hzFt4Mhy0P3Aj0SI9k2nu6fFj+8gq0Nreg5rw61F02FeY8t1SiIRj0XBTowFx0CISgdq9Zjo5d9SoOF131LlRWjz0o7506kHQTyYSQrlueeQJPTcfx7Ood+ONjK6RyF+Ej/i2cUoM7rl+MiVUlKo4Y14xCEq76k3N8ktokVD5ZaRlNZpiMBhS7rTh7SjUikv+omDk0csPWBpikLEwYU67uOZMxzEhXajnJwAlp+z24phsPrwliV1sMLd3sNMo4GQKoDCRNyM5gGvNqDz+j6sgQ0paMaJJPn9mC5rQUQG8UflGndpMeVZIR6yQTFhh1MIty4CiDfGY8q0HNw2/dsUdIz6V1pBXlw5zjUtvy0Lzga+1AQWWZ6kijis2Rc6FeH7gdO5ePjAh5q3GpCW2EA88zPOxIo98OWwo3zM8VTkipgsLOuZ49Ter7/ug+edJlfFExdr+6D8FWH+JBG0LNBfA25iHSLe8WtqnKJOfCEnE9uAmtkopmpGIP3OV+rFy1GnnOCairvBo2GxWs5q4/VPrKEQlFsXHlFmxeuwnFk0sx7boZyKnOlXeRVlHaDF+S5ggLrPqIFodpmi8ODT9HkGx69klJmx7l75U3fwJ2qy1z9dSD7xMn6Vq4YP7A864yHkiar6tvwf89+KoUz4TaW+4dF83HdedNFw0huVpeN+slyTLavBbB136L6K4XEVz+EEKrH0V85zKYp1ygnk2zg9p0U5T3xOpiFIjq3droUZ2M63Y0obokD9WlBfs9PQMxzIwonDWWwiNrvVjVQCLQiiA7fgZeFHlX9sjgMKcGgmzh47NJWs3dcXhDmab6gMGMpsf55Tn4aKkDtxZaMDnPBl88jbVJHV4VlbpR/DRaTJibb1WjG2bnmzBjfAUqawsxW5puFTPrMGbxbGVGsElTrbepFVEPt7jRKVLmgjjsPOO4XU6IUMrW5YQ9s0sHVzezC1nHw2G16A0JjuaKC6Y6YFTK8jgj5gTAuEyG1XAZ+SEHeywlUvlTqgEJu1yXcwNP52NApZ18yjMkmtEdqUCboQrpvCD8TWZ07waa9ljg8xi1SRviXiMkqfQlznZsrMdLj72CnRu70dVcgvREG7zRgDJ1KbfqIUZ4hHgbouMkPYvkLdTLaM/uh3gsgu6WRvU9r6waeXkk7mFW9A4DvkqHN4jfPPCyMr+lpPK69fI5uHR2nSIO2r75qqp0qk+puL3NiO1bJcdqxHauQKx+OaL1K8W9uBL3PEjODhEStGefNbEK77l8LgxWyZcSg7/6z4to7vSoZ5+pGHYp3+tPYsUeUQ5plYVPCKRrZoD9YDfOweeODVV+5OCEYX4n3XYHj5d0yS96lcG4IE252YBrc834YJ4Jlwj3FTtMaBTf18q1lXoDGoV4CiwWLM614pLafMwqzsHECaUorcxB9dQqmBwGOMsK0b5jFxwlBaJezEJY2qI1XMSc2/y4pFAnkklYc11qqyH28+j0RiFcC2LBIKx2O3LdFswV1a5GFpxiMA65KExKKhhV8OR3zmXlmfjVsqDOkhludHxJdETwtUiNvUKKTdEx6EoVCmFqT4z4jdj5qhF7V4iybzSidZ8FoaBUYRKU5n2teOmJ17BlZSOa6t1o3+OSvGNAaWEBenwBNLe2q8zAt2AHL98nIa2XtkQpmmM1CMHJ9toB8La2qhmBZKia8Vx+k5XN8eejE4bEfeZL5nNgYAV5z5PLEOBYcPl+2bzxWDJjgqpc+JvgJ30nqarF3+U7U9Kg3pLqnzHF3oUDwQrOwaVO5frsseW4avE0pCX/c/TO7+5/oc//MxHDjnR3dnCqLGcmHQ/UfCOBGpAFN/wo0HXK0a0d6EIReuBIsyNKsgBLlzjU9Eo2Q+4HMwQPrnTlsOowudoJixqOpaPYHBSYRZ1OMabxNlH2H3UaMEcIwWhIY5s8dZWovhVy9Jj1GOM2YEmOCUtEBU+vLsCYmkLUTCrH5IvmwuKwIL+6TMg2gaLJ45BTU6NGLpicNjW0TG3tQ2XLcb5S6LkGA+3CMVG888qT8k5kj0PffzCgxaGkhxzxRAweX4uaPaeuSYGyL8iDtYTD1DKFy5oh38Okx8DBRGUFl0Iw7cDe6Hi0J8oR56iFTCHeP041CW+zAZueS6Jto1Sme8xY9vJOrHppI5q3m9C03Y1wQBvEzxDlOGyoq6lAdUWZvJM6rb0jP9Uf4PE78frGWnm+upyJAx0694mspgsh2ppJMzPX1MdpAUlP+zw+bNrditXbm9X32rI8vO28GdBn2JPvtS+kwwafDut6dXi9LYXlbUk0+bPDLI8Nmhq4BghVwSWzx2BKbYXcK/7taMaKzbvExfGGeGRgmJGuthxjdgTBQMFMbtTHMEa/EzN1azFZtwV1up0Yg12ZYzdqddsxRb8eU3QbUZveC5Ma5sOcf2juZy3LwyAFs9BlQTQWVz2tVmNCfmvruJ4sGPEcM0B7n8ugxyKLHjcJ8b5dnjtBwhaQArpdCHGlHJslSiJC/jOcoo7L3Ti7zIEJpS6Mm1qBimlVGH/+LCQDXpH4UbhK8vkCai0HKmBONc6vKldmB6vTCWdRLuyiMObXUb8TpypjM16T8IV70OlvQ0zClo5p6aqzG6EvsMJUw4kQ2vP18n4cCXAyoWGcxiTVmmJ1aI7WIJKSd5S40MwH8k+IQi/fWbn1PYcqdTuw9ZUUura50FKfD28XF46XsKomgrhUDKlNo+Fec0rdZViTn/F4Cnt2Aj37fFg0cYfcp13Lortxn8qjHCVTXTdJeXlSL3oCUEuHHiavHwl818deWy93UK2mcJNU8pQ0WUplZbm814BHOvR4tN2A/9XHcf+OJNa0Kx2s3BwLjDvuAq7WExG/r7tgtpyj+QF48PmVSKoyeuZh2JFusdukMvbAIAVBlE0BOjEd61CY9sCok0Rn4eJ6sFQ4Ugipboxpk3yaYRPdU4Q2TNOtgx3cJ+zADEK3PPJdRowttcMpZNDs0batmSC/HZaBZ9zjhUkIuNqgw8Wicm+VcJ8VjMPhj2JXIIG1QWBpJIHdct1lMWJurhkXlOVgYU0eaqvzUFJXDFeeDaV15Wpx8nAoKITrhkGURELekSTMhW3y68bi4nMqYTtCY+IgvjgusBDxj6aUUCyAjt5WaZr2SNSRwIRQk1KAxY2l3K4mdZjKOUwrE+NS6SiSk+/HDfEzJeTZkShCY2gCgiluU39owee7TdymwyyfT832yz6LYUqFjIh7ipBIHCbv6ZPwdHnEnVZc6J4ZgusPb1zZhdef2IUi/W6U5eyGxSaVi3JFyDchFE9zk4RP1L3TpfY/O93giBCjxdkX/oGgvbtXKV2+68Tackwol8q8HzRtr8UgfeXqaOp9Ce2SgrouEa/yhjikyJAf2k2MQ/nOnb3pskIq4mkTpKUg+WVbQzv2tnTS0ZmFdKf26sMFbM6PKzaglHuTDwAsRAbRNtXYKz9oRRJV0dmFlqZmNDU3o7m5UY4mdTTye1MjfD7OnpH70gmM0e0Szt1fRDRoOSZfVCU7TXa3xhCMisq1AJfP4AyiU1378vmSESVl5rlE/Uo43mtKYWqPB8EOP3ZFk1ieTOONuA7t4qbQpMOFRQ5cVpuHeeOLMWZsAWrnVGPaJXNROqkCeeWFKKqqgr0gV8WP023HDJdX4k4qrIPfXXv1bNE5IdDO6Ql0wBvsFqWSFC/lTzzkozhmmDCMcYrilJaEKHba7vlYg1Uq2xN8Mv33RFzY1lUEqacUwanM0Q98V6Oc821vRNS7V6pjDsrWwGu0RloMDrgtZZmzGliB502PYPvabYgxIwhIMM27A3jqvo1wxFuwcFYMZkNQ/BGFnNy/ADmbyrGwH2GvV71jccUYufnAcJ1qsHLRm92wWHJVGAYGyV9b9kqM0PacxvmzxsuZA6lCSylN0/I9mXn4dwgkzpNSaYVTQUSSEQSTfu3gou0Z/6l2GS2JlB7nz6yV9GP5BN5YT7PMGQZd0fAiXSaZyWDC9WfnwiZNY+4HxupR1ZKsHQ8CM7+JiklSTEt2+c1xrxbbYQ+r1QZjZrEN+mczs8l4cBRoYyXq20RhdgjhStORU8RvXeRGkZPjWY/X3nziMOikGW7Qo8RmxqWVBbhDVO1ViTjKhXyb273Y3JPAG+E0loVTCEgE1Il8XeQwYpGo4AmlNtRMKkXlzArkiEIvnlyN3MpSFHt3KrXPhuJgQUsfPfxRPzp8TYjERZYzHqWCkiSiC/U8fVwvaZaCrZqdTZJWBWa5rqUxROmqVNRuOC6QGFP6NHwNexDctQc9PTHEEvIs5ot++YYNX/PCyXBdPhVjb0rAZBPiJTlnVDEJoMBVC6tZlLKEy+BOofK8CEqnWjBryWyY7Gb0dkXx3MM70bVjN85fqEdFRTY/SIvKlo+1++rkmdoZWsl8nd0qPzEOCivrYODoh9MBCUNKb5TKrAAGNfFjfzwMBFtFaUqMqEWWZtSVaidPAGlJl3gqiid8D+Ex/39wX/e9+EP7Pfh9+1/hTXIhIw1cZJ8CaHxVMWxWLoiUxIadTVp26HcwjUYyhu3Sjhys//FLcjGr3Ig8ux42UXNW4Up+9j9EHMEunxWi5LIZPScnB0VF+SgszJPP/Qd/5+fnqQVi6JbkW1kpzWxj+hA/bXI4zDqUuo24cJIVd1xWgOqC/QpmqMDEGi/E/5ZyF+4osmNRyAtzTxB7GjuxwhMVAk5hi8iEqGTMyeJ2iU2a0iKZx5Y4UJhvQfnEXFS3r0W4XYiAqpMRQcLLFsgB5udsJZg9oskYOn0t8IW7FZWzYGiFI3OI9/zNacgkW2OdVT1Rn2cmVyk3OqtBqbJMSI4TfI4OcXknS6AHpoat6G1ogsefQDLJMDLMmsuc916M3PdcguJFYcz+VgDTP+ZD6aI48iYkkTM+hsKJacy7dgqu/e54XP+TKVj47imYvEBbC3jFs43YtrQeZ02OYMokzk4Uf4W04zoTIpax2NmQIxWkNImz8ShR29vZqgxcjI7C0kpWPZmLgwtVufAdM++Z1nMn6FypeI5fJFDh7mnpUGaB8vJ8KRMnIzS0yMjaefn2wsMqnMwTKtwCjrKhKw5hrCwtFEcGNDR3YKtvG7YFdsixHVvlc3twp6hmbU2OkYgRsLSj1JLS/OSWJ1J0Muf6QaQE15Hd1yBNoWQKPR4vPNIMj0aifYl5MEi6eXl5yM3LVQuJV9fWHt6tLgGjJDw7u4YzmJkbewPY2B3ClrQBMZcTzhwTHKKoCiRpy0U10AxdHxMC2LYGhS8+IOJO4tNiVjsSuypL4MzPVWTJcby7nl+mCsX+THHo2gvZ+GKT3B/sRUgUrrLbHgl0njSg6TMr1aSPsu+dJWSbVAKz9fOrkQoJ4b2tAo5LyjTRebxZUvzvCLjw2oYoFpbbMW5CBXbVNwoJdkFXWgNbYT4cdqG+TAftwVme78NXYnNXe7N+buRj06outO5qwYyJeuQX8DxbS1RwaezdG0FbhxPlli1wtz+EuoVLUHHWEsmaNJsYsPb5x7BzqTbO9d2f+T7GT5slEXec7zdAULQz2DqTHUazQ85k3+b4EIzG8aHv/038MmDhjDp88PI5EuSD/JJWxH+b9NiutqbTw9dOMtFjtvcJXNL+R1VqYlx5TPxKOB1YdvuHxL8k/IkEAtGY6NgUbi25GXlGrmss2UMqZJ/Pp1ot9z+/Fq+s3anMRAs+zNYrn804Yzrp8c6K61FuK++XWiMJw3KVMUau1sRnJJskg1sMOm7rdcjBHWxN8gZUG6zRC6RwjR8/DlOnTcH4CeNQXVOFqupK1I6pUb95vm7sGOQJybCQscnLSvzwfpskcvonqhambI09XMCMV53rwpVji/HJugLcaBGy7fCitckjKiGBFbEkXuoIY093EO7VL6kB7iSUdDQK775mNL2+BtueeUWay3vUimTHejvGCU0y4VgYnT0tCMakoByNcLPgqBSq8NwqrHnqLKx/ap6y1OgdkoAs0BynK05OpBjxPrO3EeV1NQgXlyEi7zdhUgUuPn86ymIdCG3fAk+HX+1Pxhc8uLCSqLSD63BI3Mh3vum+XV488+/NcMSbcd7ZJmkpSViFYGibbm2P4qWlYWxevg3W7d+Fq+1/CEUiWP7MM9DFNNsvXyvc1dWXm/NKyuT+E3nDY4OpwnQxWtxCuBwVcuLPCYVj8o5UoWnkOqSFp0WIBvGWcRTl2h1CoJxZlpaWDhfVT6WEYIV4EymDVEhG1QJI6MyIycGFgpIJCWVcSh3Xj5bv0XhcDq6nsl/x8v88mvEk1lRFlXczPjn2Y/j0uE/I8XF8auztIiQqtMhlzPYP2wjB8FK6EhRJE5Fku2Ew2KB3lWvnjwIm/M6de9Agatci6q2srBShUEgZ57Umy4Ho/7ocJzhu3FhFwEcDC02idxf0oiAMdo7TPMYNQwl5P3Zg9YYT2CxcuFcKzvZWIdzmnRi77gmVqQ9OcpKQeiWe12sdbPvdHKh02VHWG+5BTEh3wJle/I74HKi/z4V4fpVSYva8Hkw8bxO6frgVkT0h5L2vFo6ztOFuxw0JfGDXZrz4cj3KLvsMTKKsxrgSKLPRJp5EZ5sX2zfvQdCaB2NZJVxOAyfkHRaMB39PHOte2wubLowpk/Uw8KTEI9PdFwS27AyhbU8P7D0vwBBYIy0moKyqEnljZmHhpfNhdebIeySFAg145nc/R3dLE4zi6Iu/+h8sZou84gAqqeNEQi/53eKU5BtYJ/TR0NoTxKd/+g/ojGZcu2iKOtgKINjN8v1/PI89omJphshWYGq0CO3Vcp0tJZ5Nyh/HpuhTCSQMFmWuYDxyvDunUnNHZ0btp99xoRod0cutquQBLy7fjAeWblSmoUvfX4jcwsMnFtNjkXshxnBHkhGDYbaIOevq6L5X0fvU7SrB8972X5hyahHa/Th0QsSHIolw0oR2+yUIcj1ZSXCaDzZt3Cwqtxq5uZL5Mzj4NZlgsZAPNamXRUsfnKgkLgOslfNgKl2I6J6n4XnmMzBIky3v7ffD5K7OuBum4KuqsiAaVDL4Pm8Ie9YuRWDHOsTlnbN23GycqIIj/xj/LDssCX3X5DwV2rRLr0Ik6oU/1CuxLupELjMOB5R9xA9PaxEaVkyWVmkaRpcfExdug9kWQ9dv6hHa2IuC28fDNj1HCiY7N6XwHke25Kv667fjqQeewE1f/A3WbGlFKLcc+bkG1AnB5on656iTxt1d2LG7BbHCStiL8+EgKfeNJuAyhAlsXN6OUJcH06cYYbcl5TQ75FKIRvTY1hhGQ73ks85XYeh5Va1nkFcxHtOXXIqc8jrV6po4TpvOrJcKirH80I+/jUgwAGdePj7343+Cy1Zmn3iyYLopg4/JKOqWK4jxiSePbqlZbvvJvaoledH8KbjpXG0WnYLknSaPDyHuWK2dUWBYVNaRdNPcZuhY/uNwPp2OIdVomlCpyzwk/9WUFcAs6eD300wFPPn6Zjzx+iaux4T3fHwq3LmZzm/+px4i3+QzKew+zzULhZYCXhkR4NKOw86mG9z6PwRf/rpkphRyrvsXrMWzEF7zS8TbVsnVA4PKRIik7VipuwE11ZWibrngiJBpLCFKRuu9Phh8W6YZ1XDr3l1YZHpIzh6oPHgXm2rWyTfAWncNghv/jsBr35FzaeS//SGYi6ZoDkcISGJUF8l4FI07NqFpxxa079slVQ3Pa/GRcch/B4DXXAWFqDnnLEQT0UzcaFDfB5R9dAj0utG8uRY5Fd0oHdOsPVP+8/xuD/xruuC6Ywm8kSr4ex2YMH87LPaQdusAQKrx7WvA2kfux6L3fgtc7XL75t1I2M1wTlmAYpceNfY0cswGRKQ5u2tzA/Z2BJAur4G7wA27RYft63vQuLMNU+rSKCxivLAiZhNXWgttSWzbnkCsaSXSXU/AJhV77fT5GDvzbJgya/CyKc5hiLVVUZgdLgmTNKdjMfzvu19X/pSPmYIPffWnQrp99HVi6LtZmunyXL3ZBYNpcBfPicZT+OB3/iqkpsPcSTW47er5kub9K2K+75EInm72vyG/JSXvcVeWI+UUepugrTcQkJjS4d6nV2LZxj3qwq/ueidsNo6xZwj4p4fbLIqeqS7+Mg9liXykYJiZFyTykxFEtz8IvcUF29grJYRa4pI4aIPtDyZDKBjFE48/A6PRALfbrTrIuIwhTQskYGZ47RX1QsYx1cnW1dWFYDCo3Fx9zWVCzkeKAj5bik88jND2+2GwF8JceykMogBGMhgfQZ8Xe7esFRJej2BPp5ZxJRoOpgSeZ942cJeJ6nI4yotgcdhVaWK0UtmcKPiszfePl8pA4jg3F+mEVdIshbGLNsGd78m4OjYYRu5O0PrK42jb24qaxbdi656olPYYLPF6GMYtgr5sCkqcaVQ7UrBLk8jvi2LThnp0S0upJ+6ASVR8VbnkGX1m40t56c7eBLbuSKBz924Yep9GSakDMxZfBrsoZQ5xos2RUAuRJ6NIdDegZ+vTOO8DH4XOYELA04XHfv5DyV8mTJ53Nm76yFcyefHEwbSgH8PgKNsAAE/bSURBVLTNm6xu8XtwZkj2B0P4qbvvQ1dvAEUFufj+B6+QdxXSPEbYqXEYPr2I2pSUkZSkpSeqx5/2xfGBaiOKzKoNwxdQ7rNgOY1EIghLa9UonnznnhfQ3N4l5U2U7HtJ1lo8JzMEe0vFTaiyV8q3kYlhp3Q5Pu+INRhDqnqgs+fTCAQjeEpId79TuUu+k1BNZm0YCv9FhXC5LgFfVyNjzc3V11wqGbcfidK5PCO7mgPBJ1K57P9+pFp+5CCb6LQvtonib9m1Dfs2r4EuqVZy1/p7xBE/VHxJvCmtIl8dRQVwlhTBVVMmvyUu5Lqak081cxzZiWNhNz69UEjXKHEuqs2YQM20eiF3bjefcTQAqOSkWSKVQMfqpWjZvAm5U65GXs08+LxBBHY+jZghieDY6+AsLkONW4cyqx4mafK2NHdj984mGHO5TKHWdeoPp7F1V0SUrxeO1GpMGO9C1cQF0oSnomTASAO09aYR6m5Bd/0KxDu3IW3UYcy8hZiycLEaX93ZsBsv/um3arz5gouuwxU3fUDuPXEwbGwBpnUiKuyDZ044FGn84r8vYfmm3Spyf3r7W9SC5UdK22x5oiha5ZdyJ/Eyw0lzQhrPdBmx3COKuQC4qoAL53AS04H+8H6qXA75C0fj+OKvH5RoTmH2lBp87H0XZlxp70+7sMvklO+cbToyMewWMWdGYiIcQriSoBHPVsSbX0ZCPnnE5Yh2bcfubpMUnmapLaNwOJzw+fziXgpGMoW4NCdjsXifKukPrq1QadiCZI/mn/KzewtgzoXB4s640hJb+/9w4RqZ0N5GDolrV26BNH/HY+zchbDlFKodh6P+Hs2FXGdh04qJdlcsFEFAlIi3fi+SQdrSDTBKoVTpJsdAQfMPp6jqTXEU1rbL83fAnhtg0p0AWJnqYa+slUJpQfuGF2DkYkXTZsFeNAGBjnaYtv8HPV0d8Fqr0QOzWlO+uMApqtqJbo8PYckrOxri2LARcJoCWDxPFOrsWcgvrkZaSJTBEl5FPORFx441WPXYPdix6jnkFbmw+LrrMP2yq1BaXS31kBYH3Y0NaNqySVUoE2cvQs24kzNLcTq33uiE0cbFyE9lxa9TImX1di5HmUau04Zx5QVHTJZsmvsSBvy7GegIJzA336SW1Hyi3QCnQSr2MDCvgL0nh/eFKpf+rN7Rgg3b9yolf9U5szBzTB1selvfYTVwjLdWOY5UDDulezgwiLGOtQi++jXJeUKeTGQ5mJnZvF2tf4cktEONRuCkh927d6G4uBgul7azbPYVtczBzKoRcLF+G6YlX5Rs0C8DJxMi5QqQc9FPpUlNJTeSk3fgYAxl35Tf/d0daNq1FXvWvYFIKCgxpMUZTQI8NGS+yQ0GIV2XKOC8sdUw2m3KD7pUX46AbNTudyInVM9+1v/jhHjIZ6ZFBQUbd6Bp6UsodMxUq6zlnnUedm/fgljLs+jpCQGTroRx6hUokyzi0oWxfFk9tm9PweXWY9pkdqIxVJzWQMVmECUfR3fbPuxb/RL27d4KZ44Li668FBNmTYPT7dLsq8xnzJcqMED9G0ux/olHVcVy1Xs+g7OWXJy5MnCoN5L7YyIaTLYcGA2nZ/FzfyiEO37+H8SkvJXkOnHXB65QYcmCZUlpWdUkkjBKU+ex1jSaInp4pLH0oWogImH+e5MBH60B/tgEXFOcwhSH9j68x5RptUajUYS54L748YN/vITG1i4pyyb89uvvRZHE85mGEUG6se4d8L30CZhyx8N57o+hy+xnpQIuwY9Lrbx+3UY0NrZIZtCGoWiXMkTRj3TZocROtrHjxmDK1AkZ08L+zJQMNML/0hclYpJwXfobUUuFmStvPjDeuPhQV/NeNGxahbY99UhEteUZ+yOrdOie38w5DuRVVcBRUaK2f5cL6vrpAodqpaQejbW0Irhsn5AeZ41ZUH7lFWjYLK2jPY9hT8MetEdcKLzwozDljEX98gbMmGxAfg4NXPIecg+PcE8nOurXYtuqV5FKBDBx/tlYeOFiFNVUqrU5aFY5uLnMDJhKJLDxmaew442XVby845PfwqTpZ2UcDBw0ZCQ4Vt2eJ95SHOzPq6cSKXnyHx9ZipfW1Kvw33rFAiyeNiZzVUIhav7pdmBZj7QAqMBZ1nRG3FwZx8tdZlRa4/An9GrM9C0VwH+FkDf6JexS/mi8YwX1UfGuxJzSJkXI/ev3dOF3DzwvZc+AJbPH47O3XNmXt84kDEvSVXP2WQtGQ/KpKYfIln/ANuVmKcRHHvjt2fIoGje/BF/RdfBFgmoLEF00oDrl9AYz3LYUctrvR+15n4GzjBNlDwUHyMcD7Yg2PAnH1FuQjPVKk84h5CzNmhHegXayYBOwddc27Fq3DAFPp7Q64kJumUpOEkllJflOIcM045ZBtvx85I6tgo0bbcrv7HVxTC9PDSRAfAYnfgWWbUOizY9X96zCRe/9HEoqa7Bn83a89vx9yK2ZioLKOkRgV6uusRMvJcSWioXhEaW8Z81L6GhuQGFFKZZccQnqpk6CJbPwNsPPvKm9q0bSBFtNyVBEWgcRbHnhCezdvEbNtrr1q7/AmLqJys0xIV4xdtSi60YbLNb9pq7TiXaPF1/4zcPK3OS0W5XazbXZVEXMXrOQhK83kikTEmYuWVRiNQgRp/CKR7KHnH5rMTDVlUZY3HbERPCkWXGkkZDbqs1yXhQ1d9YIiTr+4d+eQ7fXI+XMiJ9+9t2oLTszBc8wVboJRD274H30fZK2Rrjfeo82NlaCquM0piMgXP8wgmt/h7y3P6ASLtayEqFXvgj3tf+G0VGGeM8O9D71EeSJgjUUTDkCdadUs4njLGMty9H75B0wusvhvu6fMJn3j/t9MyJLqjQB+Hs8Ql6r0bRtA6J+n6SLZvNUTUc6Y2Wp0ku7TzXxq8rhLC8WIs5lUirQPHSIUhwEsCnMPzbtvat3Y8+uDTAkPJh2yQfgrpqKhoZWdPh6JLk5ukVuMBgQaN2Ntm1rsWP968J1RsxYtBBzz1uM3KICpfwYVvpJHFBsFOHK+4q6jfnDasYap1qveeJ+tO3aqhTxbd/+A0rLKjX3RwF9YpjFC2ll5cBg0tapGBqk8O/nV+PhpZvUr4lVRfjMTeeBO6Go+JAKhrpVC3Um7MKpgUQK/2+nEUaJl8+MTygjDWNLTcNWY3b5W+IqkkQwEhFf0vjDEyuwbvMeuWzA1Yun4APXXaTcnYnoZ8wcTjAi2bkVulAX0sFWJIUsmaRHI1wikQgJ2WoD98WxJDa/SpKrWTqsZTUbXSrul6yyf2m/A8HGKaNFj6iQNpJhxLvl+cFu7fKbGCwE6k/SwZ1fhJnnXIZL3nsHFt74ARRPmAS92SLEJE1uzlLJQOMmKZrxpNr0sum1NWh4bhl6du1FIhyRaNYK4WAXMBK56Fb5pkPunLGYdd01qJo0CRuf/T1aNr+AgqI8qVjTiAT9aNq0DK/+9Tt44d5fwhtqwY2f/DDu+OG3cdHbr0FuYb7UMdIgpurkP1YSBxEup6EnwjFEeqV1JWypKm1xnIhHlVvGmYU7JAwANG3Ek9ykNA/GISVcvq4e150zHbWleVImktjW1I2/PLFc4oPrZkgas0XaL05o10YyDbcQZ7UzjSm5KbWcpoovuklp33nEYyk1bdqQjuO/r23Ghm0t6pmVhU6886pzVbyeqRiWW7CzhjXkVKnMbixfAPukG4U4WZAPnxAsYLH29YiuulsU7DRY6y5ThTjlb0Z07/OwTrpBlJYDaYMZscYXhUxfhan8nANGKBwM3q/PGyPqJQ77uMtgrr1w0Ilh5IP2cQNc7jxUT5iOMdPnwerMQyQaRsjXSz4V6KW1oikdgk3yRDKOSKcH3XsaEfX51bx9i9sp3tE+KI7kUFt3D0J8U12pBX4MaVjLauC0WNG04jl4uvZhy6rX8MZj/5CwtmLmuQtx3Yduxrzzz0FOoRByv4rjsOA70Y2QTNQnZBvuv3i5QEhp5/oViAUD4lSPxVe/AxbT0cfUxtIiCPRm2JzcDXfoh0Tx+QaDEdPrSvH65r2IxSJo7vBhjxwzx5Wr7dTp5uB0Yt/aNCHd8Q62dLRr/MwesWhUCDcqFVQC9760Ba+t2SllXeJPKvPb3nEJakvytMpY3XmmIcoWE6uh4YnsDhJq8PlRkI50o/vJ98CYMwnOc74pCoE9nqJlm5fD98pXkPvW+2CwFdMlEqFW+J/7AtJS+PIv/Z3khiOrZ8ZMSpcQ2mDmOjOzwGCDmYkTFYK9Pdi5djk6922Dv9cjsXdoGvYVSB4GvTI95FSVw5LnVqRLDHr2lMIcamnAE/98EHpnLs69+jLkVBSrFeWUmh0wpM0UiQuphvvCmP20W3Jhyq/E3+76AExSAXEixWd/9R/YTUdYHlReNSoK2Wh1w2S2y8/hldfYx9LQ7sEP/v4MAgGpYKQ8FLmteM+VCzGlmuXq2OnEtOawTU6CiHFlwA4P7nthA5o6vUhEwnQAs9OBfJcDX33Ppagq4dTe4RUPg4Hklh8Nb9I9GpJSsNPhTqTCHhjzxyPWsR6WgsnQiaLVIOq3awtC634L1+K7hHT3z8+OBVuRivTCmDsWCXFjyquDwXx41cvIOfOS/vQhkYyibfcuNO7YiKYdm9R6qSrHHVSRsrUilwRS+NwO2IrzUVhXLa0Ri3aNbgYhq2aJXlkepL5V03Ll3ID8pjveLvcmfCFRbLE+/5SWF3WbX1KFmpop2CMk9ecv3QhTIgqjVPBfuPs/MPdfl1ZuU0+U/yKi9G32QiHnQxdoGj5Io7GzBz+791m094aVIKIpaebYCly5aCrGVRQpcuY7aelIaCnHIypkG4/H0drZjSfX7FFbAXHn30QsLgTuwJi6Kmzc00ZCQo7Lii+99wpUFbq0dBFhRDvymYDk5u+NXNJNhNrQ/a+rhEHDom6/CsvUG6VA78+06qWkQKW50IYUDKrVLLShZCkEXrwToe0PwFgwFjnXy6d+6BcqPxOh2iuSIAlJq12bVqNz91Z0NjVKsjCVSHgqifqgvspJNlPNeU4UVFfBLsqH+7yp3EoHmXtOJPv2Ea9goGRL0GUqEkMsQHWrgqhdki9GsxV1Y2YgL79chXtbw178/evvhjERg9nhwBd+dh+MBq15rRGJDolUQuLGBKszX15p+JMKiTaaSOOex1/B0vW75bemybmBpMtqwsLp41Bd7ILbboHNalPx4/N74Q1E0OYJYvm2ffCF4+JREtFwRE1eOnf2OHz0xstgMevxy/tfwYote9ijA7vViS+NawC2PI+K2/8MS+EwX2RqwBhmq4wdD2L+fei59yopCBE4zvoc7LM/KLVhP2KVvyTXeg10QueugNF4aEdG77OfRHTX09C7q1B44xPQDWulceaAy0P2tLegafsm7NuyRo39ZbeXkp6CQ7KklGwd19YoLELu2EpRwm4RP3JSCvuAVerJgMwqTBr1S9NalNl+kCjTcLsLUTd2NixWu3ZasGFHPe77zi0wJBKwuHLw+Z/eK/mTFCV3yEc0JgrYlgPLUfoVhiu4NPL2fa2475lV2NnSpdIhC6bFwenRZx+X8/FIAsl4DLVlObjl2nMwY3xN31omEYmT3z34Gt7YtgfnJdbg4sALEvdSLeWNQcEn/wK7u1RiXIvDkYrkjoeGa0fasaEzu2AumQ1z0XTYpt8sCaeNUOiDJLDn0VsQXvEzpMI+WGvPz1zYD3bSGSwuIe2PQe8oHuHJOYIgTUW7w4WS2gkYN3chXIVlqtz6e7rUoHmSEsk0q4RVusjXSMAP374WePY1QydNVYPVLE13aZ2cioQjmev5bL2o2zgi3oDq8COhaJMU6MSImurJqBWFazyok8xiNiHs60IsFlIdUIsuezv0IgpYuYSEiK2uQphNJOmRl+u4PGdxjhPnzhmPueMrVWdqUFoAvmBMxRtJliNc2PnN/hiaEKKhKHKsRlHDNfjgdefjXVctQVkhNxPI0qhOyrAesyZVwbn7cSzRL5cEj0IfT2PT5Bq8XBTBeHudNg04U3mNRCQ3/nHkKt1jIZ1OoOufV0LvbwZqlqDgyt9lroxiOIKZMOzvRfOubdiz7nX4vZylJATXT0X1hyp2UvgsLgdyaivgKi1WOwrTo8HI0iRcDimL+sOixLlQS+aCgERhlcp63MSZcDi4NfmRSIDrMqcQ8PbA6bQjEQ+rNXjtco++nyls5EPeM5XEqtZNeKLhJVzouAovNr8Gp86B8bnVWBZdivdOuB4TSiuFkDVVeyTijLVuRet9tzEB5EhiS3kl1s6ZIW0gA1w6O24pfAtceRUZ1yMQscDIVboDgaF8JmDLg3Pu7UcdHjaKoQeLoElUa35plVqntrh6LIxGPXy9HqSScSEpzVVfYc18cs3aUHs3unY3Ih4IiWJOiYp0yXWqrf3uBgoOaVND16IJUbdBbaJDhlSV+hblW1RajQkT58IixCtn1bXDQ1yToK02IRuTqGE7zGan+LPfDHZmgOmih1/nxS7U412TL0WjbQfqqouxsG4S1qZX48KKxbAbHVocHiVN9M5CpOJBxFs2omnSJDQumI8oZ4lKpXfWE0/C8vL9sE8/H3qbSz1zxMFgPpOVLntStcHbrF1ZXEYxssDJDcloFJ0t+7Bj9WvwtjaqKbVUVn1EqP7XQGsEU91oMcFZUQR3ZQWsOVI45VpfJqd6lkJ/QLbPeMI8wtEM8UBEU7faaQ3yw2Ayo65uJvLzswsh9X/6KLYGtuGRtqfw+bEfw9+b7keJpQRn5c3Abxr+jE/Ufgi5pryMy6OBqjmBvTsexSuuVpUmBkmT2scfQ8U2bfcYfUElSm//CywFI7NzbQRWFQMDa0FOIaatd5RwRya4brHJYkP5mIk4//r346JbP4mp51wKe16RsCuXTSHFah03PLQBSxDCjMO7uwWNr6zEXjk6dzQgFYtrVw+jsrggDok4FU0i3ONHLBKFtkEl76Bi1sOdW4RpM85DfoE0bZXCGs1Tpwa07ZpQO+ktmGqfIRVpEpNffxXVYWnFWC2SVnqkPM1o/fX7Eevao0ZUjDScsaQ7ijMPdlcOJsxdhEtvuR0X3Hw7KifNhtVBsxHVq/yfIc8+OpTvMa8fPTt2Y/ezr6J52WoEWjvUCAQSadalITOrLOwLcPyTOscr9FOaSaisHI+JkxbAYtk/OmEUh4KmFy5UpcWgBrZItOqwL1UGBFa4c3MX4aKOAhS2NKvEMJTkAjY2z3VI9jRliLdBXPd/4vDHiLTpUoG0tLTgueeeQ2dnJ0pKSlQPKme7bNq0CS6XS+0GfKKg/xs2bFB+OhzZyRajGGqQJNWfEKbN4ULFuCmonTYXOYUlaj3WWKBXjXw4HCha46Eo/C0dCDS2IRwIqDWA9UaDEG5IiFgbmZAtvqQKboczcfIcFBbWHkDSozg87Ho7Sk2FKLIUYb1vM5xGJyY7x6PYmI9Ke6Wybw8cWjo7SyZKUySJSMsW1cAw2ixIcNt2bhEf9sK/6QXYp10Eg51mpJGRPiPOpsvg/uhHP8LXv/515OTkqG0+xowZg6eeego9PT2YPXs2Xn/9dSxYsEASTbPd8fN4wE0rSeQ/+9nP8KEPfShz9uTArUi4Gj8xKFlD3ikcDKj3495w3BfuzY5IKICd65ajbedW+LpapZBmt4bZb8Nl3JOYuS0eG6ZlMyZLgT1QwbI/oLC4GmPqZkhTd/D3IDt+ZJrQ6QgS/iYYXOM0glFD6oZZY1XFaxJ/b/qPsuleWny+xLWE8QQzPdOPnaP+1/8Az8p7oa32kEaiw4tUmBul6uC+6AMovOaz6vtIwIgzL6xbtw4U51/84hfR0NCApUuXqkWQ//GPfxxCsm1tbbj//vvx2GOPwev1qmtUyLwnkUioFetfeeUVdHR0qGs7d+7EP//5T+zerRnsj5esj4beXi96en3q8AzCQX9aW1uxd+9edYwCsNqdmLrwApz37o9iyY0fROXUuTBaODNqf55Q1JshXK34yv/qpAa2bsaOn4O6sXOGDeFy77dkaD0iHb9BYMNPEFzzcyQ4lT3jYlhBorN/qVHf+584TpBIOe7XtfiDyDnrZmVC4mEqyoXBaoFt5sXIu/R2cdUvEYc5RpzS/elPf4qvfvWraGpqkmaftsgxF9e22WzYuHEjZs6ciWXLlinld+mll6pte7ifPk0Ozz//PB5//HF8/OMfV2YJ7ghcUVGBf/3rX6iursZFF12EGTNmqPNbtmzBr3/960FRulxPtbWjWwq3RDXLeEoUGKcnHxaSyUSKqUXc+zfH+lIp80VUjt/nR8jngdFoUuE+5spYb0Jw9lPD1g1oqee28/XgRDYKRMY+uaBk5hSYrHb5nYbdnYuJ4+bAOkSLhh+MZDoBXXQvEoFnoYs0K4Ue292GeJBLIpqgq70E9rFXQGfiJpXyPoMoEk4Kks83Bbcix+BGlY1jagcnXNxgwLvsr/At+7vy0jZ2CfKv/Oqgb0F/ahEdeUrX4/GoXXzt/ZqEJFwiW3/wk6aBoqIiLF++XJFwc3Mz/vKXv6iMebjMSaVMEqed+L777sucHRyEI9q6qgQ/m5PN2BPZe4SjAfWxPdjU04iNnr19x6befdggn28Icby+bwd2t7fCbNG2LaJq7+3tVd9HcSD0JjPGzJiLJW+7GZffegemLLkYtrzMJouSFlRSaUMKZVVjMW3KkmFDuEj4kPY8gHj3P5GOtEh4JZx6G3S2WgYbKV0UyYbHEXj1q4g1vyDvopmu5Evmc+jAymGaYzIqrYNHuBp0yFn4XjgX3wLr9MuQf9VXoc9s3TVSkNzyi5FHulSk7DCjaYEExpWLPvOZz+Dhhx/uI1N+suldW1uryJlqNz8/X5kbeI33cZk5klXWPUmLJG21WlFeXq6IfTBAlevzB/uy3q7YPjzbsxSvBFYf9lgaWItX/SvxVOMGPLVv//Hk3vV4pmk9ntq1EQ+sWYlfv/Y8dnS1w2DhIjBppfy1Mayj6A/Gu+oCY6dMXhEmzjsPl77nDpxz/a0YM3s+rA4HJkyej9qqaWp44XBAMrgS0c5fIBneKKqcIy2k9eOYKU3q22Cf+yU4Zt0Ovb1SkVsq5kVo01/gf+N7SEQ8wnhDb3RQtlUJc7Y8DhZUZ6bOiPyzP4DiS74Mg1EqoUF+ximHtF5GHOm+5S1vUeT4kY98BE8++SS+/OUv45e//KXqUCP5ZEl10aJFeO2115Q9969//asipfPPP1+RaiwWw6uvvqrsvdmt2WfNmoXNmzerDrk//OEPithPNkGTEo5uT69GhiJAolKA1vi3Su45crTv7z9nJjs44+rhyJNmpVEvBKHHY5tWw+nMldM6xKNRZYs+3FbzozgQXBOguKoOsy64FrPnX4U8d1nmyvCAzpgvmSch1CW5wVoNY9EHYMh7K3QGSWsYYCxbIGrvW7BOuFHcOlTnEv8Mlhy5+dTNdmO5OhYG4ubNDMPUz4+8IWMcwnXeeecp2+zdd9+tbK9f+9rX8OEPf1iZHkikN998M6655ho0NjbirrvuUrZc2oHf//73KxsuO89+9atfoaCgQN1Dt29729uUX9/97nf7hpuRpGkjPhGQ2NnhFefwFkKIdmlgBboS3PbnyGTO2py2q3DAJJ+ZkxlkSdggJBsLxtXCKYF4DHMr6hCMhRAJR1SnItX9yQyZezNAoyktTrX0OHKanG6kDDkSrjB0jrNhdF8mTWgh27Re0juO+o4uFDntalqxKW+CEPBCpKW1Zx53FYy2oowPJw+KDvafvPzyy0qgsL+EZYd9IwcKgf0g4bLFyM5IHqcaFBi/+c1v+kYwHQ4MU3t7u+INvsOf//xnzJ8/H0bj0LRqkjseHXkdaVkw2Ix0ZoBsBxLP8ciS0+HcENnzPHc49wefHxjSomhTSMjhDwQREeWpCrL4Q8JdHdyADaEdLOWa8/5Qp5JIBNLw1ffAvzOIaAwwl+fBXlUAg82AFL3JhJHrEHg7woj4U0jqErhyykycK8qtt6dbLZtIDzmcrrS0VHUo0lQy8PcYxamGGgYlf/pkEOlUCDAVSIodTAIpLc3lW0Ly5Jr2Lvxr03a0NjdiWn4ePnzBuShyOeW6yhhaFsr8r5DmJGrJH727YMgdI044M3PgDVuO9iHJsr+EeYnDMWnKo2Bhq5BgXsyC31esWKFaohwrz/6RbH4lst+Plg/7+3cw+t+XdceyOnnyZCWYvv/97x/ihr9//OMf45lnnsHTTz+tBNlXvvIVrF27VlUex8KxwnsiiL/0uRG8tKNEBsmxf6Twe/bI/j7YDdH/fPY42vmBoKvXD4/Xj0A42mdO4P1JyecrgquxKbRL+X0w1DPFcdcb3dj13+0ItkSlDEoBTBoQ3NmJwMZ90ItqtRS5+zIbh8zY7Ea1ZF4ynsLO9hZERFnMGTNeWS64BGEoHEZ3d7eyY1N15+UNZN77KE49pCBz8fLQCsR7/otUdDv0trmSDw4mXSEpyX47e7z4y8ateK6hUSpYqZj9IbT0evC0EFtUWjpji0tgVnuVHZhXSerxthUIrfoxEt4G6JwVMFhonhhYnmaeyY4U4uie97znPfjPf/6jTHDveMc7sHXrVvzud79TrUjms/Hjx6tWJTuuSWhnn302nn32WTUEk0RNs15lZeUBZYrkTD9eeOEFpZAnTZqkiJut2K6uLnUvyX/ixIkq799zzz148MEH1Th89u2wMuAII97HPpxt27Zh2rRpSqXT5EiFSyXMMsAKhGHkPTQ9Ev/+978VEVMB8z6qX/5mRzpNk+zbYV/Q8fDAsWAoXzTybLrDFZwlw8jUi8LQxqzr0R7vxiM9T2NreK9KuCxp7geVeRItS1vR+nITqi8Zg2m3T8OYa8cg79wJqHj7XLgX1MG7ugHedfto0s3cJopcPnJLHHDm2qAzGPFa/Vbc/eJj6EokUVhWgZKyaujlPJ/LyR6jGHowrZPR3Yh2/xbJnicl00i6xDuRDGtbnGfBfNIVDuEv6zfi7uXrhHh7JR15RS/EqzIXEmk9Hly7EZ+99z68vH0nYkLAmn7WQD+i9Q8pjk10bkRo2TcQ3PxXxKM92lZXA+hwy+ZXigUSEIdgrly5UhHk9ddfj5deekkRHc15JEsSMe8hYa1fv16R865du5TKvPbaaxUZZsE8yXMkZJr13vnOdyoFyns//elP4+c//7kya/A8/SVB8jzH1HMU0gc/+EHlD5/HPL5nzx41FJT+0s8vfelL6juJl+FleDjG/84771SKnROsbr/9dtUPQpV8xx13qP4fmiCpoDmKiSZLuh1UmJ2jpDvokEzelerF496X5XgR3ng4c+Fw0IsaCaFtaTsq3lKFvDmFUhVqRYfZPWXQwTWxBLlLxsG/fq80FaPK/2zNy4VanPlm5Jc5YLEZ0OL34xcvPYXfvPwsWsP+QRuBMYqTA9MynfCIsv0Xkp1/BqJdcs6oDQHLuQpG+wzNjfzFpMA/tms3vrl0BVa0diFxxPHcknukWeOJxvCL51/ENx9+FJtF7QkLKb/Y5LHP/QTSxWdJLpNzIpsT+15EcOlXEdv7jBALSfr4QFMVFTBVKzuxSVCcuUnio/mBxEWCpiKdM2eOUrDsf2HHNxUrx79nQT94/dZbb1WjiziSiARJUHHee++9SqXyPCc03XDDDXjggQeUqqX65Dm2KLNlgcTP/gySJdXqWWedpQj7ggsuwPTp0/Gtb31LuSMYXobx3e9+t/p85JFHFAHz3VgxkKCXLFmC3//+96ekDI2S7iCDTf+Nwe3ojnRK5Ep2V8rkyOha74G93IH8CQVKIesyEx1V4VGHDvaaQhgL3PBvb1ETJ3hNQT5p9zNYDMgtdYnCzYVJLu/pahf1I+rpeEvVKE4JUoHXEGv/JdKh7ZIkRklkI4yOOTCVfBwm50IhDpNSV6vbOnDny6/jkfo9iCYTagWtbFIfDqRXXuZ2N/WdPbjroSdx9/MvoL3Xq+z+RkclcmZ9DJazvgiTo1zcisJN+BDb9i8EXvsKUuFO8X9gipcER3NATU2NUo7sZCZh1dXVHWCSy4Iq+OKLL1amgLFjxyo/+l8nwZ5zzjnKhMDr/e9nJzA7g0nyWhlIq47vd73rXWr2JTvNsu55jWA4SLB///vf8cQTT+CWW27pM+cxbrN+85O/Sa4kfoIkTnKlPfpPf/qT6gSkPzSRcNTTYGOUdAcRqgAIZSZScaT0klkyCX0kME/4m0NwjnFIbqD7zIWDIdfs5blIdFEpiKPDuOMMNm4DpzcySXWIMqNpl0YxxEjF9mQqVEkfaw3MJe+DPu9KSX9Jdzm/LxDAL1esw+/WbkZPVFtPIEsSAwXpl7e8trMBn/vfQ7hvxWrElRI0wlI4DY7Fd8E29VboDTZlokgFWwCS7hGekyVJNrnZrL/pppvUSAYqQhIfRwZRfdId1SgPkhV//+1vf1MTkniOTXTaW7NklwXNElSr9JeEzvtUX4iAbvk7GwaCZgeSI8mUpgS6zfpHdwRJ+aGHHlKq+rrrrlPnqJpJnCTiLEjGixcvxn//+181nJRmkNtuu00R7fe+9z1lpvjYxz6mRkX0V+eDhTN654jTiUAojKTITg6U2RVtgi/ll29HLzg6kSPtb7TDXeWGo0IYU5qELHBSTBHy72/WMN+RcOOeAGyTyqUAa5msP7KZM+SNqIJc4srF+LxCyZxxVYuzCTeKoUEqvAHpeLcaU2ss+qgQn1vSUCetoTj+u20H/rFpKzy0d0oSZgnkYDB9eUQ5Hl3I7HDI3snRDlta2vHc1q3Ic9hRmZsnhGiEIacOKYsbqbbVimytledBbyvM5LkDQcKsr69XapDT6PnJMfFsxnNUDMmIHV5cbGnq1KlKabJJvn37duzYsQOf+9znFNk9+uijaogWO3L5SVMDwY4tKmaOiyeZspOLB7+TTGnvJbGS4GlLJkmuWbNGmSSooLPT/HmdpgxOg6di5jDSyy+/HO973/vUczj6gp1/NB3MnTtXhZujHbL3cmQD1TuV9MKFC9XMVXYcMuxc34XPypatwcIZu3PE6UZbpwexRFIN/Hna+xqa4qIkjtGQ0AvpbvnNJhTOLkTBgkJxzbullkcCXS3aFtYKkubBTa0I7e5A8VvmSik+1B6XzRhd+3o56QXTKmpw9ZiJiEVDKuOxYAwJpPn63EtvYHtm1f/BB5VWHNGgT+KFSklZMGG1WDF3wRycNX8OLEM8Zjnu+YcQb71Stqayz8kZPd6QQv2/LXvgS4iylbSjZhMeJuvylkOQJV2vqMakEPSRCi3dZIu0yhLJNMblufGNt78FFqMZ0ZZXEN74BxVHOQu+Bn3+pMOS7kDA52Tz3VCDpg/afL/zne8omy5JeyAYincYJd1BAkmXyzeyyD/rfR2NRyFdZnJm+v6kW7iAuxFrpgHa3rqFdEkoBP/3b25BeFcniq+dIy64PAvPS2bpK2Baxhl2pCuh/O3v7sNLryzL/B5syPvLu3OpxmBPJ8J+n8ROShv1Kk3rugk1+Nb37hSlP3gTB44XhyPd+1aswoPrN8NekA+z3a5Il6/CfHE4MH15HJN01Z/UP7RniFL0trYgIPc89aufIcdqR6R58Eh3OIGdYRwmdu6556qxuEM1+WEgOLoUG8WAoWpMycikQ24TxA6wIyEZjyO8J4jwDr8kgAGJ3gRCO4MI7PQiyKPej3izF/EmX+bwQuePQyeqhWo31OCBToj1aEWF43W1LcyHAXS0L2vxM/iHeC9xzz9rbgEWff5OXPzDP2LhN+7G5Pd+BN0h4Gffu1tdH04gyXLDTX9HB3raWoFYdvPNkwPfM5WKIyT+tm3ciGB7u6qXac7QYuvMBJUtRy5wSNhwJlxilHQHCVQhWrHWwag3HjlihQh9S3vR9UwHup7thF1nRnxPFJ7nOuB5vluOLnheENW8phnxtS3qSKxthakjDKfBCu+r9fC8vAO9Kw5urrNIyVMzZG+TpiT3+SKyvbhnOgzy/o0rpZXxwiPo3rIOxeNnYOFdPweWXI1mb5A1Y8bl8AFHXKdFuXpamuHv7pb6SdKRyv04iiZTnGRL0o75etGxbTt6GhsVqY9i+GGUdAcJBgOjkg01PZw6iyJXKT3axX6gi3gwqi5rNrxsg1D+JyfwNqpmnlfftYOXlCshUN6XCO4faN4HuaDtgpxGgcMlv3mXNgTnTWFFkvj27diKXc8+gR33/wOv3HkHlv/kG7AXl+DBDgd2Bff3ng8XcDv27DiTqM+HnuYmxL3shB14WJne6XAUHTt3oVuOeDgkPmZzzCiGG0ZJd5Cg1KQUemZ2p96OpOT3w2V5VRSOwX+kzaOVF82UcbADeb6cV31JcnuhkC4HwBNsbmVtvqcbqhKQZyd1xkE+aD1nLOx/L+4cWzL/XEy64T0onb8ACYlJz/YNeP2uLyDZtgOPN6XQFEpm1qc4fTBYJsLomA29jWsWHDnxOZpFEg0+Txd6W1qQikRFvUo1fnDaMXvQG35KGvcKUbdu2yZkzT3iNKV8WNDM4yiDpfpCOS5C2iwV8yhOO0Y70gYJvkAQ3kBYIjSFrmQvHvM8x1J0aBGT8tD1cDMiLdlFpw+E0ajHOUsWyH16vPbaciQS2hjGLHpFDXH8paMiF/kXT+m7xtXJEpEEupv98og0PnfxW5Dye1ThrKqqUjOHhgIpaS5v/9630fboQ5kzJw++scfiwCMVsxBTppNM/EiNU3PtTbAWl8NVXo1E2IeNf/k1OtauwNd/cCeaKmcjmDTg5lodbKplcnqglCgTXvKGZrfV41/sSFuzTkhS8siRiqC4NzkccOXmQ282qcrL19oq78VhgSmEuAVU4z6O71L+67jbyGGQSqbwzK9+DrfNqm03rx4nuUTca7Fw+uJiFKOxPWgwm9h5xhlEaeQa3RKxJxa1C+bPxlWXX4Srr7gAc+ZyeugRCuQhSCIRE9dSqG1mM/LsNimXWiHsv8vGaYcUcqOQoYkEMkiHWY7SqA/l4R5VifVBFHD9A3/H69/8JJZ989Po2rwWc277EiqWnA+juLukzAB/Mo2NPQON08EB1Thzg7Yb7nHkC1akoTA8zc0IdksFKuTJkMeCPnTs2IHuPbvZKyvuqG4HYI4Q/9RIcBKvxIeWR08sn47ixDEa44MEtXxihgHMKQMKLNr+bceLnl6/KhwsXT6vL3N2ABD3sWhCqZjagmI1gN6gCpduaElXAqYzCOmYpIgP4mEQPw18WbJQBiQSszNXjhz0tO3F+t/9EntfehRT3/MJWAqLUWDWYZpLj/USxZw+PRLASpTvFfX70N3UiN6GBnRsr0csFBASHyEvMYoDMEq6gwTu5JAdqkJ7bp2pVBWY48XmzduwcfN2bJLPLVt3yJmBeUJXkVBcPXNGeVVmPV9t0ffTsaD0kcBha1anBe48++AeBU4YzXyv/cSTEAU8430fw/k/+iMmX/cOpI16bL//XsR7utCVUyMu0hjvToOT9jxsFfRn7OEKCSJDSR3Llgs724gTyFqjGCYYNqQ7kIU3hjtsluxi4WlUWapgEMWrFZmBgx1y8VgU0VhcCpbcfwyTe7bTJC4cm0omYDToMVVINx4JqSdz/dChBMcrazsbc2DxcRz6pHZk1Bzfso9o5Bw7zZSdVB1ap5pRWgib/vZb1D/2T4y74iaUTp0uNWAMjWuXY1+Aph+g0CruxZ0npk0wOZ0Y6u4TrZJR9K3+Rn6JG5kYNmsvxKUQNbZEkOseucsRkjADwZAiQpPOhO5kN7wHr8EgX0Pb/Uj4j9yDrjcZ0NXZjbb2zsyZ/aCC5fhbs9sKW502y4rPC3hDSMRE6ZXXYlZZJQI+7g6sU/PKh3SwuLzv1oYebIm50FY4fsBHe8FYBMomwjV1Ggy1dUDtOO2oGYtgQSVCxbXYo7ejbPJU1IypRkFJMczOPPi7OtC6cjlKFpyNmKRFz47tsOXnoGTWAszNZxoBa3uAMY4UCi3a6linGgnfi0gGXkEiuh1G6xQmGDY1t2Bba5v6fjwId3dLOseO6zaS/S1XXg6LyYRo51ZEt/wZ8ZZl0LsqobO4JIlGG7ynE8Nm9MK2hiDeWB3CWy/NQa6LxHvqC8OpQHtnF2IJTU20xrvwtPcV+b7/XVhY2h9uQqzlxAauc/RCUloF1hI3Ci7l1N4UdKKoO/b1qpECHz//ChRL4fL1epRpgeuPng5iORKoqO5Z3YPX9x5mXPERwBxJ+/gtM20odWqEoJZEhChg/i8qdcteDwpcOlSUcKsbquk09rX6sGntJjz219/AVlyGqL8XaQ670qfxpZ/+AOfOnixxkUaHBCVXCNdMxSx/pxqHmwY8oNELh0H3jh2I+P3qPQaK7OgFl82OaPPLZ+Q04JGEYVHFReMprN4UlSKVxhsbgkPeDDsZkOgIZuRyU5EQIFdx0shWQwomW0Z5yjkOAzr0OHSoGW21ispJSCnRJvbMIi5yIeiPIJ3SY1JxCWrzChAKajsjc2WxoSRcDTqUlrsxYXLZcR7FyLXTvCI+hAIwblkBfW+XvJdODavje7lczswzGL86GIwGOJxOFXeRTlGRYS6TmEZCGhXWsD8z3lWHYitgOU2EO4pRHIwhJ11unrd2Czdy1CxMLa0JNLRGpaic3gHsgwWHzQqjXoozC7iU/rMcU7XpuGQCQTqth3txIXIW5yN3YR7yz8499FjghnlaEQzTStVhlMMyWT4nFsE1uwru+bXInStNbkUaegTZMyTxdfn0eWor9kQ8ppa+4zJ5Qw2SHisSVesM8OBCQCmDXt6MjKtH6sX/IvbPXyD26+/J5ZSqeLSKmfHMp/AE7+WHRqa8LC4zoxQkb2kO1TWtOa39HsUoTi+CQ0+6Pd44tuymHZT0IYVFn8LKDQGO9x6RINm6RW2xsJMHioyFmGCr5BXNgRCA0WZCzvQcuGbkwjnz4CMPjlluGOsKYB6Tqw6THPpx8n1iAZxCwK7JJUjbJOmEYPy9YSHZNBbVTUR1Ti78XOJQUFZWpsIykqH4Uv6P7WpCrL0FSTPfZ+hGYgwqmD+02iNz4tRBWSKkslcPHcUQ48ahJd1EOoHl6wIqQ2TXDCBT+YPAxh0jdzNFh90Go0EzIVDpLbDPgVWfXdNV3lVKgWb1PfTQyJl3aeaE7JEtn2xek9BZkFJRaUH3RlBgt+PyKTMRjcYQC4XUuNyCggK5a4RD3pX5wvqhT8P4qR/AdNud7ITIXBzZmCKVot28f1GiUwapeOdOGQeLGl43iiFHes1Qkm4a+xpjaOsmpTBvaE3yrDrbWO+HNxBTRDPiIK+Qn+Po07YmvQnnuOeo81z39aQhzW9OJ/V1ccqvDu+afx7sBhP83h65mFbTfs+klcXSVidMU+fC4MyRt+sXgQdkDhL0MM4sEjSazFJpdqCmML26Ar9+9ztwxdTJUgg1U9pgpRhbWBwQV1VcjO986MP45Wc/q7ZpZ9wxjrQl00cxJBB+G7KSGU8Aq7aEyUMHEC4P8kUqZcaqjWHJQCPTtmuxmJXiVUwrqDSUY459mto7LXPquNEXR1Jwgp44YpEUrp0+F7X5+QiFA6J0IyguKYbLNcwXMlHvP/B4UGSRIYw+yL1qTy11SvOIl7P7bQ0nMHSq7ZIMI9n9T6Rj+6TyTcNhNeP9SxbgJzfcgOnlJX2vMsBoOQy0FpLbYsUnrrsOf/36V3DenBnalUQMkYYnEN0uz4dRXPIpwyue3gwIt8SHhnTT6STWbPMhFJFEFxI5FNq5fa1RNLcdfmGYkYActwMGI9dkEI2jS2OGfSImmcayRsm4OD5kySQeSsHfG8LiuglYMnYiUom4qFwP7DYbqiqrlJvhDGVjlAKvYzxoP44bzCEvvfASNq7fjPpt9diwYTO2rN+EtcuWZtY4GEawThIZa0FaKtxkpBGxjr8g4X1ASNgn2d+AqoIc3Hn1VfjspRei2u1SJoeBLKWQBStiRggV7DWLF+Pv3/oGbr7iUtgsXGI0Kc9biZ5ldyK67d9IJyh0UjDkjBFloO1APYrTh7Bf0lYK8mmPdo8vjsdf9CIpj2Zv/hFrXMlMuQ7gmgvyYOSKJRkyHkmIiqTv7vZwUSg1PZiv+lJwOfZFmtTrHLzDBBsfB++RpgpVBmlRt23tfiysrMPbZ50lrvXweDqFeGOYPHmKGrUwvJDGU20pbO7N2BQ5+kDeZ1xxGv4Q0O6j5srqrpQaucAO1bi8/BUuPyyZ7JGJOgU2nTfv8uC1px9F4676zFlxIw6SqbhaiYvKOAv6+50f3ImzF83PnDndkNAke4Ron0Y6vIVvqVI5pTfD6DwPesdZ0Omt4iyNsCj15zduw/3r1iIY0fZP2/8mB4/TZazwegrT68bgM+98BybUVEo8aPekAo0IbbsXya4t4Kq9qpVlzIN1wtthrlgiz8wq3lGcPpRL2p9mMDOs2BDSevcV4fAMwao9+10Dr3oDwKZdI7dTzWIyIj8vVzK8ZG8pVDpRHhe6FqDOUtdHqsdCtl5MxtPobPdhUdU43Dh7oVJ0Pr8X8WgEY8eOG4aEexCEcA2S5hNLgSK3DmF5n2yhJ3FwcMI0EepjyoSWJDtEU9qW3swmaviXfJKwaVXQ7tH2mcuuOcv1aBlTmo/DCRI2Q77w3U3QF9wCnblM3ispIjSKpBBxKrxZhZkEa5eW0TWzJ+HnN7wNF0+epFTvYXWRnGKcFOc48Y0PvA+//vznMammWtG5qqTTCQTX/BzJ7s3KcVxKuqXqGrjO+R6sVedLvO1foGkUpxenVenyUftaw3hheUDLGAckejYYB2YEOjNKDX3NhblwOzgiYGRmlHA4gu5en7wlw6/9vzayBRv8W9Uap1kcrHS1eBLCSaTR0xrCZRNn4Pzx0lwVl5GAT+3xP1ZUDre4Hp7IKF2vQd4lhQmlOjgdKdSL0PeF5ZxyIWQsQnhKJSc4JLBtnwGRhA4O0bQllhSsIQ/qXr5PmueaqabH61NDCp/a58GeQFzu35+F46L4uREjCSkL+j+0Snc/GFauG5EKbUA88KzEiRmmwo9LhbF/+nv/kO/t7sWfXnsdW5paVedpV70o3WAITosRN110Ed55+WWwc80PFZP7QVJPtK1BYP3dMBTOhnPSuwFnSUZlnXatNYo+lJ9e0o1JSXn0eS/84ZQikyM+ul/+4Ve2pKorTDhnngsG3cgd+hKMxODp6VXvk9LrYRS535BoxSve5YgJ0bLgHEC6cg/PJOJJBDuieM/cxZhUXK7MFNFwGF5PJ+rq6oYx4RJZ0tWjVIJZUwBsbUrBFxLyIYnKH6vSSTWixAxpbNknTew4U12N2lY+WLp34fzv3oyUMZP2cppx+B97HXaYxcN+iyUNd9LNgpOCdIkAUqkg9OYSle6HA+MnmUxhRUMD/vbqSmxdtxoXTpmID173VpQX5Kv8oVXMB4NjJeTPs1MU9gRxJXGm3B3O7ShOFzwr805XlSdFQArG1l1B+DnzjHY9OXdksMBo18nL/La3OY6u7hE6YyID9lbT1EDJopf44DbZVcYSvCX/EhQbOXuME6G1tjMLCP/i4SRyYzZ85oKrMEEIlzEXD0s89nZj7Nixw5xw+yGtE6Wfxvq9gDci2U5HwhWFq09hclUaZmHebY3SIoiTWLVsyfYADzXYiVmCUcODWYgO2GF2+jTDoEKZAYxuGMxl8i4HFsN0OoGY734kgmvke0ziCFg4dgx+cuN1+O2n7sCdH3gfKgtzVRwkIl2iZn+FWM927eY+MN6MMOdPUmYo7iySibVRDCHyz7KdLtIFAsEENtfHlELRCIWfRzsOdCP/Y8WmoFrshcVxpMJhNaG4IAdGpdq09+Auv1fnXoDFjnmwgR0qrKTSMASBi0un4faFlyDPalfxEQ4FEQwGMGHCBOTmCoGPIMRTOkRibF7LD/nPoE9jYoUOZpMOW0XhBuO8wAxCqn3zIhXbB/jXIdXzIBJdf0E61qDqFrvViClV5apApKTVGKl/AMFXv4xEyyqEt96jyDorVkYxXOE6PaTLJtLqLREpdPJDlTh+Zr4f7sii3zm9IaWmDG9vGPhqVcMTJBkzigryYLVatMpFzcgTArKNxdsKrsAs+2zMzanFx866DPO5rCErHolDn69XEiyFSRMn9i2sM7LARJcsJ+lpkPedIoRrM+tE4SY1k0JaMx/oU1S2SeX6zYh0slciwaFVydEWxLvuQar7f6LyeyT1U4i3rUTglS8jsvshcRsRdzGJVSOScc7uVF6MYtji3lNNuloOaGmPY2+7tu24XghGL01NWuwU7x7jIHgPkhzeosemrUGEopnu6xEM7jRRmJeLvByXpuSl+cfpwSZ51VnO8bioeipMVMMSZ4lkEt6ebhQVFiiTArcGGrHQcViYVDDVgEkIlzbcIE0KHKIg582mFKbW6ZDj5Ku/ORnEIJWuqfhjwrtz5ZeofskXqegGJDp+h/D6HyO87m6k4l0qynTmXDhmfgKOhXfCaM6RE9lSM4rhibmnmnR1SEqTp74hhDynEbluA3LcejmMsJo12j3qn07c2+leDslPOXK/1WbEzn0jXe3uB2etlRUXwmU3yxtLjLGCEaVH2y0TJxoJyLkEJk4Yj8KCoV817KTASkVIYXKFHnapN7btSyLCWbHCHqxwrEK6U6to7wYCksTMA29GqLxvcMOYd62Q74elduJWQzwbk4jZIznDiLTeAnvNtXCd+yOYyzl8kK0ElYPoxSiGMU7L6AU+gFmh/4M214ewdqs2dOyIIZALV5ybh4K8Q5XdmZi14vEE/IEAgsJEyXgURmFdLlxjs3E68UjF/skRNJFMrEzBYRWFuzeFcDyzrrCct4rCnVytVz31W/dJXKTFveQLZg1Hdz2WfOcWIRrN/EBw+NR9jnHYYaRde38GGimjFwYOvkccifBWpHzPIly/U5TwFDXBweAslzgdJdmRhlOsdDVkswU/+x9ZsEV0uIP/qe/8etBxJsKUmUhRWpiDspJCVFZWjnDCPRDsHmvtkQp3rw6RBHvU5aQcNCOUFxiEMNOKcBNsN2cIdxSMJDP0tukwF30cztlfgm327UK8JZlroxhpOC2keyRwJSwq3SMhWyjfbDCZzLBYrJlfZxa8QQMicbZu2HkoJ+SgrX5fRxqbm9NK4WpTw0fRHxxiBr0VBkctDDqjGuM8SrkjE0Oeuw9n3egj4lGp86ZBgvkgoZkURjGKMxlDRrrKbCD/HengDrZn0pqwozgGqHz5of0axSjOTATfOHHSffbZZ/Gvf/0LDz74IPbs2aMUK49f/OIXuP/++zOuDsTf//53/PGPf1TuyKfKepAhWSL7PZVM4EffeBea920Vt/sbUQPt83v44Yfx05/+dMDuTxbZ5/Cz/3Eq0N/vU/mcUZwcsmmze/dubNu2rW+d366uLmzcuBEbNmzAli1b4PF4Tmk6dnd3q2eptYcPg2AwqK5HIhG0tbVh61aWudE8dargefCHJ0a6TJSPfexj+O53v4tf/vKXmDt3Lr74xS+q80y4nh7uYHAomOE6Ozvh9/txzRVz0bR7qxCvRqr9lS1n1mzZ+BoC/l4hYXUKzc3NqK2tRVNTk3biKODzW1tbM79OPRobG/GhD30IM2bMwIUXXoj//ve/pyzjPvPMM3j729+OUCiEWCyG5557brSQDEOQ5D784Q+rsrFw4ULceOONSCQS+Pe//43Zs2dj0aJFmDdvHsaMGYOvf/3rSKW0WYiDDQqQs846C9FoNHPmQKxatUpd37VrF37/+9/j6quvVmEZxalBe2PziStdJgwz1QsvvKDU7d13361qSfa28+jt7VXXL730Utx000341a9+pc6bzWb87Gc/w769u3Hv3+7Erh0r8PiDv8QP7rwRP/vWu7Bt06ua8uV034yBj8/6/ve/r4j3tttuw5/+9Ce8+93vVhnpf//7nzrHTP6Xv/wF3/ve99QeYXxWIBDAe97zHlU5XHTRRfjxj3886BmKBeX9738/Xn31VRWOwsJC3HzzzVixYoW6li1I/b8T2d9HO/q7Y7h58L24tTorKL7XZz/72QPcHXyMYmjA1d82bdqEP//5z/i///s/PProo4rYCE5uIdlt3rxZVdY//OEP1e9si4/Yvn07duzYgXXr1inipBKlQmbLkhVuFmxlssW5du3avjzCsvD666/j8ccfRzwe78sH/Fy5cqUSBVTA2XN0z2dfe+21+NGPfqS+81n0e82aNXjggQcQDof78hTDyjBRQL3xxhuq8h/FwFA1fcrJ2XSzicna0Wq1qkz22muvqebKP//5T5Vx/t//+3947LHHVG3KDEQyOv/882HQGzB9zgUoLh0Do8mGD3/y5yitqsF99/wARn12/KYGZoKLL75YPe+aa67BggULlAmD/tFkQRKm2mRNTVJns+2VV15RpHzfffep31QW3/rWt5TaHkwwTHv37lXDu/iOv/vd7/Cd73xHxQczMyuYSZMm4ZJLLlEZnu4bGhpUpTFu3Di8613vUmFnvNBNS0uLKigsAKxQli1bhquuukoR+jnnnKMyOpusLLB//etfVcH4zGc+g3e84x2q8iNYKOhXff3+Bb5HcXrB8dUsC5MnT8Y//vEPpW65d122zLBypsr96le/qkj4ySefVOezuPPOO3Huuefik5/8pKrUef8HP/hBlQ/Y0qE/f/jDH5T/FDznnXcebr/9dnXv1772NSUyKHS+8Y1vqHN0/4UvfAGXXXaZqgS4dsf69ev7wkM89NBDKi+RuOkX/WSlzoqBeZBuf/CDH6h8+Nvf/lYp+AsuuKCPwEdxbDiv+PbgdKTRLsTajgqTCUOS5BbgrNmpxrgSFhOZ13gwAxkMBoybNA+5OQVIxSP46//7LDaueg2xUJAsq/zN1vz85D28l+Q7depU1ZQnmbOG528SFMmVmSqL7P2f+tSnFMmRzFhjDyb4jK985StYvnw5Fi9erDIkzRsTJ05UaoAFgAVr/PjxuOGGG5RiYeFh3LCw0N7HjMx7XnrpJXWd70nlTDKmze+pp56Cz+fD+973PuVu6dKlqtDyvfPz81WlV1RUhF//+teK6FnR8F4u+ziKoQNbI1SMJCXmE6pfIltGiGzLkOnbH3TDNGXfCfMN/aApia1H5nmqXYoI5glWzDTzUXxQiFBd0/z3xBNPqJYewZYnSZokSqHCCp8iJRsOIvs9+8n8w+fTL74H8yZFxS233KL8JhkT/f0YxTFgqDo50mXznWr2S1/6EnJycpSaZAIww1CJkXjZFGYzp/+KWLzOFf8jgR60t+3Bff/4AW7+yDdw7iXXMwXBmUtquTuphLPJmR3T297ergj+iiuuwN/+9jflP80XVNT8PmXKlMwd2nOI/pkie24wQXMCTSsk0enTpyszBgvB888/ryoiNtFox6Z5hCqUqpaVANUDm2cMe/b9iP5h5DkeJPYPfOADmbOakmKh4CaUVDW33nor9u3bp5qVbIJSQdNOPtRQaS0Jqded+KE2DDMYkTaKT5lDrXeoM8p1ySk6vTp0EodGyVfcQcJg0A6juFO7SvTlpNMDVn5stbDFQhXLVse9997bl57ZNCaZUgiUl5er3/3Bc2y5kZRZyTqdTnXwXpIuK+CZM2cq/+bMmaMU6s6dO9U15g2eJ7kSJHyepxD46Ec/ipKSEnUcDTU1NSoPsezymXwnkjf7Vug3lfoojh8nRLpMgIqKClVzkjhY2Kk6qbpIBm63W2UYNn1ZO7Opy9qViUc3zDiLFp2H39z9GTTu3Y7xE+fj7u9+BCvfeAbuvEIkpQDl5hfDZDb1DSFiBpk/fz7e9ra3qdo8a/An+VLdspPi+uuvV+RFImI4+L20tFRlXGYeVgJU2IMJdhxyERoWKGZmqgc+k5mfJgZuoXPdddfhne98p1IiLAwMD80czLhU6Dz4naBJhJVZfzsZw8x3ohsejP+s+yxmzZql1P+3v/1t1YlIc8NwwQUlBtw+IX3Cx/vnj8eU/z6Fafc93XdMuu8pfOWvv8Ff/vQj/Dlz/OWPP8Y9f70bDz31bzz05H/U8eCT9+GRp+7HWQu4eMzpA01AbN2xif/iiy+q1iDzBcF8y1YN7bzMMzQv0GRwLGTTnOlPkcPWE00XrPBpMuA5mgRIliRXEj3tsXRPQZItQzR5MV+SkHntSDg4j7EMMZ8xr7NyZ8tqFCcAifQTgpBcWprraan9Mmc08DzPCRmnhWjSq1evTktCpaWZra7xILbtCqbvfbQp/Z8nO9P/faojfe8jjen7n+qUo0Od4+e/n+hId/fGlXuC90ozLC2ZVv0WYjrsdz6fYSMOdjPYoN+iKtOSidNSEaRnz56dFlJNP/300+nly5enRemm3/ve96bPPffc9MSJE9OieNO33XZbWgpIWpqK6vOrX/1qetu2bWkh6fQ111yTfutb35oWdZMW5ZyWgqn8bmhoUM/64x//qNwxHr785S+nhYzTd911l3pnupeKJi0Fr++dRzE0YHoIuaXz8vLSIjJUmkvzPC1CJV1UVKQOIcH0+eefn37qqacyd+2HtGrSIiJUOjJ/SCtS+fmLX/xC5SN+X7lyZfrss89WeUwq/rQIH3VehE5a1GhaBI4qgyI20kL66UceeUSdZ3iWLFmS3rVrV3rp0qVpIWSV/374wx+qsspyxvJ7++23q+cLuaaF4NOilNMieNS9UqGkpXWl8qkIj0yoRzEQnLIFb9iMZq8smyPsYKIRv7+JYduuMDbWBw9Qbdnv2c+khOzSRaKOc4a+mXwkMKxsHtLGRTssFamQprJBE+ysYKcfz9MEQLVB2xg7LRhH7BSke6odmiNoQ2OTlEqJypWtBtp0acKgHzTb0KbLzhXae6k2qGxo22NHJpuZVNv9TRHDCVR87JWneqfde9hvpnmCYL7gQVutEKFq4RH8zr4FgnmcrR5+ZstAFtkhXrxO90J+quXE7/QjG29CkCofMJ/wXLb80JRAtzzPVhNNFNm8ypYU+1moXLPh4b38zoPP4fPpF/Nlfzfsj+B5dvCxs5wjhtiiHZnrOw8NTuseaf2xbbeQ7o5g5tfhwR2DLxbSLRjGpDscwCQk0XLiCe3GHD1CG+BwAsPIDiCagNjJRxKZNm2aMq1k7Y6jGN5gmrF/5o477lAmLBI3R+pQABxcaYziyDipjrSTQTaJjppYcmk0KY8NxiFt6LRtc9w07dnDET/5yU+UiiLpsgXATlHauQkqKY4AYcci1RtBezkVP93RLpqdvcXCT1XP/gLazgme58ERLHSbHRpIlcZz9OPll19WHZp0d6aBb3Sq34p9JOxLYec5hy5S4Y4S7vFjyJUuE+xIQUhLWl58dg7yc0bwTgmjUGAa08T0m9/8RnUssgOW4zw5LIrNVo62oImGZocLL7xQzdy66667cM8996iOVxI1e8vZgcMxopwEQ1MNiZkKnwqaw/N+/vOfqzxFFcbmL8087G3nc9jhS0I+++yzzyiiYOnRJbVKhzsecSTHKIYvhox0t5N06/fPrDkcSLoXLXCPku4ZAtoZOfSNPeskUQ6nY+87P6+88kql0kmOHAbFYW+0XXM4Hccyc8QKJ8asXr1aNW+ZbTl+lAqZ5E07JfsOaGah/ZujAaiSOUmGZE07OYf0kYyp2M4kCNUi3hFG4OU26JxmmAvM0OeZYXBbYHCYoLNzKUi2GumSn6PKdCgxhLnv0M6DUZy5YDOf5gCSIZv77HQkGXLyDGf00WTwkY98RCnWrIIlONQpeyglJ8c3v/lNNUaVnTokYNqFOTyKfnCGFDuIOEmF9m2SMsGhUuzMOtMIl+BQZlhMSMbSSHZFEd4eQHCZB96nm+B9ZB+8j+6F7/k2BFd5EN0TQLw3AkRSwOgSC0OAyFCSrtbkHCXeNw84PpQzqjgCg+qWJEkbL8c5Mx9wQgkVLmdRLVmyROUPgteyB+29VLuf/vSnlQLmaA3OwONICJItv3PCASck8Bx7/4nsKIEzEvJeRrtBKhRNyabSSeHTpPqeSCQR98YQbfYjtMUD/9I29D7SiM6H9sLziJDxyy0Iru9GtMGPhCeKRDSJZJqbHaXFH7KylgajGBwk6/8whKQr+T9bkLRZRYceWhEZJeUzAVSYWXsrp0tzhS0OZaJtlgRLouUEEl7jGhWcyEJbL4cikXx5P227HMJEoubUai6mROL9xCc+oUZCcLUudtZxNARng9H2SyLmUDvedyZDz5l38q4iYzJnDgOWKTnUZ0zI1S9kvDeM0IZe+F5pR+/jooof3gffY00ILO1EZFMPoi1hxH0xpOMaEWu0niXiUUI+XhjGf2LobLo79kSUTZfkeqQg8OyFC9zIGx0ydkaA6UylymY/zQ1cAIZkSCKg6mWPOMcwc/EgdqjxO92TbPlJmzAVMgmYoxA6OjqUKYKkqshEwOmuHOXA0RwkbT6T9l4S9RlNvFJYvE81I9oVke8nZzfoo20aglkI2TlnNcBoM0KXZ4Ix1yyHFUaXtCLsUn457XpUHA0MkV1DS7qbdoaPmlQM2AXzXaOkO4pRDAD+l1sQ2Rc6oogZKLJlkp/szNYErZCrfGfTWPNd/jeKujbrYHKaYSi0wJBjhcFtgt5lVCTNilBTxhqybdc3M5r/7/LhTbrE+aOkO4pRDAiBlZ0Ib/UeQHSnCn3lVhErP/VqXSIgCaNZpLHDAIPDIgRsgKnACp2oY5NblLJxcNc+GWkIvvK5oSXdzTu1cbpHAgOmSFdqz1GMYhRHR3hLD4KrukHr69FwcIk7EQLoT7oKikbku46UL5/yc78b7VCrv9lEBRdbYMwRdewyqcPotACmzH3yT+to6rv7jMOQkW59A0k3pDVBjhAEnh0l3VGMYmDgcDDvq20ZAtSQpa7+JexgOjuVBND3rAw5K12c2WJfR9uzUQed1QB9jgUGquEcIeIcqyhkIWWrZtJgCLN3a6HV1HWf3yMMw5p0GcHnzs9BvjRLRjGKURwdsY6Q6kzrX5qyxDQkhfw4QB5gWEmnHPBmZAerRa867JBrginPAp3wgNFmACwcHke3GnmPNAwp6W7ZxRlpB9dXDI52Li2Rf95ZOaJ0R0l3FKM4FhKBOHoe2os0V4rKYMSQbuaTiriPAUTmpuSLQShK2anlu85sUCYKU64Feo6iEDJWnXcOI3TCx6l+5K2hz+dhgyEnXZ1Of5DSpTVeq8HSujTOn+dG7ijpjmIUx0Q6nkbn//aI5D38dutnChSN9iPXNGUvzRQOg1LExjwr9LQZCxEbHeLKyJEUw0cVDxHpprFzb1RIN8y4O4p5ATjnLDfyXKOkO4pRHAvpdAreZ9oRbw8oUjoahkhrHRP9Q31wCI927bCQG0jNOlHM+gIzHNPyYamyi6Y7etycWgD/H6QVYQKoblYAAAAAAElFTkSuQmCC;strokeColor=#000000;" vertex="1" parent="1">
          <mxGeometry x="244.56" y="770" width="359.44" height="310" as="geometry" />
        </mxCell>
      </root>
    </mxGraphModel>
  </diagram>
</mxfile>
